SplineFontDB: 3.0
FontName: Tuffy-Italic
FullName: Tuffy Italic
FamilyName: Tuffy
Weight: Regular
Copyright: Created by Thatcher Ulrich (http://tulrich.com), Karoly Barta (bartakarcsi@gmail.com) and Michael Everson with FontForge (http://fontforge.sf.net)\n\nThis font, including hint instructions, has been donated to the Public Domain.  Do whatever you want with it.\n
FontLog: "2012-06-13: Small fixes.+AAoA-2010-08-20: Merged accented and extended characters from Karoly Barta and Michael Everson.+AAoA-2004-9-1: Created." 
Version: 001.280
DefaultBaseFilename: Tuffy_Italic
ItalicAngle: 0
UnderlinePosition: -100
UnderlineWidth: 50
Ascent: 1597
Descent: 451
LayerCount: 2
Layer: 0 0 "Back"  1
Layer: 1 0 "Fore"  0
NeedsXUIDChange: 1
XUID: [1021 745 1046372284 8037501]
FSType: 0
OS2Version: 0
OS2_WeightWidthSlopeOnly: 0
OS2_UseTypoMetrics: 1
CreationTime: 1166531129
ModificationTime: 1339648334
PfmFamily: 33
TTFWeight: 500
TTFWidth: 5
LineGap: 0
VLineGap: 0
Panose: 2 11 6 3 6 1 0 0 0 0
OS2TypoAscent: 1597
OS2TypoAOffset: 0
OS2TypoDescent: -505
OS2TypoDOffset: 0
OS2TypoLinegap: 0
OS2WinAscent: 1950
OS2WinAOffset: 0
OS2WinDescent: 451
OS2WinDOffset: 0
HheadAscent: 1950
HheadAOffset: 0
HheadDescent: -505
HheadDOffset: 0
OS2Vendor: 'PfEd'
Lookup: 4 0 1 "Tuffy-Regular-'liga' Standard Ligatures Hungarian"  {"Tuffy-Regular-'liga' Standard Ligatures lookup 4-1"  } ['liga' ('latn' <'HUN ' > ) ]
Lookup: 1 0 0 "Tuffy-Regular-'locl' Localized Forms Romanian"  {"Tuffy-Regular-'locl' Localized Forms in Latin lookup 2-1"  } ['locl' ('DFLT' <'MOL ' 'ROM ' 'dflt' > 'latn' <'MOL ' 'ROM ' 'dflt' > ) ]
Lookup: 4 0 0 "Tuffy-Regular-'frac' Diagonal Fractions lookup 2"  {"Tuffy-Regular-'frac' Diagonal Fractions lookup 2-2"  } ['frac' ('DFLT' <'dflt' > 'grek' <'dflt' > 'latn' <'dflt' > ) ]
Lookup: 4 0 1 "Tuffy-Regular-'liga' Standard Ligatures lookup 1"  {"Tuffy-Regular-'liga' Standard Ligatures lookup 1-1"  } ['liga' ('DFLT' <'dflt' > 'latn' <'dflt' > ) ]

StartChar: exclam
Encoding: 33 33 1
Width: 421
Flags: HMW
LayerCount: 2
Fore
SplineSet
375 440 m 1
 368 406 333 381 304 381 c 1
 276.164529098 381.869858466 256.65224945 400.142753188 256.65224945 427.262322454 c 0
 256.65224945 431.319743855 257.08900926 435.575187833 258 440 c 1
 418 1389 l 1
 429 1442 485 1483 536 1483 c 1
 583.37892221 1483 619.569994018 1448.63731663 619.569994018 1406.34392679 c 0
 619.569994018 1401.32620112 619.060580715 1396.1968455 618 1391 c 1
 375 440 l 1
EndSplineSet
Refer: 14 46 N 1 0 0 1 0 0 2
EndChar

StartChar: quotedbl
Encoding: 34 34 2
Width: 690
Flags: HMW
LayerCount: 2
Fore
SplineSet
674 1092 m 2
 734 1466 l 1
 745 1516 786 1542 822 1542 c 0
 823 1542 824 1542 826 1542 c 0
 860.07434284 1542 885.272542486 1522.53135822 885.272542486 1482.45984838 c 0
 885.272542486 1477.32623792 883.809016994 1471.66311896 883 1466 c 1
 783 1092 l 1
 774 1061 742 1044 718 1044 c 0
 695.505309479 1044 673.967161683 1055.4785127 673.967161683 1081.24212062 c 0
 673.967161683 1084.76919112 674 1088.42031894 674 1092 c 2
382 1092 m 2
 441 1466 l 1
 452 1516 493 1542 529 1542 c 0
 530 1542 531 1542 533 1542 c 0
 565 1542 592 1524 593 1486 c 0
 593 1480 592 1473 591 1466 c 1
 490 1092 l 1
 481 1061 449 1044 425 1044 c 0
 402.505309479 1044 380.967161683 1055.4785127 380.967161683 1081.24212062 c 0
 380.967161683 1085.04678071 380.813544377 1088.44063313 382 1092 c 2
EndSplineSet
EndChar

StartChar: numbersign
Encoding: 35 35 3
Width: 1589
Flags: HMW
LayerCount: 2
Fore
SplineSet
1085 547 m 0
 1157 885 l 0
 815 885 l 0
 743 547 l 0
 1085 547 l 0
1204 406 m 0
 1129 53 l 1
 980 53 l 1
 1055 406 l 0
 713 406 l 0
 638 53 l 1
 488 53 l 1
 563 406 l 0
 215 406 l 1
 245 547 l 1
 593 547 l 0
 665 885 l 0
 317 885 l 1
 347 1024 l 1
 695 1024 l 0
 775 1403 l 1
 925 1403 l 1
 845 1024 l 0
 1187 1024 l 0
 1267 1403 l 1
 1416 1403 l 1
 1336 1024 l 0
 1697 1024 l 1
 1667 885 l 1
 1306 885 l 0
 1234 547 l 0
 1595 547 l 1
 1565 406 l 1
 1204 406 l 0
EndSplineSet
EndChar

StartChar: dollar
Encoding: 36 36 4
Width: 1017
Flags: HMW
LayerCount: 2
Back
SplineSet
434.176 1495.04 m 1
 581.632 1495.04 l 1
 581.632 -114.688 l 1
 434.176 -114.688 l 1
 434.176 1495.04 l 1
24.5762 266.24 m 1
 159.744 346.112 l 1
 249.856 206.848 321.538 112.64 507.906 112.64 c 1
 690.178 112.64 811.008 219.136 811.008 376.832 c 1
 811.008 565.248 632.037 623.215 454.656 671.744 c 0
 299.418 714.216 92.1602 780.288 83.9678 1034.24 c 0
 76.0439 1279.87 274.432 1413.12 507.904 1413.12 c 1
 747.521 1413.12 841.729 1306.62 935.934 1167.36 c 1
 811.008 1087.49 l 1
 751.616 1189.89 667.648 1271.81 507.904 1271.81 c 1
 354.304 1271.81 245.76 1198.08 245.76 1034.24 c 0
 245.76 843.776 419.396 838.961 565.246 782.336 c 0
 751.104 710.183 974.848 673.792 972.8 376.832 c 0
 971.078 126.982 778.24 -26.624 507.904 -28.6719 c 1
 284.672 -26.624 157.696 57.3438 24.5762 266.24 c 1
EndSplineSet
Fore
SplineSet
780 1537 m 1
 909 1537 l 1
 882 1411 l 1
 1032 1399 1125 1305 1184 1168 c 1
 1042 1088 l 1
 1017 1165 956 1249 851 1264 c 1
 747 775 l 1
 899.068528667 712.075091586 1064.88547434 670.536609632 1064.88547434 476.826954515 c 0
 1064.88547434 448.889959363 1061.43653338 417.787851079 1054 383 c 0
 1008 168 825 0 576 -26 c 1
 549 -155 l 1
 422 -155 l 1
 449 -26 l 1
 231 -8 155 94 82 266 c 1
 234 346 l 1
 281 237 327 133 480 117 c 1
 598 672 l 1
 430.970402048 714.406478237 296.896078332 789.019247205 296.896078332 962.602807522 c 0
 296.896078332 989.592244757 300.137354899 1018.97432286 307 1051 c 0
 352 1264 548 1397 752 1409 c 1
 780 1537 l 1
629 817 m 1
 725 1270 l 1
 601 1255 495 1174 469 1051 c 0
 463.863570947 1026.71869902 461.440535082 1005.07811105 461.440535082 985.727544789 c 0
 461.440535082 880.756587264 532.744027639 843.174869677 629 817 c 1
716 630 m 1
 607 119 l 1
 757 143 862 242 892 383 c 0
 895.457371492 399.384934462 897.220024038 415.340540124 897.220024038 430.788693347 c 0
 897.220024038 518.108647327 840.902886551 589.215383983 716 630 c 1
EndSplineSet
EndChar

StartChar: percent
Encoding: 37 37 5
Width: 1402
Flags: HMW
LayerCount: 2
Fore
SplineSet
970 373 m 0
 967 359 966 346 966 334 c 0
 966 267 1007 219 1079 219 c 0
 1159 219 1240 283 1259 373 c 0
 1261 383 1263 394 1262 404 c 0
 1262 470 1216 522 1143 522 c 0
 1065 522 987 453 970 373 c 0
841 373 m 0
 873 522 1020 643 1171 643 c 0
 1303 643 1394 551 1394 429 c 0
 1394 411 1392 392 1388 373 c 0
 1356 223 1208 104 1056 104 c 0
 924 104 835 194 835 316 c 0
 835 335 837 353 841 373 c 0
460 1077 m 0
 457 1064 457 1051 456 1039 c 0
 457 972 498 924 571 924 c 0
 651 924 732 987 751 1077 c 0
 753 1088 755 1098 755 1109 c 0
 755 1174 709 1227 636 1227 c 0
 558 1227 477 1157 460 1077 c 0
333 1077 m 0
 365 1227 512 1348 664 1348 c 0
 796 1348 886 1256 886 1133 c 0
 886 1115 884 1096 880 1077 c 0
 848 928 700 809 549 809 c 0
 417 809 327 899 327 1021 c 0
 327 1039 329 1058 333 1077 c 0
453 137 m 1
 303 137 l 1
 1275 1319 l 0
 1419 1319 l 1
 453 137 l 1
EndSplineSet
EndChar

StartChar: ampersand
Encoding: 38 38 6
Width: 1241
Flags: HMW
LayerCount: 2
Back
SplineSet
1026.05 251.904 m 13xd0
 870.4 299.008 l 21
 819.198 188.416 700.414 112.64 591.87 112.64 c 5
 413.696 112.64 260.096 229.376 260.096 423.936 c 4xd0
 260.096 624.64 428.585 731.136 587.776 731.136 c 6
 665.6 731.136 l 5
 665.6 856.064 l 5
 567.296 856.064 l 4
 442.368 856.064 327.68 962.561 327.68 1116.16 c 4
 327.68 1253.38 446.464 1357.82 569.344 1357.82 c 6
 575.488 1357.82 l 4
 686.08 1357.82 768 1294.34 808.958 1200.13 c 13
 946.176 1263.62 l 21
 876.544 1400.83 737.28 1497.09 569.344 1497.09 c 4
 368.64 1497.09 169.984 1343.49 169.984 1116.16 c 4xe0
 169.984 940.032 284.672 829.44 352.256 794.624 c 5
 256.739 765.747 102.4 622.592 102.4 423.936 c 4
 102.4 159.744 317.44 -28.6719 591.872 -28.6719 c 5
 747.521 -28.6719 948.224 71.6797 1026.05 251.904 c 13xd0
EndSplineSet
Fore
SplineSet
1066 1200 m 17
 1039 1292 989 1352 854 1352 c 1
 725 1352 598 1260 568 1120 c 0
 564.172219182 1101.84891031 562.372225562 1084.47539316 562.372225562 1067.96416517 c 0
 562.372225562 950.756120236 653.076355266 877 753 877 c 2
 854 877 l 1
 824 735 l 1
 727 735 l 2
 541 735 392 631 349 430 c 0
 343.381546652 403.47567373 340.750777541 378.470798301 340.750777541 355.041141701 c 0
 340.750777541 199.155393961 457.207270747 113 585 113 c 0
 755 113 907 256 939 408 c 1
 744 408 l 1
 773 547 l 1
 1275 547 l 1
 1245 406 l 1
 1104 406 l 1
 1068 238 873 -29 555 -29 c 0
 343.026206777 -29 180.923286204 125.216083117 180.923286204 336.873309824 c 0
 180.923286204 366.854674777 184.175862096 397.988589469 191 430 c 0
 239 655 432 791 538 813 c 1
 465.336003461 846.85481657 400.853912489 919.573684586 400.853912489 1038.47562815 c 0
 400.853912489 1063.57032023 403.726180403 1090.72217521 410 1120 c 0
 450 1309 643 1493 884 1493 c 0
 1069 1493 1178 1389 1215 1266 c 9
 1066 1200 l 17
EndSplineSet
EndChar

StartChar: quotesingle
Encoding: 39 39 7
Width: 382
Flags: HMW
LayerCount: 2
Fore
SplineSet
382 1092 m 2
 441 1466 l 1
 452 1516 493 1542 529 1542 c 0
 530 1542 531 1542 533 1542 c 0
 565 1542 592 1524 593 1486 c 0
 593 1480 592 1473 591 1466 c 1
 490 1092 l 1
 481 1061 449 1044 425 1044 c 0
 402.505309479 1044 380.967161683 1055.4785127 380.967161683 1081.24212062 c 0
 380.967161683 1085.04678071 380.813544377 1088.44063313 382 1092 c 2
EndSplineSet
EndChar

StartChar: parenleft
Encoding: 40 40 8
Width: 548
Flags: HMW
LayerCount: 2
Fore
SplineSet
261 -84 m 1
 199.655772011 55.4774025866 163.329478476 225.810257668 163.329478476 414.343972941 c 0
 163.329478476 517.780725598 174.26382395 626.69600287 198 739 c 0
 253 997 397 1303 608 1550 c 1
 786 1550 l 1
 544 1282 405 997 348 729 c 0
 328.935571923 638.741848324 320.341696901 548.927364151 320.341696901 461.697546362 c 0
 320.341696901 256.093594576 368.086050559 64.849081996 439 -84 c 1
 261 -84 l 1
EndSplineSet
EndChar

StartChar: parenright
Encoding: 41 41 9
Width: 536
Flags: HMW
LayerCount: 2
Fore
SplineSet
248 -84 m 1
 72 -84 l 1
 298 168 453 465 509 727 c 0
 527.342689467 813.601550268 535.739136457 902.915712121 535.739136457 991.380674879 c 0
 535.739136457 1197.11263117 490.328617613 1398.25186253 419 1550 c 1
 595 1550 l 1
 654.162722471 1410.40256496 692.556513832 1227.49969909 692.556513832 1030.95991716 c 0
 692.556513832 931.839866993 682.791270106 829.251344342 661 727 c 0
 603 453 463 164 248 -84 c 1
EndSplineSet
EndChar

StartChar: asterisk
Encoding: 42 42 10
Width: 913
Flags: HMW
LayerCount: 2
Fore
SplineSet
572 518 m 1
 411 294 l 2
 398 275 372 254 341 254 c 0
 328 254 315 257 302 266 c 0
 284.799092182 277.467271879 275.64910218 294.972732121 275.64910218 314.66962808 c 0
 275.64910218 319.019998667 276.095454242 323.477271212 277 328 c 0
 280 341 286 355 297 369 c 2
 476 576 l 1
 228 562 l 2
 202.653791014 562 166.613141673 573.458328953 166.613141673 617.071955153 c 0
 166.613141673 623.359091647 167.362093683 630.314439591 169 638 c 0
 178 681 214 712 260 712 c 2
 505 698 l 1
 414 906 l 2
 410 917 408 932 411 948 c 0
 415 969 429 992 463 1009 c 0
 478 1017 493 1021 506 1021 c 0
 531 1021 553 1007 560 981 c 2
 624 762 l 1
 779 979 l 2
 798 1005 825 1019 850 1019 c 0
 863 1019 876 1015 887 1007 c 0
 907.891397168 993.340240313 915.224421572 975.806659837 915.224421572 958.54949081 c 0
 915.224421572 954.329570914 914.785938897 950.12617921 914 946 c 0
 911 930 901 915 893 904 c 2
 714 698 l 1
 964 712 l 2
 1003.57783732 712 1026.86979819 689.051719563 1026.86979819 655.256577263 c 0
 1026.86979819 649.77275307 1026.25651009 644.003325987 1025 638 c 0
 1012 577 961 562 932 562 c 2
 691 576 l 1
 782 371 l 2
 787 357 788 343 785 330 c 0
 780 305 761 282 734 268 c 0
 717 259 702 256 689 256 c 0
 658 256 641 277 636 296 c 2
 572 518 l 1
EndSplineSet
EndChar

StartChar: plus
Encoding: 43 43 11
Width: 894
Flags: HMW
LayerCount: 2
Fore
SplineSet
229 711 m 1
 536 711 l 1
 602 1022 l 1
 743 1022 l 1
 677 711 l 1
 985 711 l 1
 955 569 l 1
 647 569 l 1
 581 258 l 1
 440 258 l 1
 506 569 l 1
 199 569 l 1
 229 711 l 1
EndSplineSet
EndChar

StartChar: comma
Encoding: 44 44 12
Width: 399
Flags: HMW
LayerCount: 2
Fore
SplineSet
338 94 m 5
 305 -63 177 -186 148 -221 c 5
 99 -190 l 5
 126 -160 193 -84 208 -12 c 4
 156 -12 121 23 121 72 c 4
 120 79 122 87 123 94 c 4
 136 154 195 202 254 202 c 4
 306 202 341 165 341 117 c 4
 341 109 340 102 338 94 c 5
EndSplineSet
EndChar

StartChar: hyphen
Encoding: 45 45 13
Width: 866
Flags: HMW
LayerCount: 2
Fore
SplineSet
259 705 m 5
 936 705 l 5
 906 563 l 5
 229 563 l 5
 259 705 l 5
EndSplineSet
EndChar

StartChar: period
Encoding: 46 46 14
Width: 405
Flags: HMW
LayerCount: 2
Back
SplineSet
55.5117 138.778 m 4
 55.5117 215.382 117.684 277.556 194.288 277.556 c 4
 270.894 277.556 333.066 215.382 333.066 138.778 c 4
 333.066 62.1719 270.894 0 194.288 0 c 4
 117.684 0 55.5117 62.1719 55.5117 138.778 c 4
EndSplineSet
Fore
SplineSet
123 94 m 0
 136 154 195 202 254 202 c 0
 306 202 341 165 341 117 c 0
 341 109 340 102 338 94 c 0
 325 35 267 -13 208 -13 c 0
 153.665980339 -13 120.727457514 24.5726110987 120.727457514 76.1061346209 c 0
 120.727457514 82.0192535816 122.190983006 88.3368810394 123 94 c 0
EndSplineSet
EndChar

StartChar: slash
Encoding: 47 47 15
Width: 808
Flags: HMW
LayerCount: 2
Fore
SplineSet
135 0 m 1
 -23 0 l 1
 1022 1544 l 0
 1180 1544 l 1
 135 0 l 1
EndSplineSet
EndChar

StartChar: zero
Encoding: 48 48 16
Width: 1136
Flags: HMW
LayerCount: 2
Fore
SplineSet
255 727 m 1
 342 1137 596 1493 899 1493 c 1
 1128 1493 1235 1288 1235 1011 c 0
 1235 922 1225 826 1204 727 c 1
 1117 319 871 -29 567 -29 c 1
 335 -29 225 175 225 454 c 0
 225 539 235 632 255 727 c 1
413 727 m 1
 395 644 384 555 384 472 c 0
 385 277 442 113 597 113 c 1
 821 113 987 449 1046 727 c 1
 1065 816 1075 911 1075 999 c 0
 1075.00889958 1000.70871891 1075.01336382 1002.41498255 1075.01336382 1004.11869927 c 0
 1075.01336382 1193.85291241 1019.6472642 1352 869 1352 c 1
 647 1352 473 1008 413 727 c 1
EndSplineSet
EndChar

StartChar: one
Encoding: 49 49 17
Width: 1136
Flags: HMW
LayerCount: 2
Fore
SplineSet
838 1206 m 1
 680 1206 l 1
 956 1456 l 1
 1048 1456 l 1
 739 0 l 1
 582 0 l 1
 838 1206 l 1
EndSplineSet
EndChar

StartChar: two
Encoding: 50 50 18
Width: 1136
Flags: HMW
LayerCount: 2
Back
SplineSet
111.81 1007.74 m 4
 111.81 1276.45 310.762 1494.53 555.898 1494.53 c 4
 801.036 1494.53 999.987 1276.45 999.987 1007.74 c 4
 999.987 739.031 801.036 520.95 555.898 520.95 c 4
 310.762 520.95 111.81 739.031 111.81 1007.74 c 4
338.125 1007.74 m 4
 338.125 1163.31 435.688 1289.56 555.898 1289.56 c 4
 676.11 1289.56 773.673 1163.31 773.673 1007.74 c 4
 773.673 852.173 676.11 725.914 555.898 725.914 c 4
 435.688 725.914 338.125 852.173 338.125 1007.74 c 4
EndSplineSet
Fore
SplineSet
498 1110 m 9
 371 1165 l 17
 461 1348 685 1495 887 1495 c 0
 1068.16818274 1495 1226.48244882 1395.47487907 1226.48244882 1173.00392259 c 0
 1226.48244882 1136.37103916 1222.18989631 1096.4045872 1213 1053 c 0
 1153 772 819 610 707 541 c 0
 588 467 351 274 323 141 c 1
 1046 141 l 17
 1016 0 l 1
 109 0 l 1
 178 326 447 528 689 676 c 0
 812 751 1017 850 1060 1053 c 0
 1066.11125628 1081.519196 1068.96202061 1108.11173765 1068.96202061 1132.73449574 c 0
 1068.96202061 1277.33321872 970.647688432 1354 857 1354 c 0
 730 1354 583 1272 498 1110 c 9
EndSplineSet
EndChar

StartChar: three
Encoding: 51 51 19
Width: 1126
Flags: HMW
LayerCount: 2
Back
SplineSet
25.6201 1076.06 m 4
 25.6201 1321.2 224.571 1494.53 469.709 1494.53 c 4
 714.847 1494.53 913.797 1321.2 913.797 1076.06 c 4
 913.797 830.925 714.847 657.593 469.709 657.593 c 4
 224.571 657.593 25.6201 830.925 25.6201 1076.06 c 4
226.314 1076.06 m 4
 226.314 1210.41 335.355 1293.83 469.709 1293.83 c 4
 604.062 1293.83 713.104 1210.41 713.104 1076.06 c 4
 713.104 941.705 604.062 858.286 469.709 858.286 c 4
 335.355 858.286 226.314 941.705 226.314 1076.06 c 4
469.709 1076.06 m 29
23.4863 414.198 m 4
 23.4863 659.333 222.436 858.286 467.575 858.286 c 4
 712.71 858.286 911.661 659.333 911.661 414.198 c 4
 911.661 169.06 712.71 -29.8896 467.575 -29.8896 c 4
 222.438 -29.8896 23.4863 169.06 23.4863 414.198 c 4
224.181 414.198 m 4
 224.181 548.553 333.22 657.593 467.575 657.593 c 4
 601.928 657.593 710.968 548.553 710.968 414.198 c 4
 710.968 279.845 601.928 170.804 467.575 170.804 c 4
 333.22 170.804 224.181 279.845 224.181 414.198 c 4
467.575 414.198 m 29
EndSplineSet
Fore
SplineSet
167 252 m 9
 332 299 l 17
 359 188 462 113 571 113 c 1
 749 113 928 229 969 424 c 0
 974.155308619 448.098070523 976.579590023 470.830627437 976.579590023 492.178714542 c 0
 976.579590023 648.893244692 845.937347199 731 706 731 c 2
 628 731 l 1
 655 856 l 1
 753 856 l 0
 878 856 1015 963 1048 1116 c 0
 1051.5326942 1132.68893469 1053.21046446 1148.90300884 1053.21046446 1164.51026104 c 0
 1053.21046446 1277.0234426 966.016503895 1358 858 1358 c 2
 852 1358 l 0
 742 1358 646 1294 585 1200 c 9
 462 1264 l 17
 560 1401 719 1497 887 1497 c 0
 1064.28804624 1497 1214.34689525 1377.19153224 1214.34689525 1193.15672965 c 0
 1214.34689525 1168.5424095 1211.66255612 1142.77917166 1206 1116 c 0
 1169 940 1030 829 955 795 c 1
 1032.50454529 770.026313185 1134.48186834 660.510303207 1134.48186834 503.492908686 c 0
 1134.48186834 478.178216048 1131.8312122 451.628838749 1126 424 c 0
 1070 160 815 -29 541 -29 c 1
 385 -29 206 72 167 252 c 9
EndSplineSet
EndChar

StartChar: four
Encoding: 52 52 20
Width: 1136
Flags: HMW
LayerCount: 2
Fore
SplineSet
1171 1445 m 1
 978 537 l 9
 1167 537 l 17
 1137 397 l 1
 948 397 l 1
 864 0 l 1
 707 0 l 1
 791 397 l 1
 172 397 l 9
 1003 1456 l 1
 1016 1456 l 1
 1173 1456 l 1
 1171 1445 l 1
971 1221 m 1
 439 539 l 1
 826 539 l 1
 971 1221 l 1
EndSplineSet
EndChar

StartChar: five
Encoding: 53 53 21
Width: 1136
Flags: HMW
LayerCount: 2
Back
SplineSet
224.181 1131.57 m 4
 224.181 1331.92 388.696 1494.53 591.405 1494.53 c 4
 794.116 1494.53 958.632 1331.92 958.632 1131.57 c 4
 958.632 931.22 794.116 768.614 591.405 768.614 c 4
 388.696 768.614 224.181 931.22 224.181 1131.57 c 4
145.182 414.198 m 4
 145.182 659.333 344.134 858.286 589.271 858.286 c 4
 834.408 858.286 1033.36 659.333 1033.36 414.198 c 4
 1033.36 169.06 834.408 -29.8896 589.271 -29.8896 c 4
 344.134 -29.8896 145.182 169.06 145.182 414.198 c 4
345.877 414.198 m 4
 345.877 548.553 454.918 657.593 589.271 657.593 c 4
 723.624 657.593 832.666 548.553 832.666 414.198 c 4
 832.666 279.845 723.624 170.804 589.271 170.804 c 4
 454.918 170.804 345.877 279.845 345.877 414.198 c 4
589.271 414.198 m 29
EndSplineSet
Fore
SplineSet
776 807 m 1
 616 807 531 735 495 711 c 1
 366 786 l 9
 602 1456 l 1
 1274 1456 l 1
 1245 1315 l 1
 704 1315 l 1
 547 887 l 1
 612 922 692 942 804 942 c 1
 1021 942 1159 802 1160 584 c 0
 1160 545 1156 503 1147 459 c 1
 1092 201 871 -29 592 -29 c 1
 361 -29 220 119 205 330 c 9
 367 358 l 17
 380 256 425 113 622 113 c 1
 798 113 947 254 991 461 c 0
 997.209507411 491.012619153 1000.00774075 518.947067787 1000.00774075 546.36656797 c 0
 1000.00774075 698.13302289 904.33391694 807 776 807 c 1
EndSplineSet
EndChar

StartChar: six
Encoding: 54 54 22
Width: 1136
Flags: HMW
LayerCount: 2
Back
SplineSet
199.348 1131.57 m 4
 199.348 1331.92 363.864 1494.53 566.573 1494.53 c 4
 769.284 1494.53 933.8 1331.92 933.8 1131.57 c 4
 933.8 931.22 769.284 768.614 566.573 768.614 c 4
 363.864 768.614 199.348 931.22 199.348 1131.57 c 4
120.35 414.198 m 4
 120.35 659.333 319.302 858.286 564.439 858.286 c 4
 809.576 858.286 1008.53 659.333 1008.53 414.198 c 4
 1008.53 169.06 809.576 -29.8896 564.439 -29.8896 c 4
 319.302 -29.8896 120.35 169.06 120.35 414.198 c 4
321.045 414.198 m 4
 321.045 548.553 430.086 657.593 564.439 657.593 c 4
 698.792 657.593 807.834 548.553 807.834 414.198 c 4
 807.834 279.845 698.792 170.804 564.439 170.804 c 4
 430.086 170.804 321.045 279.845 321.045 414.198 c 4
564.439 414.198 m 29
EndSplineSet
Fore
SplineSet
966 408 m 1
 970 429 972 450 972 471 c 0
 972 604 879 709 724 709 c 1
 546 709 399 561 367 412 c 1
 362 390 359 369 359 349 c 0
 359 212 462 121 601 121 c 1
 786 121 936 266 966 408 c 1
612 827 m 1
 661 846 696 858 755 858 c 0
 971 858 1125 709 1125 502 c 0
 1125.10208424 498.93747285 1125.15206252 495.854103316 1125.15206252 492.752019078 c 0
 1125.15206252 465.466608746 1121.28541033 436.733304373 1115 408 c 1
 1071 201 844 -29 565 -29 c 1
 335 -29 207 137 207 323 c 0
 207 351 210 381 216 410 c 1
 259 614 417 784 482 870 c 1
 940 1454 l 9
 1095 1454 l 17
 612 827 l 1
EndSplineSet
EndChar

StartChar: seven
Encoding: 55 55 23
Width: 1136
Flags: HMW
LayerCount: 2
Fore
SplineSet
1388 1456 m 1
 524 0 l 1
 342 0 l 1
 1136 1307 l 1
 389 1307 l 1
 420 1456 l 1
 1388 1456 l 1
EndSplineSet
EndChar

StartChar: eight
Encoding: 56 56 24
Width: 1136
Flags: HMW
LayerCount: 2
Back
SplineSet
136.642 1076.06 m 4
 136.642 1321.2 335.594 1494.53 580.73 1494.53 c 4
 825.868 1494.53 1024.82 1321.2 1024.82 1076.06 c 4
 1024.82 830.925 825.868 657.593 580.73 657.593 c 4
 335.594 657.593 136.642 830.925 136.642 1076.06 c 4
337.336 1076.06 m 4
 337.336 1210.41 446.378 1293.83 580.73 1293.83 c 4
 715.084 1293.83 824.125 1210.41 824.125 1076.06 c 4
 824.125 941.705 715.084 858.286 580.73 858.286 c 4
 446.378 858.286 337.336 941.705 337.336 1076.06 c 4
580.73 1076.06 m 29
134.508 414.198 m 4
 134.508 659.333 333.46 858.286 578.597 858.286 c 4
 823.732 858.286 1022.68 659.333 1022.68 414.198 c 4
 1022.68 169.06 823.732 -29.8896 578.597 -29.8896 c 4
 333.46 -29.8896 134.508 169.06 134.508 414.198 c 4
335.202 414.198 m 4
 335.202 548.553 444.242 657.593 578.597 657.593 c 4
 712.95 657.593 821.989 548.553 821.989 414.198 c 4
 821.989 279.845 712.95 170.804 578.597 170.804 c 4
 444.242 170.804 335.202 279.845 335.202 414.198 c 4
578.597 414.198 m 29
EndSplineSet
Fore
SplineSet
606 113 m 0
 788 113 968 256 1005 432 c 1
 1010 455 1013 477 1013 498 c 0
 1013 648 892 739 743 739 c 1
 563 739 395 627 354 432 c 0
 349 409 347 386 346 364 c 0
 347 216 456 113 606 113 c 0
571 1124 m 0
 566.833758533 1102.1272323 563.991167699 1083.21061562 563.991167699 1062.95488795 c 0
 563.991167699 948.201166102 647.742282553 881 773 881 c 1
 916 881 1044 969 1077 1124 c 1
 1081 1143 1082 1161 1082 1178 c 0
 1082 1282 1011 1356 872 1356 c 1
 708 1356 598 1251 571 1124 c 0
902 1497 m 1
 1108 1497 1242 1375 1242 1201 c 0
 1242.12701665 1197.95160031 1242.18950039 1194.87093416 1242.18950039 1191.76005073 c 0
 1242.18950039 1170.37900077 1239.23790008 1147.57055035 1234 1124 c 1
 1193 930 1050 844 979 807 c 1
 1059 766 1172 673 1172 512 c 0
 1172 487 1169 461 1163 432 c 1
 1107 168 838 -29 576 -29 c 1
 347 -29 186 124 185 336 c 0
 186 367 189 399 196 432 c 1
 243 653 428 768 532 807 c 1
 477.36335823 843.755559009 402.990104071 906.168714124 402.990104071 1034.43222085 c 0
 402.990104071 1062.15962422 405.733868258 1090.78339775 413 1124 c 0
 458 1335 666 1497 902 1497 c 1
EndSplineSet
EndChar

StartChar: nine
Encoding: 57 57 25
Width: 1136
Flags: HMW
LayerCount: 2
Back
SplineSet
241.089 1054.5 m 5
 241.089 925.477 341.351 811.358 484.653 811.358 c 5
 623.176 811.358 719.424 925.477 719.424 1043.11 c 5
 719.424 1190.22 608.229 1291.96 477.993 1291.96 c 5
 354.16 1291.96 241.089 1194.49 241.089 1054.5 c 5
737.784 716.073 m 5
 678.687 635.109 567.665 606.352 484.653 606.352 c 5
 200.438 606.352 34.5879 844.344 34.5879 1052.6 c 5
 34.5879 1299.11 232.465 1497.67 477.993 1497.67 c 4
 783.305 1497.67 945.572 1233.45 955.165 951.096 c 4
 957.44 884.068 953.269 811.487 943.432 720.511 c 5
EndSplineSet
Fore
SplineSet
517 1053 m 1
 512.645856533 1033.84176875 509.808398293 1015.4418801 509.808398293 997.139947569 c 0
 509.808398293 994.425194878 509.870828693 991.712597439 510 989 c 0
 510 856 604 752 758 752 c 1
 936 752 1084 899 1116 1049 c 1
 1120 1070 1123 1091 1122 1111 c 0
 1122 1248 1020 1341 881 1341 c 1
 697 1341 547 1194 517 1053 c 1
870 633 m 1
 821 614 785 602 726 602 c 0
 510 602 357 751 357 958 c 0
 357 988 360 1020 367 1053 c 1
 411 1260 639 1491 917 1491 c 1
 1148 1491 1275 1323 1275 1138 c 0
 1275 1109 1271 1080 1265 1051 c 1
 1221 846 1065 676 999 590 c 1
 550 0 l 9
 382 0 l 17
 870 633 l 1
EndSplineSet
EndChar

StartChar: less
Encoding: 60 60 28
Width: 843
Flags: HMW
LayerCount: 2
Fore
SplineSet
597 23 m 1
 219 635 l 1
 855 1235 l 1
 1054 1235 l 1
 416 633 l 1
 796 23 l 1
 597 23 l 1
EndSplineSet
EndChar

StartChar: equal
Encoding: 61 61 29
Width: 907
Flags: HMW
LayerCount: 2
Fore
SplineSet
172 500 m 1
 972 500 l 1
 942 358 l 1
 142 358 l 1
 172 500 l 1
250 866 m 1
 1050 866 l 1
 1020 725 l 1
 220 725 l 1
 250 866 l 1
EndSplineSet
EndChar

StartChar: greater
Encoding: 62 62 30
Width: 856
Flags: HMW
LayerCount: 2
Fore
SplineSet
295 20 m 1
 96 20 l 1
 735 633 l 1
 355 1235 l 1
 554 1235 l 1
 932 635 l 1
 295 20 l 1
EndSplineSet
EndChar

StartChar: question
Encoding: 63 63 31
Width: 985
Flags: HMW
LayerCount: 2
Back
SplineSet
264.745 1093.14 m 0
 264.745 1199.21 373.787 1289.56 508.14 1289.56 c 4
 642.494 1289.56 751.534 1199.21 751.534 1093.14 c 0
 751.534 987.072 642.494 900.987 508.14 900.987 c 0
 373.787 900.987 264.745 987.072 264.745 1093.14 c 0
51.2402 1093.14 m 0
 51.2402 1314.71 254.018 1494.53 503.869 1494.53 c 0
 753.72 1494.53 956.498 1314.71 956.498 1093.14 c 0
 956.498 871.573 753.72 691.753 503.869 691.753 c 0
 254.018 691.753 51.2402 871.573 51.2402 1093.14 c 0
EndSplineSet
Fore
SplineSet
679 501 m 1
 650 360 l 1
 493 360 l 1
 523 505 l 0
 563 692 706 759 829 852 c 0
 911 914 979 960 1007 1094 c 0
 1012.02137306 1117.71203946 1014.43572366 1139.90655838 1014.43572366 1160.54556513 c 0
 1014.43572366 1287.87489963 922.543303803 1356 784 1356 c 0
 610 1356 458 1196 434 1085 c 1
 293 1110 l 1
 364 1327 580 1497 807 1497 c 0
 1003.82948468 1497 1175.17904032 1396.62452198 1175.17904032 1189.76739552 c 0
 1175.17904032 1161.21265571 1171.91392577 1130.62887777 1165 1098 c 0
 1135 956 1050 862 964 791 c 0
 839 688 714 668 679 501 c 1
EndSplineSet
Refer: 14 46 N 1 0 0 1 293 0 2
EndChar

StartChar: at
Encoding: 64 64 32
Width: 1624
Flags: HMW
LayerCount: 2
Back
SplineSet
1095.49 730.855 m 4
 1095.49 823.845 1170.96 899.31 1263.94 899.31 c 4
 1356.93 899.31 1432.4 823.845 1432.4 730.855 c 4
 1432.4 637.868 1356.93 562.401 1263.94 562.401 c 4
 1170.96 562.401 1095.49 637.868 1095.49 730.855 c 4
969.309 730.184 m 0
 969.309 892.821 1101.3 1024.82 1263.94 1024.82 c 0
 1426.58 1024.82 1558.58 892.821 1558.58 730.184 c 0
 1558.58 567.544 1426.58 435.548 1263.94 435.548 c 0
 1101.3 435.548 969.309 567.544 969.309 730.184 c 0
581.585 730.654 m 0
 581.585 847.868 677.96 944.243 795.175 944.243 c 0
 912.388 944.243 1008.76 847.868 1008.76 730.654 c 0
 1008.76 613.439 912.388 517.064 795.175 517.064 c 0
 677.96 517.064 581.585 613.439 581.585 730.654 c 0
157.566 730.323 m 0
 157.566 1082.76 441.795 1366.99 794.235 1366.99 c 0
 1146.68 1366.99 1430.91 1082.76 1430.91 730.323 c 0
 1430.91 377.881 1146.68 93.6543 794.235 93.6543 c 0
 441.795 93.6543 157.566 377.881 157.566 730.323 c 0
29.8896 730.184 m 0
 29.8896 1152.92 371.497 1494.53 794.235 1494.53 c 0
 1216.97 1494.53 1558.58 1152.92 1558.58 730.184 c 0
 1558.58 307.445 1216.97 -34.1602 794.235 -34.1602 c 0
 371.497 -34.1602 29.8896 307.445 29.8896 730.184 c 0
452.629 730.184 m 0
 452.629 918.067 606.352 1071.79 794.235 1071.79 c 0
 982.118 1071.79 1135.84 918.067 1135.84 730.184 c 0
 1135.84 542.3 982.118 388.577 794.235 388.577 c 0
 606.352 388.577 452.629 542.3 452.629 730.184 c 0
EndSplineSet
Fore
SplineSet
1221 213 m 1
 1277 111 l 17
 1130 18 966 -35 798 -35 c 0
 429 -35 179 224 179 569 c 0
 179 622 184 676 196 731 c 0
 286 1153 699 1495 1123 1495 c 0
 1495 1495 1745 1231 1745 913 c 0
 1745 870 1741 827 1731 782 c 0
 1687 573 1492 418 1373 418 c 0
 1299 418 1220 461 1179 518 c 1
 1103 438 994 389 888 389 c 0
 724 389 610 506 610 660 c 0
 610 683 613 707 618 731 c 0
 658 918 844 1071 1033 1071 c 0
 1195 1071 1292 951 1292 805 c 0
 1292 781 1288 756 1283 731 c 0
 1279.81053497 718.242139878 1279.98366858 704.570827965 1279.98366858 690.581742627 c 0
 1279.98366858 617.439428854 1324.76276678 547 1394 547 c 0
 1466 547 1575 655 1602 782 c 0
 1609 816 1613 850 1613 884 c 0
 1613 1138 1412 1368 1096 1368 c 0
 737 1368 396 1071 323 727 c 0
 314 683 309 639 309 597 c 0
 309 314 513 92 825 92 c 0
 952 92 1110 145 1221 213 c 1
747 731 m 0
 744 715 742 699 742 684 c 0
 742 584 815 516 915 516 c 0
 1038 516 1134 614 1159 731 c 0
 1162 745 1163 759 1163 772 c 0
 1163 866 1095 946 1006 946 c 0
 895 946 772 850 747 731 c 0
EndSplineSet
EndChar

StartChar: m
Encoding: 109 109 33
Width: 1533
Flags: HMW
LayerCount: 2
Back
SplineSet
280.576 0 m 9
 129.024 0 l 1
 129.024 1073.15 l 1
 280.576 1073.15 l 1
 280.576 870.4 l 17
 335.872 980.992 387.072 1101.82 532.48 1101.82 c 0
 731.136 1101.82 854.014 983.04 854.014 657.408 c 1
 854.016 0 l 1
 702.464 0 l 0
 702.462 657.408 l 1
 702.462 876.544 667.648 964.608 532.482 964.608 c 0
 376.832 964.608 280.576 790.528 280.576 618.496 c 0
 280.576 0 l 9
143.36 1474.56 m 25
 143.36 -53.248 l 25
430.08 1466.37 m 25
 430.08 -61.4404 l 25
286.72 -69.6318 m 25
 286.72 1458.18 l 25
 286.72 -69.6318 l 25
573.44 1470.46 m 25
 573.44 -57.3438 l 25
716.8 1466.37 m 25
 716.8 -61.4404 l 25
860.16 -49.1523 m 25
 860.16 1478.66 l 25
 860.16 -49.1523 l 25
EndSplineSet
Fore
SplineSet
854 0 m 1
 702 0 l 0
 818 547 l 1
 835.431523176 628.473423538 848.555040677 708.223644806 848.555040677 775.857066527 c 0
 848.555040677 886.701300937 813.305476546 965 704 965 c 0
 529 965 444 765 398 550 c 0
 281 0 l 9
 129 0 l 1
 357 1073 l 1
 509 1073 l 1
 470 891 l 17
 538 992 618 1102 776 1102 c 0
 939 1102 1012 990 1017 860 c 1
 1078 990 1200 1102 1353 1102 c 0
 1519.5 1102 1587.5625 998.5 1587.5625 834.953125 c 0
 1587.5625 780.4375 1580 719.25 1566 653 c 1
 1427 0 l 1
 1276 0 l 0
 1391 543 l 1
 1408.70569617 626.139790702 1422.26310928 706.760980976 1422.26310928 774.485015249 c 0
 1422.26310928 882.710322194 1387.64137327 958 1280 958 c 0
 1104 958 1017 765 971 549 c 0
 854 0 l 1
EndSplineSet
EndChar

StartChar: n
Encoding: 110 110 34
Width: 1064
Flags: HMW
LayerCount: 2
Back
SplineSet
280.576 0 m 13
 129.024 0 l 5
 129.024 1073.15 l 5
 280.576 1073.15 l 5
 280.576 892.928 l 21
 313.344 970.752 423.936 1101.82 552.96 1101.82 c 4
 755.516 1101.82 956.429 902.24 956.414 659.456 c 5
 956.416 0 l 5
 804.864 0 l 4
 804.864 661.504 l 6
 804.864 850.59 672.924 964.608 550.912 964.608 c 4
 407.552 964.608 280.574 806.912 280.574 618.496 c 4
 280.576 0 l 13
1003.52 -49.1523 m 25
 1003.52 1478.66 l 25
 1003.52 -49.1523 l 25
143.36 1474.56 m 25
 143.36 -53.248 l 25
430.08 1466.37 m 25
 430.08 -61.4404 l 25
286.72 -69.6318 m 25
 286.72 1458.18 l 25
 286.72 -69.6318 l 25
573.44 1470.46 m 25
 573.44 -57.3438 l 25
716.8 1466.37 m 25
 716.8 -61.4404 l 25
860.16 -49.1523 m 25
 860.16 1478.66 l 25
 860.16 -49.1523 l 25
EndSplineSet
Fore
SplineSet
281 0 m 9
 129 0 l 1
 357 1073 l 1
 509 1073 l 1
 471 892 l 17
 530 1004 662 1102 820 1102 c 0
 987.543683037 1102 1097.46959906 998.410610368 1097.46959906 765.317702237 c 0
 1097.46959906 700.685972614 1089.01810424 626.097552569 1071 541 c 2
 956 0 l 1
 805 0 l 0
 920 541 l 1
 933.518888619 603.998020964 940.970133635 663.925668056 940.970133635 717.837846841 c 0
 940.970133635 863.321418347 886.709734338 965 751 965 c 0
 565 965 444 768 396 540 c 0
 281 0 l 9
EndSplineSet
EndChar

StartChar: o
Encoding: 111 111 35
Width: 1054
Flags: HMW
LayerCount: 2
Back
SplineSet
1003.52 -49.1523 m 29
 1003.52 1478.66 l 29
 1003.52 -49.1523 l 29
143.36 1474.56 m 25
 143.36 -53.248 l 25
430.08 1466.37 m 25
 430.08 -61.4404 l 25
286.72 -69.6318 m 25
 286.72 1458.18 l 25
 286.72 -69.6318 l 25
573.44 1470.46 m 25
 573.44 -57.3438 l 25
716.8 1466.37 m 25
 716.8 -61.4404 l 25
860.16 -49.1523 m 25
 860.16 1478.66 l 25
 860.16 -49.1523 l 25
EndSplineSet
Fore
SplineSet
216 537 m 0
 283 852 485 1094 772 1094 c 0
 1000.43954802 1094 1108.73720293 936.594845932 1108.73720293 713.448642065 c 0
 1108.73720293 658.198794751 1102.09820993 598.91881059 1089 537 c 0
 1022 221 822 -29 533 -29 c 0
 303.705294197 -29 195.687425563 131.851384034 195.687425563 356.661689735 c 0
 195.687425563 413.23842047 202.528729229 473.865984746 216 537 c 0
370 537 m 0
 357.311731636 477.872669422 350.354783957 420.999229001 350.354783957 369.043374736 c 0
 350.354783957 216.259493157 410.51436956 106 562 106 c 0
 763 106 885 304 935 537 c 0
 947.25 594.75 953.9375 649.9375 953.9375 700.234375 c 0
 953.9375 851.125 893.75 958 743 958 c 0
 540 958 419 768 370 537 c 0
EndSplineSet
EndChar

StartChar: p
Encoding: 112 112 36
Width: 1044
Flags: HMW
LayerCount: 2
Back
SplineSet
280.576 0 m 13
 129.024 0 l 5
 129.024 1073.15 l 5
 280.576 1073.15 l 5
 280.576 870.4 l 21
 335.872 980.992 438.272 1101.82 583.68 1101.82 c 4
 782.336 1101.82 956.414 983.04 956.414 657.408 c 5
 956.416 0 l 5
 804.864 0 l 4
 804.862 657.408 l 5
 804.862 876.544 718.848 964.608 583.682 964.608 c 4
 428.032 964.608 280.576 790.528 280.576 618.496 c 4
 280.576 0 l 13
143.36 1474.56 m 25
 143.36 -53.248 l 25
430.08 1466.37 m 25
 430.08 -61.4404 l 25
286.72 -69.6318 m 25
 286.72 1458.18 l 25
 286.72 -69.6318 l 25
573.44 1470.46 m 25
 573.44 -57.3438 l 25
716.8 1466.37 m 25
 716.8 -61.4404 l 25
860.16 -49.1523 m 25
 860.16 1478.66 l 25
 860.16 -49.1523 l 25
EndSplineSet
Fore
SplineSet
509 1073 m 9
 469 886 l 1
 539 996 642 1102 814 1102 c 0
 1028.45386076 1102 1112.09302481 941.268040818 1112.09302481 736.170436339 c 0
 1112.09302481 673.483963387 1104.27969462 606.652979433 1090 539 c 0
 1029 254 855 -29 572 -29 c 0
 398 -29 344 76 320 184 c 9
 190 -428 l 1
 38 -428 l 1
 357 1073 l 1
 509 1073 l 9
936 539 m 0
 948.488421128 597.632078853 954.301134505 650.574124927 954.301134505 697.608018764 c 0
 954.301134505 872.779935254 873.673113104 966 757 966 c 0
 609 966 448 812 390 537 c 0
 378.225366237 481.578016943 372.756388252 430.895579079 372.756388252 385.31245786 c 0
 372.756388252 206.360270045 457.045617188 106 575 106 c 0
 723 106 878 264 936 539 c 0
EndSplineSet
EndChar

StartChar: q
Encoding: 113 113 37
Width: 1048
Flags: HMW
LayerCount: 2
Back
SplineSet
262.144 538.624 m 4
 262.144 322.897 356.633 106.496 509.954 106.496 c 4
 624.643 106.496 806.912 253.952 806.912 538.624 c 4
 806.912 779.053 651.571 956.416 505.856 956.416 c 4
 366.592 956.416 262.144 772.096 262.144 538.624 c 4
802.816 161.792 m 5
 764.203 104.886 666.786 -28.6963 513.495 -28.6963 c 4
 512.317 -28.6963 511.138 -28.6875 509.95 -28.6719 c 5
 509.053 -28.6777 508.156 -28.6816 507.263 -28.6816 c 4
 237.511 -28.6816 108.544 279.279 108.544 542.72 c 4
 108.544 825.344 249.856 1093.63 505.856 1093.63 c 4
 638.976 1093.63 747.522 995.328 802.818 894.976 c 13
 802.816 1073.15 l 5
 954.368 1073.15 l 5
 954.368 -18.4316 l 6
 954.368 -290.816 751.616 -448.512 548.864 -448.512 c 4
 293.073 -448.512 150.618 -252.853 133.12 -108.544 c 5
 276.478 -108.544 l 21
 295.285 -229.32 422.126 -313.344 540.672 -313.344 c 4
 665.6 -313.344 802.816 -225.28 802.816 -32.7676 c 4
 802.816 161.792 l 5
143.36 1474.56 m 25
 143.36 -53.248 l 25
430.08 1466.37 m 25
 430.08 -61.4404 l 25
286.72 -69.6318 m 25
 286.72 1458.18 l 25
 286.72 -69.6318 l 25
573.44 1470.46 m 25
 573.44 -57.3438 l 25
716.8 1466.37 m 25
 716.8 -61.4404 l 25
860.16 -49.1523 m 25
 860.16 1478.66 l 25
 860.16 -49.1523 l 25
EndSplineSet
Fore
SplineSet
877 -199 m 2
 873.429090617 -215.80427945 871.490712623 -230.578925281 871.490712623 -243.43515444 c 0
 871.490712623 -291.783473553 898.904814381 -313 970 -313 c 1
 942 -449 l 1
 797.537975988 -449 714.454077512 -399.041060609 714.454077512 -278.623285164 c 0
 714.454077512 -256.502287933 717.257864845 -232.003554514 723 -205 c 2
 767 0 l 1
 806 184 l 17
 694 11 578 -29 460 -29 c 0
 247.672985171 -29 166.013877213 137.25157794 166.013877213 341.886322106 c 0
 166.013877213 405.180079284 173.825974424 472.145846031 188 539 c 0
 249 828 422 1102 702 1102 c 0
 874 1102 931 996 955 886 c 1
 995 1073 l 17
 1147 1073 l 1
 919 0 l 1
 877 -199 l 2
342 539 m 0
 329.636646164 480.380649917 323.861762935 427.077514047 323.861762935 379.487700515 c 0
 323.861762935 203.820198797 402.547868409 106 519 106 c 0
 667 106 828 264 886 537 c 0
 897.774633763 592.828004911 903.243611748 643.66918401 903.243611748 689.247433625 c 0
 903.243611748 868.180496285 818.954382812 966 701 966 c 0
 553 966 401 816 342 539 c 0
EndSplineSet
EndChar

StartChar: r
Encoding: 114 114 38
Width: 686
Flags: HMW
LayerCount: 2
Back
SplineSet
143.36 1474.56 m 29
 143.36 -53.248 l 29
430.08 1466.37 m 29
 430.08 -61.4404 l 29
286.72 -69.6318 m 29
 286.72 1458.18 l 29
 286.72 -69.6318 l 29
573.44 1470.46 m 29
 573.44 -57.3438 l 29
716.8 1466.37 m 29
 716.8 -61.4404 l 29
860.16 -49.1523 m 29
 860.16 1478.66 l 29
 860.16 -49.1523 l 29
EndSplineSet
Fore
SplineSet
964 1066 m 0
 856 935 l 1
 829 954 793 965 751 965 c 0
 565 965 444 768 396 540 c 0
 281 0 l 9
 129 0 l 1
 357 1073 l 1
 509 1073 l 1
 471 892 l 17
 530 1004 662 1102 820 1102 c 0
 874 1102 923 1090 964 1066 c 0
EndSplineSet
EndChar

StartChar: s
Encoding: 115 115 39
Width: 921
Flags: HMW
LayerCount: 2
Back
SplineSet
108.544 806.912 m 4
 108.544 967.442 265.438 1097.73 458.752 1097.73 c 4
 652.066 1097.73 808.96 967.442 808.96 806.912 c 4
 808.96 646.382 652.066 516.096 458.752 516.096 c 4
 265.438 516.096 108.544 646.382 108.544 806.912 c 4
264.192 802.816 m 0
 264.192 890.995 353.189 962.561 462.848 962.561 c 0
 572.506 962.561 661.504 890.995 661.504 802.816 c 0
 661.504 714.638 572.506 643.072 462.848 643.072 c 0
 353.189 643.072 264.192 714.638 264.192 802.816 c 0
104.448 296.96 m 0
 104.448 475.578 266.847 620.544 466.944 620.544 c 0
 667.042 620.544 829.44 475.578 829.44 296.96 c 0
 829.44 118.342 667.042 -26.624 466.944 -26.624 c 0
 266.847 -26.624 104.448 118.342 104.448 296.96 c 0
256 301.056 m 0
 256 408.453 349.585 495.616 464.896 495.616 c 0
 580.207 495.616 673.792 408.453 673.792 301.056 c 0
 673.792 193.659 580.207 106.496 464.896 106.496 c 0
 349.585 106.496 256 193.659 256 301.056 c 0
143.36 1474.56 m 25
 143.36 -53.248 l 25
430.08 1466.37 m 25
 430.08 -61.4404 l 25
286.72 -69.6318 m 25
 286.72 1458.18 l 25
 286.72 -69.6318 l 25
573.44 1470.46 m 25
 573.44 -57.3438 l 25
716.8 1466.37 m 25
 716.8 -61.4404 l 25
860.16 -49.1523 m 25
 860.16 1478.66 l 25
 860.16 -49.1523 l 25
EndSplineSet
Fore
SplineSet
570 477 m 0
 433.060043359 525.017906874 285.840816502 588.059362525 285.840816502 745.576733778 c 0
 285.840816502 765.200320999 288.125701898 786.290202023 293 809 c 0
 334 1000 516 1096 702 1098 c 0
 930 1098 998 957 1008 871 c 1
 856 841 l 1
 843 898 801 963 676 963 c 0
 578 963 468 914 447 813 c 0
 444.442716895 800.97129799 443.257962765 789.758936742 443.257962765 779.296642782 c 0
 443.257962765 679.297198497 551.493422965 647.821573652 604 627 c 0
 719.429341337 581.008621811 908.04923173 529.324645362 908.04923173 350.209883123 c 0
 908.04923173 330.703659562 905.812205269 309.686110556 901 287 c 0
 861 101 664 -29 467 -29 c 0
 254 -29 159 78 142 217 c 1
 295 245 l 1
 314 163 361 106 492 106 c 0
 627 106 723 174 747 287 c 0
 749.255842043 297.527262867 750.31899112 307.480266158 750.31899112 316.89969994 c 0
 750.31899112 407.694025131 651.540592339 448.913795972 570 477 c 0
EndSplineSet
EndChar

StartChar: t
Encoding: 116 116 40
Width: 696
Flags: HMW
LayerCount: 2
Back
SplineSet
143.36 1474.56 m 29
 143.36 -53.248 l 29
430.08 1466.37 m 29
 430.08 -61.4404 l 29
286.72 -69.6318 m 29
 286.72 1458.18 l 29
 286.72 -69.6318 l 29
573.44 1470.46 m 29
 573.44 -57.3438 l 29
716.8 1466.37 m 29
 716.8 -61.4404 l 29
860.16 -49.1523 m 29
 860.16 1478.66 l 29
 860.16 -49.1523 l 29
EndSplineSet
Fore
SplineSet
443 938 m 0
 301 938 l 1
 330 1073 l 1
 472 1073 l 0
 525 1323 l 1
 676 1323 l 0
 623 1073 l 0
 820 1073 l 1
 791 938 l 1
 594 938 l 0
 441 215 l 2
 438.029839487 201.372204707 436.555425757 188.934901751 436.555425757 177.688091132 c 0
 436.555425757 124.562697044 469.453079969 98 533 98 c 2
 603 98 l 1
 576 -29 l 1
 506 -29 l 2
 344.086171998 -29 278.516466287 17.5335556641 278.516466287 124.926688504 c 0
 278.516466287 150.188232741 282.14448904 178.817184661 289 211 c 1
 443 938 l 0
EndSplineSet
EndChar

StartChar: u
Encoding: 117 117 41
Width: 1064
Flags: HMW
LayerCount: 2
Back
SplineSet
143.36 1474.56 m 29
 143.36 -53.248 l 29
430.08 1466.37 m 29
 430.08 -61.4404 l 29
286.72 -69.6318 m 29
 286.72 1458.18 l 29
 286.72 -69.6318 l 29
573.44 1470.46 m 29
 573.44 -57.3438 l 29
716.8 1466.37 m 29
 716.8 -61.4404 l 29
860.16 -49.1523 m 29
 860.16 1478.66 l 29
 860.16 -49.1523 l 29
EndSplineSet
Fore
SplineSet
1023 1073 m 9
 1175 1073 l 1
 947 0 l 1
 795 0 l 1
 833 181 l 17
 774 69 642 -29 484 -29 c 0
 316.456316963 -29 206.530400941 74.5893896323 206.530400941 307.682297763 c 0
 206.530400941 372.314027386 214.981895757 446.902447431 233 532 c 2
 348 1073 l 1
 499 1073 l 0
 384 532 l 1
 370.481111381 469.001979036 363.029866365 409.074331944 363.029866365 355.162153159 c 0
 363.029866365 209.678581653 417.290265662 108 553 108 c 0
 739 108 860 305 908 533 c 0
 1023 1073 l 9
EndSplineSet
EndChar

StartChar: v
Encoding: 118 118 42
Width: 1024
Flags: HMW
LayerCount: 2
Back
SplineSet
143.36 1474.56 m 29
 143.36 -53.248 l 29
430.08 1466.37 m 29
 430.08 -61.4404 l 29
286.72 -69.6318 m 29
 286.72 1458.18 l 29
 286.72 -69.6318 l 29
573.44 1470.46 m 29
 573.44 -57.3438 l 29
716.8 1466.37 m 29
 716.8 -61.4404 l 29
860.16 -49.1523 m 29
 860.16 1478.66 l 29
 860.16 -49.1523 l 29
EndSplineSet
Fore
SplineSet
446 0 m 1
 310 1073 l 1
 470 1073 l 1
 563 195 l 1
 1037 1073 l 1
 1195 1073 l 1
 598 0 l 1
 446 0 l 1
EndSplineSet
EndChar

StartChar: w
Encoding: 119 119 43
Width: 1374
Flags: HMW
LayerCount: 2
Back
SplineSet
143.36 1474.56 m 29
 143.36 -53.248 l 29
430.08 1466.37 m 29
 430.08 -61.4404 l 29
286.72 -69.6318 m 29
 286.72 1458.18 l 29
 286.72 -69.6318 l 29
573.44 1470.46 m 29
 573.44 -57.3438 l 29
716.8 1466.37 m 29
 716.8 -61.4404 l 29
860.16 -49.1523 m 29
 860.16 1478.66 l 29
 860.16 -49.1523 l 29
EndSplineSet
Fore
SplineSet
881 862 m 1
 471 0 l 1
 354 0 l 1
 296 1073 l 1
 449 1073 l 1
 467 250 l 1
 849 1065 l 0
 849 1065 941 1065 1000 1065 c 17
 1036 250 l 1
 1404 1073 l 17
 1557 1073 l 1
 1042 0 l 1
 920 0 l 1
 881 862 l 1
EndSplineSet
EndChar

StartChar: x
Encoding: 120 120 44
Width: 901
Flags: HMW
LayerCount: 2
Back
SplineSet
143.36 1474.56 m 29
 143.36 -53.248 l 29
430.08 1466.37 m 29
 430.08 -61.4404 l 29
286.72 -69.6318 m 29
 286.72 1458.18 l 29
 286.72 -69.6318 l 29
573.44 1470.46 m 29
 573.44 -57.3438 l 29
716.8 1466.37 m 29
 716.8 -61.4404 l 29
860.16 -49.1523 m 29
 860.16 1478.66 l 29
 860.16 -49.1523 l 29
EndSplineSet
Fore
SplineSet
870 0 m 1
 700 0 l 9
 553 440 l 1
 229 0 l 1
 53 0 l 9
 482 539 l 1
 283 1073 l 9
 453 1073 l 0
 595 639 l 0
 920 1073 l 1
 1090 1073 l 1
 666 543 l 0
 870 0 l 1
EndSplineSet
EndChar

StartChar: y
Encoding: 121 121 45
Width: 1064
Flags: HMW
LayerCount: 2
Back
SplineSet
794.624 1073.15 m 13
 946.176 1073.15 l 5
 946.176 0 l 5
 794.624 0 l 5
 794.624 180.224 l 21
 761.856 102.4 651.264 -28.6719 522.24 -28.6719 c 4
 319.685 -28.6719 118.771 170.912 118.786 413.696 c 5
 118.784 1073.15 l 5
 270.336 1073.15 l 4
 270.336 411.648 l 6
 270.336 222.562 402.276 108.544 524.288 108.544 c 4
 667.648 108.544 794.626 266.24 794.626 454.656 c 4
 794.624 1073.15 l 13
143.36 1474.56 m 25
 143.36 -53.248 l 25
430.08 1466.37 m 25
 430.08 -61.4404 l 25
286.72 -69.6318 m 25
 286.72 1458.18 l 25
 286.72 -69.6318 l 25
573.44 1470.46 m 25
 573.44 -57.3438 l 25
716.8 1466.37 m 25
 716.8 -61.4404 l 25
860.16 -49.1523 m 25
 860.16 1478.66 l 25
 860.16 -49.1523 l 25
EndSplineSet
Fore
SplineSet
943 -18 m 2
 885 -291 628 -449 425 -449 c 1
 245 -449 152 -356 99 -275 c 0
 223 -190 l 0
 262 -252 326 -313 453 -313 c 0
 578 -313 747 -225 788 -33 c 0
 803 38 818 110 833 181 c 17
 774 69 642 -29 484 -29 c 0
 316.456316963 -29 206.530400941 74.5893896323 206.530400941 307.682297763 c 0
 206.530400941 372.314027386 214.981895757 446.902447431 233 532 c 2
 348 1073 l 1
 499 1073 l 0
 384 532 l 1
 370.481111381 469.001979036 363.029866365 409.074331944 363.029866365 355.162153159 c 0
 363.029866365 209.678581653 417.290265662 108 553 108 c 0
 739 108 860 305 908 533 c 0
 1023 1073 l 9
 1175 1073 l 1
 943 -18 l 2
EndSplineSet
EndChar

StartChar: z
Encoding: 122 122 46
Width: 962
Flags: HMW
LayerCount: 2
Back
SplineSet
143.36 1474.56 m 29
 143.36 -53.248 l 29
430.08 1466.37 m 29
 430.08 -61.4404 l 29
286.72 -69.6318 m 29
 286.72 1458.18 l 29
 286.72 -69.6318 l 29
573.44 1470.46 m 29
 573.44 -57.3438 l 29
716.8 1466.37 m 29
 716.8 -61.4404 l 29
860.16 -49.1523 m 29
 860.16 1478.66 l 29
 860.16 -49.1523 l 29
EndSplineSet
Fore
SplineSet
372 141 m 1
 907 141 l 1
 877 0 l 1
 90 0 l 1
 853 932 l 2
 329 932 l 1
 359 1073 l 1
 1135 1073 l 1
 372 141 l 1
EndSplineSet
EndChar

StartChar: Oslash
Encoding: 216 216 53
Width: 1285
Flags: HMW
LayerCount: 2
Fore
SplineSet
409 41 m 1
 363 -29 l 1
 211 -29 l 1
 319 134 l 1
 252 233 226 366 226 500 c 0
 226 574 234 649 249 718 c 1
 316 1034 558 1477 969 1477 c 1
 1053 1477 1122 1459 1177 1427 c 1
 1223 1496 l 0
 1375 1496 l 1
 1274 1345 l 1
 1356.76921432 1243.50917769 1390.02200505 1097.35648312 1390.02200505 949.592709125 c 0
 1390.02200505 947.395448473 1390.01465221 945.19783158 1390 943 c 0
 1390.05051026 939.110710194 1390.07550765 935.221420389 1390.07550765 931.33290378 c 0
 1390.07550765 858.236728105 1381.24234614 785.413771738 1367 718 c 1
 1300 402 1059 -29 649 -29 c 1
 549 -29 470 -3 409 41 c 1
494 170 m 1
 540 133 601 111 679 111 c 1
 987 111 1159 452 1216 718 c 0
 1231 790 1241 868 1241 945 c 0
 1241 1042 1225 1135 1183 1207 c 1
 494 170 l 1
415 279 m 1
 1092 1300 l 1
 1051 1324 1001 1338 939 1338 c 0
 630 1338 458 984 401 718 c 1
 386 647 376 571 376 498 c 0
 376 419 386 342 415 279 c 1
EndSplineSet
EndChar

StartChar: Thorn
Encoding: 222 222 57
Width: 1329
Flags: HMW
LayerCount: 2
Fore
SplineSet
404 477 m 1
 674 477 982 530 1029 750 c 1
 1032 765 1034 780 1034 794 c 0
 1034 987 723 1010 518 1010 c 1
 404 477 l 1
454 1456 m 0
 612 1456 l 1
 547 1150 l 1
 889 1150 1195 1081 1195 828 c 0
 1195 804 1192 778 1186 750 c 0
 1113 407 743 337 375 337 c 1
 303 0 l 1
 145 0 l 1
 454 1456 l 0
EndSplineSet
EndChar

StartChar: germandbls
Encoding: 223 223 58
Width: 1212
Flags: HMW
LayerCount: 2
Fore
SplineSet
419 1152 m 1
 525 1333 714 1479 969 1479 c 1
 1183 1479 1342 1368 1342 1174 c 0
 1341 1147 1337 1117 1331 1087 c 0
 1330 1083 1329 1078 1328 1074 c 1
 1287 880 1066 778 939 747 c 1
 1036 722 1205 629 1205 446 c 0
 1205.10435608 443.808522399 1205.1542612 441.595264416 1205.1542612 439.361362509 c 0
 1205.1542612 420.188730301 1201.47821962 399.49545417 1197 378 c 1
 1132 72 896 -30 605 -30 c 1
 540 -30 491 -11 430 23 c 9
 547 146 l 17
 578 133 604 110 634 110 c 1
 830 110 1003 158 1050 378 c 1
 1053 393 1055 408 1055 423 c 0
 1055 577 875 679 696 679 c 1
 681 679 671 679 660 679 c 0
 647 679 635 679 617 673 c 1
 649 825 l 1
 663 821 674 821 685 821 c 0
 697 821 710 821 727 821 c 1
 898 821 1146 918 1179 1074 c 1
 1185 1101 1187 1127 1187 1150 c 0
 1187 1282 1095 1342 940 1342 c 1
 736 1342 629 1241 551 1105 c 1
 430 885 325 310 240 0 c 1
 92 0 l 1
 201 361 297 928 419 1152 c 1
EndSplineSet
EndChar

StartChar: ae
Encoding: 230 230 63
Width: 1486
Flags: HMW
LayerCount: 2
Back
SplineSet
849.216 604.16 m 5
 1379.01 604.16 l 5
 1361.25 781.345 1273.92 958.464 1114.11 958.464 c 4
 954.305 958.464 866.976 781.345 849.216 604.16 c 5
849.185 468.992 m 5
 866.88 290.24 954.241 106.496 1114.11 106.496 c 4
 1208.35 106.496 1274.62 162.464 1317.73 242.655 c 4
 1450.69 187.616 l 4
 1382.37 55.4238 1268.58 -28.6719 1114.11 -28.6719 c 5
 847.872 -28.6719 702.464 221.184 702.464 536.576 c 4
 702.464 851.968 847.872 1093.63 1114.11 1093.63 c 4
 1380.35 1093.63 1525.76 851.968 1525.76 536.576 c 4
 1525.76 514.539 1524.65 491.84 1522.62 468.992 c 5
 849.185 468.992 l 5
466.944 602.112 m 4
 315.392 602.112 221.184 483.328 221.184 354.304 c 4
 221.184 225.28 315.392 106.496 466.944 106.496 c 4
 593.92 106.496 712.704 221.184 712.704 354.304 c 5
 712.704 487.424 593.92 602.112 466.944 602.112 c 4
466.944 737.28 m 4
 606.208 737.28 688.128 679.936 716.8 630.784 c 5
 715.651 675.84 l 4
 715.651 829.44 622.592 954.368 471.04 954.368 c 4
 376.832 954.368 290.816 921.6 245.76 876.544 c 13
 215.408 916.48 167.936 978.944 167.936 978.944 c 4
 237.568 1036.29 327.68 1089.54 471.04 1089.54 c 4
 669.379 1089.54 851.697 944.128 851.697 675.84 c 4
 849.92 552.96 l 4
 851.968 270.336 l 5
 851.968 196.608 880.64 114.688 966.656 114.688 c 5
 966.656 -20.4805 l 5
 843.776 -20.4805 763.904 8.19238 745.472 100.352 c 5
 716.8 53.248 630.784 -28.6719 466.944 -28.6719 c 5
 241.664 -28.6719 77.8242 139.264 77.8242 354.304 c 4
 77.8242 569.344 262.144 737.28 466.944 737.28 c 4
EndSplineSet
Fore
SplineSet
564 602 m 0
 413 602 338 483 311 354 c 0
 304.723456288 323.66337206 300.982608126 294.698344216 300.982608126 265.81298717 c 0
 300.982608126 175.365437677 343.354629234 106 459 106 c 0
 586 106 684 221 712 354 c 1
 717 379 719 402 720 425 c 0
 719 525 668 602 564 602 c 0
914 910 m 1
 1008 1024 1091 1094 1234 1094 c 0
 1434 1094 1517 957 1516 756 c 0
 1516.04583654 752.928951592 1516.06856221 749.843196263 1516.06856221 746.743022919 c 0
 1516.06856221 682.207787622 1506.22077876 611.424749615 1490 537 c 0
 1485 515 1478 492 1473 469 c 1
 883 469 l 1
 876 436 867 382 867 325 c 0
 867 220 898 106 1024 106 c 0
 1119 106 1156 162 1216 243 c 0
 1337 188 l 0
 1241 55 1150 -29 995 -29 c 0
 835 -29 801 55 754 164 c 1
 681 70 623 -29 430 -29 c 0
 243 -29 147 88 147 251 c 0
 148 284 151 318 159 354 c 0
 205 569 388 737 593 737 c 0
 721 737 749 690 776 633 c 1
 781 649 781 676 787 692 c 1
 793.399494937 723.083261121 798.127416998 753.330735804 798.127416998 781.214249456 c 0
 798.127416998 783.830735804 798.085786438 786.426406871 798 789 c 0
 799 886 755 954 643 954 c 0
 549 954 497 922 442 877 c 9
 420 916 386 979 386 979 c 0
 468 1036 529 1090 672 1090 c 0
 802 1090 870 1027 914 910 c 1
911 604 m 1
 1349 604 l 1
 1354 648 1358 691 1358 732 c 0
 1358.01453804 733.831793278 1358.02189003 735.658091334 1358.02189003 737.478666791 c 0
 1358.02189003 860.886472911 1324.24089693 958 1205 958 c 0
 1042 958 946 756 911 604 c 1
EndSplineSet
EndChar

StartChar: igrave
Encoding: 236 236 68
Width: 430
Flags: HMW
LayerCount: 2
Fore
SplineSet
378 1073 m 1
 529 1073 l 1
 301 0 l 1
 150 0 l 1
 378 1073 l 1
EndSplineSet
Refer: 119 96 N 1 0 0 1 -251 -347 2
EndChar

StartChar: iacute
Encoding: 237 237 69
Width: 421
Flags: HMW
LayerCount: 2
Fore
SplineSet
378 1073 m 1
 529 1073 l 1
 301 0 l 1
 150 0 l 1
 378 1073 l 1
EndSplineSet
Refer: 152 180 N 1 0 0 1 17 -347 2
EndChar

StartChar: icircumflex
Encoding: 238 238 70
Width: 888
Flags: HMW
LayerCount: 2
Fore
SplineSet
619 1073 m 1
 771 1073 l 1
 543 0 l 1
 391 0 l 1
 619 1073 l 1
EndSplineSet
Refer: 117 94 N 1 0 0 1 -25 -31 2
EndChar

StartChar: idieresis
Encoding: 239 239 71
Width: 667
Flags: HMW
LayerCount: 2
Fore
SplineSet
500 1073 m 1
 652 1073 l 1
 424 0 l 1
 272 0 l 1
 500 1073 l 1
EndSplineSet
Refer: 143 168 N 1 0 0 1 -153 -401 2
EndChar

StartChar: eth
Encoding: 240 240 72
Width: 1030
Flags: HMW
LayerCount: 2
Fore
SplineSet
330 455 m 0
 323 420 319 389 319 359 c 0
 319 191 429 106 515 106 c 0
 668 106 836 279 873 455 c 1
 877.354143467 475.029059948 880.191601707 494.299777283 880.191601707 512.812152004 c 0
 880.191601707 515.558119896 880.129171307 518.287402561 880 521 c 0
 881 679 754 791 621 791 c 1
 498 791 362 604 330 455 c 0
958 1290 m 1
 1015 1204 1091 1033 1091 870 c 0
 1091 846 1089 823 1085 801 c 1
 1072 711 1065 643 1043 540 c 0
 1040 528 1038 515 1035 502 c 1
 969 193 731 -29 496 -29 c 0
 254 -29 162 118 162 307 c 0
 162 355 169 407 180 459 c 0
 235 717 445 926 660 926 c 0
 830 926 863 846 925 778 c 1
 929 799 932 824 932 851 c 0
 932 971 890 1136 827 1204 c 1
 644 1061 l 1
 566 1161 l 1
 729 1290 l 1
 679 1309 628 1315 575 1315 c 0
 536 1315 496 1311 458 1307 c 1
 475 1454 l 1
 502 1456 530 1456 557 1456 c 0
 669 1456 777 1440 870 1386 c 1
 1055 1526 l 1
 1128 1417 l 1
 958 1290 l 1
EndSplineSet
EndChar

StartChar: divide
Encoding: 247 247 78
Width: 911
Flags: HMW
LayerCount: 2
Fore
SplineSet
558 1007 m 0
 571 1067 630 1115 689 1115 c 0
 741 1115 776 1078 776 1030 c 0
 776 1022 775 1015 773 1007 c 0
 760 948 702 900 643 900 c 0
 591 900 556 936 556 985 c 0
 555 992 557 1000 558 1007 c 0
403 278 m 0
 416 338 475 386 534 386 c 0
 586 386 621 349 621 301 c 0
 621 293 620 286 618 278 c 0
 605 219 547 171 488 171 c 0
 436 171 401 207 401 256 c 0
 400 263 402 271 403 278 c 0
269 705 m 1
 946 705 l 1
 916 563 l 1
 239 563 l 1
 269 705 l 1
EndSplineSet
EndChar

StartChar: oslash
Encoding: 248 248 79
Width: 1024
Flags: HMW
LayerCount: 2
Back
SplineSet
96.2559 536.576 m 4
 96.2559 851.968 241.664 1093.63 507.904 1093.63 c 4
 774.144 1093.63 919.552 851.968 919.552 536.576 c 4
 919.552 221.184 774.144 -28.6719 507.904 -28.6719 c 5
 241.664 -28.6719 96.2559 221.184 96.2559 536.576 c 4
239.616 536.576 m 4
 239.616 339.968 327.68 106.496 507.904 106.496 c 4
 700.416 106.496 776.192 339.968 776.192 536.576 c 4
 776.192 733.184 688.128 958.464 507.904 958.464 c 4
 327.68 958.464 239.616 733.184 239.616 536.576 c 4
EndSplineSet
Fore
SplineSet
907 771 m 1
 406 174 l 1
 437 132 481 106 541 106 c 0
 734 106 854 340 896 537 c 0
 907 588 914 641 914 691 c 0
 914 719 913 746 907 771 c 1
856 895 m 1
 824 934 781 958 722 958 c 0
 542 958 410 733 368 537 c 0
 357 485 350 431 350 379 c 0
 350 351 352 324 357 299 c 1
 856 895 l 1
80 -29 m 1
 234 153 l 1
 210 211 197 282 197 361 c 0
 198 416 203 475 216 537 c 0
 283 852 485 1094 751 1094 c 0
 840 1094 910 1067 961 1019 c 1
 1026 1098 l 1
 1181 1098 l 1
 1030 917 l 1
 1054.10485346 861.076739962 1067.05366289 793.997435881 1067.05366289 718.451235826 c 0
 1067.05366289 715.645787565 1067.03580586 712.828663051 1067 710 c 0
 1067.06299606 706.598212598 1067.09424409 703.180551181 1067.09424409 699.747265748 c 0
 1067.09424409 648.680551181 1060.18105118 594.157240157 1048 537 c 0
 981 221 778 -29 512 -29 c 1
 423 -29 353 0 301 49 c 1
 237 -29 l 1
 80 -29 l 1
EndSplineSet
EndChar

StartChar: thorn
Encoding: 254 254 83
Width: 1003
Flags: HMW
LayerCount: 2
Fore
SplineSet
281 0 m 17
 129 0 l 1
 438 1454 l 1
 590 1454 l 1
 517 1112 l 17
 602 1206 689 1284 834 1284 c 0
 1028 1284 1111 1125 1111 922 c 0
 1111 862 1104 798 1090 733 c 0
 1030 451 881 164 557 164 c 1
 393 164 347 311 347 311 c 0
 347 311 307 121 281 0 c 17
937 729 m 0
 950 792 957 851 957 904 c 0
 957 1049 908 1149 815 1149 c 1
 676 1149 486 987 431 729 c 0
 418.698933307 670.569933209 413.992006618 620.03996921 413.992006618 573.016000421 c 0
 413.992006618 388.042471474 506.4800445 299 596 299 c 0
 746 299 879 455 937 729 c 0
EndSplineSet
EndChar

StartChar: Euro
Encoding: 8364 8364 87
Width: 1089
Flags: HMW
LayerCount: 2
Fore
SplineSet
432 762 m 1
 303 762 l 1
 332 897 l 1
 485 897 l 1
 572 1069 719 1196 891 1196 c 0
 1051 1196 1104 1155 1178 1063 c 9
 1133 1025 1062 967 1062 967 c 0
 1017 1024 982 1061 863 1061 c 1
 778 1061 699 988 642 897 c 1
 912 897 l 1
 883 762 l 1
 577 762 l 1
 571 743 566 724 562 707 c 0
 557 685 554 665 552 645 c 1
 852 645 l 1
 823 510 l 1
 558 510 l 1
 582 403 651 346 711 346 c 0
 797 346 851 362 957 457 c 9
 1033 360 l 1
 950 283 872 211 682 211 c 1
 497 211 413 341 402 510 c 1
 243 510 l 1
 272 645 l 1
 408 645 l 1
 411 667 414 689 419 711 c 0
 423 728 427 745 432 762 c 1
EndSplineSet
EndChar

StartChar: A
Encoding: 65 65 88
Width: 1302
Flags: HMW
LayerCount: 2
Fore
SplineSet
917 1214 m 1
 587 621 l 1
 1002 621 l 1
 917 1214 l 1
1010 485 m 1
 513 485 l 0
 248 0 l 0
 72 0 l 1
 905 1456 l 0
 905 1456 982 1456 1032 1456 c 17
 1247 0 l 1
 1067 0 l 1
 1010 485 l 1
EndSplineSet
EndChar

StartChar: B
Encoding: 66 66 89
Width: 1179
Flags: HMW
LayerCount: 2
Back
SplineSet
337.92 1085.44 m 4
 337.92 1243.71 466.37 1372.16 624.64 1372.16 c 4
 782.909 1372.16 911.36 1243.71 911.36 1085.44 c 4
 911.36 927.171 782.909 798.72 624.64 798.72 c 4
 466.37 798.72 337.92 927.171 337.92 1085.44 c 4
262.144 405.504 m 4
 262.144 604.472 423.625 765.952 622.592 765.952 c 4
 821.56 765.952 983.04 604.472 983.04 405.504 c 4
 983.04 206.537 821.56 45.0557 622.592 45.0557 c 4
 423.625 45.0557 262.144 206.537 262.144 405.504 c 4
EndSplineSet
Fore
SplineSet
429 705 m 1
 309 141 l 1
 628 141 l 1
 868 141 991 287 1021 430 c 0
 1025.35414347 449.158231255 1028.19160171 467.558119896 1028.19160171 485.860052431 c 0
 1028.19160171 488.574805122 1028.12917131 491.287402561 1028 494 c 0
 1029 610 951 705 748 705 c 1
 721 705 461 705 429 705 c 1
559 1317 m 1
 458 844 l 1
 496 844 662 844 695 844 c 1
 984 844 1060 991 1079 1079 c 1
 1082 1095 1085 1112 1085 1130 c 0
 1085 1214 1034 1315 796 1315 c 1
 765 1315 595 1317 559 1317 c 1
430 1456 m 1
 825 1456 l 1
 1153 1456 1248 1301 1248 1156 c 0
 1247 1130 1244 1104 1239 1079 c 1
 1204 915 1030 782 922 782 c 1
 1124 782 1182 620 1182 496 c 0
 1182 469 1179 445 1175 424 c 1
 1146 287 1034 0 598 0 c 1
 121 0 l 1
 430 1456 l 1
EndSplineSet
EndChar

StartChar: C
Encoding: 67 67 90
Width: 1220
Flags: HMW
LayerCount: 2
Fore
SplineSet
1229 293 m 0
 1134 133 959 -29 694 -29 c 0
 366.761988019 -29 229.007994424 205.29442814 229.007994424 497.693893051 c 0
 229.007994424 570.75130286 237.607620984 647.436060266 254 725 c 0
 337 1114 611 1495 1020 1495 c 0
 1285 1495 1388 1327 1407 1194 c 9
 1346 1178 1249 1153 1249 1153 c 0
 1236 1276 1126 1354 990 1354 c 1
 988 1354 l 0
 700 1354 486 1037 420 725 c 0
 406.271092943 660.191482862 399.390180122 596.524298097 399.390180122 536.179301906 c 0
 399.390180122 297.632352521 506.915628229 111 724 111 c 0
 868 111 1025 215 1091 334 c 9
 1145 318 1229 293 1229 293 c 0
EndSplineSet
EndChar

StartChar: D
Encoding: 68 68 91
Width: 1220
Flags: HMW
LayerCount: 2
Fore
SplineSet
1142 727 m 0
 1154.05779867 783.421397571 1161.40554526 844.60460604 1161.40554526 905.462643152 c 0
 1161.40554526 1112.10583525 1076.69051072 1315 804 1315 c 1
 559 1315 l 1
 309 141 l 1
 554 141 l 1
 902 141 1068 381 1142 727 c 0
1308 727 m 0
 1221 319 942 0 565 0 c 1
 121 0 l 1
 430 1456 l 1
 874 1456 l 2
 1182.17282416 1456 1329.97783111 1220.12566886 1329.97783111 928.626023303 c 0
 1329.97783111 863.52262745 1322.60523625 795.644610389 1308 727 c 0
EndSplineSet
EndChar

StartChar: E
Encoding: 69 69 92
Width: 1142
Flags: HMW
LayerCount: 2
Fore
SplineSet
430 1456 m 0
 1351 1456 l 1
 1322 1315 l 0
 559 1315 l 0
 453 817 l 1
 1173 817 l 1
 1143 676 l 0
 423 676 l 0
 309 141 l 0
 1072 141 l 0
 1042 0 l 0
 121 0 l 1
 430 1456 l 0
EndSplineSet
EndChar

StartChar: F
Encoding: 70 70 93
Width: 1146
Flags: HMW
LayerCount: 2
Fore
SplineSet
430 1456 m 1
 1351 1456 l 1
 1322 1315 l 25
 559 1315 l 25
 453 817 l 1
 1173 817 l 1
 1143 676 l 25
 423 676 l 1
 279 0 l 1
 121 0 l 1
 430 1456 l 1
EndSplineSet
EndChar

StartChar: G
Encoding: 71 71 94
Width: 1363
Flags: HMW
LayerCount: 2
Fore
SplineSet
694 -29 m 0
 379.03085817 -29 231.442763193 213.504823788 231.442763193 514.493513372 c 0
 231.442763193 584.282770097 239.377419515 657.216246385 255 731 c 0
 327 1071 609 1495 1020 1495 c 0
 1244 1495 1345 1401 1405 1260 c 9
 1345 1233 1252 1192 1252 1192 c 0
 1203 1288 1142 1354 990 1354 c 1
 702 1354 479 1004 421 731 c 0
 408.063558896 670.073535443 401.309197448 607.579783087 401.309197448 546.825259946 c 0
 401.309197448 316.403840315 498.465898625 111 724 111 c 0
 1017 111 1160 389 1195 555 c 1
 802 555 l 1
 832 696 l 1
 1381 696 l 1
 1363 610 l 1
 1301 319 1072 -29 700 -29 c 0
 698 -29 696 -29 694 -29 c 0
EndSplineSet
EndChar

StartChar: H
Encoding: 72 72 95
Width: 1198
Flags: HMW
LayerCount: 2
Fore
SplineSet
430 1456 m 0
 588 1456 l 1
 452 815 l 1
 1113 815 l 1
 1249 1456 l 1
 1407 1456 l 1
 1098 0 l 1
 940 0 l 1
 1083 674 l 0
 422 674 l 1
 279 0 l 1
 121 0 l 1
 430 1456 l 0
EndSplineSet
EndChar

StartChar: I
Encoding: 73 73 96
Width: 444
Flags: HMW
LayerCount: 2
Fore
SplineSet
154 0 m 1
 463 1456 l 1
 620 1456 l 1
 311 0 l 1
 154 0 l 1
EndSplineSet
EndChar

StartChar: J
Encoding: 74 74 97
Width: 1140
Flags: HMW
LayerCount: 2
Fore
SplineSet
227 535 m 0
 368 535 l 1
 361 500 356 464 356 430 c 0
 356 270 435 121 591 121 c 1
 784 121 941 334 984 535 c 2
 1179 1456 l 1
 1337 1456 l 1
 1142 535 l 2
 1073 209 834 -29 559 -29 c 1
 334 -29 208 144 209 378 c 0
 208.936749892 381.099255294 208.905504393 384.214512892 208.905504393 387.345266721 c 0
 208.905504393 433.712512604 215.759001296 483.478755942 227 535 c 0
EndSplineSet
EndChar

StartChar: K
Encoding: 75 75 98
Width: 1239
Flags: HMW
LayerCount: 2
Fore
SplineSet
430 1456 m 0
 588 1456 l 1
 428 702 l 1
 1335 1456 l 1
 1528 1456 l 1
 742 803 l 1
 1235 0 l 1
 1028 0 l 1
 616 702 l 1
 389 516 l 1
 279 0 l 1
 121 0 l 1
 430 1456 l 0
EndSplineSet
EndChar

StartChar: L
Encoding: 76 76 99
Width: 1105
Flags: HMW
LayerCount: 2
Fore
SplineSet
430 1456 m 1
 588 1456 l 1
 309 141 l 1
 1074 141 l 1
 1044 0 l 1
 121 0 l 1
 430 1456 l 1
EndSplineSet
EndChar

StartChar: M
Encoding: 77 77 100
Width: 1562
Flags: HMW
LayerCount: 2
Fore
SplineSet
121 0 m 1
 430 1456 l 2
 645 1456 l 1
 839 209 l 2
 1564 1456 l 1
 1771 1456 l 1
 1462 0 l 1
 1309 0 l 25
 1565 1204 l 1
 884 16 l 0
 705 16 l 1
 530 1204 l 0
 274 0 l 1
 121 0 l 1
EndSplineSet
EndChar

StartChar: N
Encoding: 78 78 101
Width: 1271
Flags: HMW
LayerCount: 2
Fore
SplineSet
121 0 m 1
 430 1456 l 2
 583 1456 l 1
 1077 295 l 25
 1323 1456 l 1
 1480 1456 l 1
 1171 0 l 0
 1026 0 l 1
 532 1190 l 0
 279 0 l 1
 121 0 l 1
EndSplineSet
EndChar

StartChar: O
Encoding: 79 79 102
Width: 1333
Flags: HMW
LayerCount: 2
Fore
SplineSet
1250 725 m 0
 1265 797 1275 876 1275 952 c 0
 1274 1161 1201 1354 964 1354 c 0
 642 1354 469 995 412 725 c 1
 397 655 389 580 388 507 c 0
 388 300 464 113 700 113 c 1
 1021 113 1193 457 1250 725 c 0
246 725 m 1
 314 1047 566 1495 994 1495 c 1
 1329 1495 1440 1222 1440 950 c 0
 1440 873 1431 796 1416 725 c 1
 1348 406 1098 -29 670 -29 c 1
 336 -29 224 238 223 508 c 0
 223 582 231 656 246 725 c 1
EndSplineSet
EndChar

StartChar: P
Encoding: 80 80 103
Width: 1099
Flags: HMW
LayerCount: 2
Fore
SplineSet
444 774 m 1
 650 774 l 1
 970 774 1066 918 1093 1047 c 1
 1097 1066 1100 1086 1099 1107 c 0
 1099 1208 1037 1315 765 1315 c 1
 559 1315 l 1
 444 774 l 1
430 1456 m 0
 588 1456 l 1
 794 1456 l 1
 1110 1456 1264 1322 1265 1132 c 0
 1264 1104 1261 1076 1255 1047 c 0
 1207 821 998 631 619 631 c 1
 413 631 l 1
 279 0 l 1
 121 0 l 1
 430 1456 l 0
EndSplineSet
EndChar

StartChar: Q
Encoding: 81 81 104
Width: 1370
Flags: HMW
LayerCount: 2
Back
SplineSet
1273.04 83.6143 m 5
 1186.51 -32.9658 l 5
 699.626 328.428 l 5
 786.157 445.006 l 5
 1273.04 83.6143 l 5
1101.68 725.914 m 0
 1101.68 994.929 994.929 1353.62 672.539 1353.62 c 0
 350.146 1353.62 243.395 994.929 243.395 725.914 c 1
 243.395 456.898 352.282 111.022 672.539 111.022 c 1
 992.795 111.022 1101.68 456.898 1101.68 725.914 c 0
93.9424 725.914 m 1
 93.9424 1046.17 243.395 1494.53 672.539 1494.53 c 1
 1101.68 1494.53 1251.13 1046.17 1251.13 725.914 c 1
 1251.13 405.657 1099.55 -29.8896 672.539 -29.8896 c 1
 245.53 -29.8896 93.9424 405.657 93.9424 725.914 c 1
EndSplineSet
Fore
SplineSet
1258 725 m 1
 1273 797 1283 873 1283 945 c 0
 1282 1163 1200 1354 962 1354 c 1
 685 1354 480 1047 412 725 c 1
 398 661 390 589 390 516 c 0
 390 312 463 113 716 113 c 1
 784 113 886 141 943 188 c 1
 785 330 l 1
 898 446 l 1
 1064 297 l 1
 1155 395 1216 528 1258 725 c 1
246 725 m 1
 314 1047 574 1495 994 1495 c 1
 1333 1495 1446 1218 1446 943 c 0
 1446 869 1439 794 1424 725 c 1
 1377 506 1266 309 1166 207 c 1
 1306 86 l 1
 1191 -31 l 1
 1046 96 l 1
 948 29 844 -29 682 -29 c 1
 339 -29 223 237 223 509 c 0
 223 582 231 656 246 725 c 1
EndSplineSet
EndChar

StartChar: R
Encoding: 82 82 105
Width: 1101
Flags: HMW
LayerCount: 2
Back
SplineSet
268.288 774.145 m 5
 475.136 774.145 l 5
 794.624 774.145 860.16 917.504 860.16 1046.53 c 5
 860.16 1159.17 802.816 1314.82 475.136 1314.82 c 5
 268.288 1314.82 l 5
 268.288 774.145 l 5
110.592 1456.13 m 4
 268.288 1456.13 l 5
 475.136 1456.13 l 5
 835.584 1454.08 1021.95 1282.05 1021.95 1046.53 c 4
 1021.95 821.248 854.016 630.784 475.136 630.784 c 5
 268.288 630.784 l 5
 268.288 0 l 5
 110.592 0 l 5
 110.592 1456.13 l 4
EndSplineSet
Fore
SplineSet
444 774 m 1
 650 774 l 1
 976 774 1067 926 1093 1047 c 0
 1097.51458724 1068.20487947 1099.87685835 1088.62369566 1099.87685835 1108.07465827 c 0
 1099.87685835 1230.80319778 1005.83121695 1315 765 1315 c 2
 559 1315 l 1
 444 774 l 1
923 0 m 1
 628 631 l 1
 413 631 l 1
 279 0 l 1
 121 0 l 1
 430 1456 l 0
 588 1456 l 1
 794 1456 l 1
 1071.64709928 1456 1266.14340619 1341.17271529 1266.14340619 1129.84082549 c 0
 1266.14340619 1103.69301611 1263.16590526 1076.06783907 1257 1047 c 0
 1215 850 1040 688 808 648 c 1
 1104 0 l 1
 923 0 l 1
EndSplineSet
EndChar

StartChar: S
Encoding: 83 83 106
Width: 1079
Flags: HMW
LayerCount: 2
Back
SplineSet
75.8164 395.264 m 0
 75.8164 630.407 293.161 821.248 571.054 821.248 c 0
 848.947 821.248 1066.29 630.407 1066.29 395.264 c 0
 1066.29 160.12 848.947 -30.7197 571.054 -30.7197 c 0
 293.161 -30.7197 75.8164 160.12 75.8164 395.264 c 0
233.994 397.312 m 0
 233.994 555.581 384.03 684.032 568.894 684.032 c 0
 753.756 684.032 903.793 555.581 903.793 397.312 c 0
 903.793 239.043 753.756 110.592 568.894 110.592 c 0
 384.03 110.592 233.994 239.043 233.994 397.312 c 0
114.688 1105.92 m 4
 114.688 1320.71 317.456 1495.04 567.296 1495.04 c 0
 817.136 1495.04 1019.9 1320.71 1019.9 1105.92 c 0
 1019.9 891.126 817.136 716.8 567.296 716.8 c 0
 317.456 716.8 114.688 891.126 114.688 1105.92 c 4
276.48 1107.97 m 4
 276.48 1243.63 405.848 1353.73 565.248 1353.73 c 0
 724.648 1353.73 854.016 1243.63 854.016 1107.97 c 0
 854.016 972.309 724.648 862.208 565.248 862.208 c 0
 405.848 862.208 276.48 972.309 276.48 1107.97 c 4
EndSplineSet
Fore
SplineSet
115 327 m 1
 291 358 l 1
 293 252 400 113 563 113 c 1
 745 113 927 214 960 371 c 0
 963.516224433 387.555556707 965.17036098 403.408134991 965.17036098 418.592720993 c 0
 965.17036098 610.693005987 700.429202943 695.882497812 592 745 c 0
 477.948881101 796.841417681 344.487804629 866.599719277 344.487804629 1043.93344374 c 0
 344.487804629 1071.84147276 347.793252285 1102.41383612 355 1136 c 0
 403 1361 623 1495 857 1495 c 1
 1096 1495 1231 1360 1248 1194 c 1
 1090 1169 l 1
 1080 1256 986 1354 827 1354 c 1
 673 1354 543 1260 517 1136 c 0
 512.89442637 1116.84065639 510.957929728 1099.171956 510.957929728 1082.81455977 c 0
 510.957929728 931.835865164 675.933535754 892.570866765 823 824 c 0
 951.360660967 764.215582563 1122.23423527 667.328986218 1122.23423527 459.946132414 c 0
 1122.23423527 431.447553174 1119.00740866 400.862330254 1112 368 c 0
 1055 99 803 -29 533 -29 c 1
 262 -29 145 132 115 327 c 1
EndSplineSet
EndChar

StartChar: T
Encoding: 84 84 107
Width: 1243
Flags: HMW
LayerCount: 2
Fore
SplineSet
397 1456 m 0
 1489 1456 l 1
 1460 1315 l 0
 1003 1315 l 1
 723 0 l 1
 565 0 l 1
 845 1315 l 1
 368 1315 l 1
 397 1456 l 0
EndSplineSet
EndChar

StartChar: U
Encoding: 85 85 108
Width: 1265
Flags: HMW
LayerCount: 2
Back
SplineSet
272.384 1456.13 m 5
 110.592 1456.13 l 5
 110.592 661.504 l 5
 110.592 239.616 307.2 -30.7197 632.832 -30.7197 c 4
 958.47 -30.7197 1155.07 239.616 1155.07 661.504 c 5
 1155.07 1456.13 l 5
 993.28 1456.13 l 5
 993.28 661.504 l 5
 993.28 290.816 827.392 110.592 632.832 110.592 c 5
 438.272 110.592 274.432 290.816 272.384 661.504 c 5
 272.384 1456.13 l 5
EndSplineSet
Fore
SplineSet
1313 1456 m 1
 1474 1456 l 1
 1302 645 l 1
 1212 223 965 -29 637 -29 c 0
 374 -29 231 132 231 414 c 0
 231 484 240 561 258 645 c 1
 430 1456 l 1
 592 1456 l 1
 420 645 l 1
 404 570 397 504 397 445 c 0
 397 215 512 113 667 113 c 1
 862 113 1062 274 1141 645 c 1
 1313 1456 l 1
EndSplineSet
EndChar

StartChar: V
Encoding: 86 86 109
Width: 1245
Flags: HMW
LayerCount: 2
Fore
SplineSet
1331 1456 m 1
 1495 1456 l 1
 745 0 l 1
 526 0 l 1
 389 1456 l 1
 559 1456 l 1
 671 168 l 1
 1331 1456 l 1
EndSplineSet
EndChar

StartChar: W
Encoding: 87 87 110
Width: 1576
Flags: HMW
LayerCount: 2
Fore
SplineSet
393 1456 m 1
 553 1456 l 1
 467 182 l 0
 1004 1419 l 1
 1199 1419 l 0
 1210 182 l 1
 1665 1456 l 25
 1825 1456 l 1
 1286 0 l 1
 1067 0 l 1
 1062 1229 l 2
 535 0 l 1
 311 0 l 2
 393 1456 l 1
EndSplineSet
EndChar

StartChar: X
Encoding: 88 88 111
Width: 1214
Flags: HMW
LayerCount: 2
Fore
SplineSet
383 1456 m 0
 565 1456 l 1
 799 850 l 1
 1282 1456 l 1
 1464 1456 l 1
 857 729 l 1
 1161 0 l 1
 971 0 l 1
 743 586 l 1
 258 0 l 1
 80 0 l 1
 690 729 l 1
 383 1456 l 0
EndSplineSet
EndChar

StartChar: Y
Encoding: 89 89 112
Width: 1179
Flags: HMW
LayerCount: 2
Fore
SplineSet
385 1456 m 1
 553 1456 l 1
 782 856 l 1
 1265 1456 l 1
 1433 1456 l 1
 837 748 l 1
 678 0 l 1
 520 0 l 1
 679 748 l 1
 385 1456 l 1
EndSplineSet
EndChar

StartChar: Z
Encoding: 90 90 113
Width: 1325
Flags: HMW
LayerCount: 2
Fore
SplineSet
438 1456 m 1
 1542 1456 l 1
 399 141 l 1
 1275 141 l 1
 1245 0 l 1
 100 0 l 1
 1253 1315 l 1
 409 1315 l 1
 438 1456 l 1
EndSplineSet
EndChar

StartChar: bracketleft
Encoding: 91 91 114
Width: 626
Flags: HMW
LayerCount: 2
Fore
SplineSet
506 -96 m 0
 111 -96 l 1
 456 1530 l 0
 851 1530 l 1
 821 1389 l 1
 576 1389 l 1
 290 43 l 1
 535 43 l 1
 506 -96 l 0
EndSplineSet
EndChar

StartChar: backslash
Encoding: 92 92 115
Width: 811
Flags: HMW
LayerCount: 2
Fore
SplineSet
690 0 m 1
 299 1544 l 1
 471 1544 l 0
 860 0 l 1
 690 0 l 1
EndSplineSet
EndChar

StartChar: bracketright
Encoding: 93 93 116
Width: 638
Flags: HMW
LayerCount: 2
Fore
SplineSet
109 -96 m 0
 139 45 l 1
 385 45 l 1
 670 1389 l 1
 424 1389 l 1
 454 1530 l 1
 849 1530 l 0
 504 -96 l 1
 109 -96 l 0
EndSplineSet
EndChar

StartChar: asciicircum
Encoding: 94 94 117
Width: 927
Flags: HMW
LayerCount: 2
Fore
SplineSet
1065 1149 m 1
 877 1149 l 1
 767 1362 l 1
 564 1151 l 0
 378 1151 l 1
 727 1493 l 1
 858 1493 l 1
 1065 1149 l 1
EndSplineSet
EndChar

StartChar: underscore
Encoding: 95 95 118
Width: 1241
Flags: HMW
LayerCount: 2
Fore
SplineSet
39 -231 m 1
 69 -90 l 1
 1159 -90 l 1
 1129 -231 l 1
 39 -231 l 1
EndSplineSet
EndChar

StartChar: grave
Encoding: 96 96 119
Width: 550
Flags: HMW
LayerCount: 2
Fore
SplineSet
820 1676 m 2
 826 1669 829 1661 829 1653 c 0
 829 1649 829 1644 828 1639 c 0
 825 1626 818 1615 808 1604 c 1
 798 1594 786 1587 772 1584 c 0
 767 1583 761 1582 757 1582 c 0
 748 1582 740 1585 733 1591 c 2
 475 1810 l 1
 464 1822 457 1836 456 1851 c 0
 456 1856 456 1861 457 1868 c 0
 461 1885 470 1901 484 1914 c 1
 497 1928 512 1938 530 1942 c 0
 536 1944 542 1944 548 1944 c 0
 565 1944 579 1939 592 1926 c 1
 820 1676 l 2
EndSplineSet
EndChar

StartChar: a
Encoding: 97 97 120
Width: 993
Flags: HMW
LayerCount: 2
Back
SplineSet
143.36 1474.56 m 29
 143.36 -53.248 l 29
430.08 1466.37 m 29
 430.08 -61.4404 l 29
286.72 -69.6318 m 29
 286.72 1458.18 l 29
 286.72 -69.6318 l 29
573.44 1470.46 m 29
 573.44 -57.3438 l 29
716.8 1466.37 m 29
 716.8 -61.4404 l 29
860.16 -49.1523 m 29
 860.16 1478.66 l 29
 860.16 -49.1523 l 29
143.36 1474.56 m 29
 143.36 -53.248 l 29
430.08 1466.37 m 29
 430.08 -61.4404 l 29
286.72 -69.6318 m 29
 286.72 1458.18 l 29
 286.72 -69.6318 l 29
573.44 1470.46 m 29
 573.44 -57.3438 l 29
716.8 1466.37 m 29
 716.8 -61.4404 l 29
860.16 -49.1523 m 29
 860.16 1478.66 l 29
 860.16 -49.1523 l 29
143.36 1474.56 m 29
 143.36 -53.248 l 29
430.08 1466.37 m 29
 430.08 -61.4404 l 29
286.72 -69.6318 m 29
 286.72 1458.18 l 29
 286.72 -69.6318 l 29
573.44 1470.46 m 29
 573.44 -57.3438 l 29
716.8 1466.37 m 29
 716.8 -61.4404 l 29
860.16 -49.1523 m 29
 860.16 1478.66 l 29
 860.16 -49.1523 l 29
143.36 1474.56 m 29
 143.36 -53.248 l 29
430.08 1466.37 m 29
 430.08 -61.4404 l 29
286.72 -69.6318 m 29
 286.72 1458.18 l 29
 286.72 -69.6318 l 29
573.44 1470.46 m 29
 573.44 -57.3438 l 29
716.8 1466.37 m 29
 716.8 -61.4404 l 29
860.16 -49.1523 m 29
 860.16 1478.66 l 29
 860.16 -49.1523 l 29
143.36 1474.56 m 29
 143.36 -53.248 l 29
430.08 1466.37 m 29
 430.08 -61.4404 l 29
286.72 -69.6318 m 29
 286.72 1458.18 l 29
 286.72 -69.6318 l 29
573.44 1470.46 m 29
 573.44 -57.3438 l 29
716.8 1466.37 m 29
 716.8 -61.4404 l 29
860.16 -49.1523 m 29
 860.16 1478.66 l 29
 860.16 -49.1523 l 29
143.36 1474.56 m 29
 143.36 -53.248 l 29
430.08 1466.37 m 29
 430.08 -61.4404 l 29
286.72 -69.6318 m 29
 286.72 1458.18 l 29
 286.72 -69.6318 l 29
573.44 1470.46 m 29
 573.44 -57.3438 l 29
716.8 1466.37 m 29
 716.8 -61.4404 l 29
860.16 -49.1523 m 29
 860.16 1478.66 l 29
 860.16 -49.1523 l 29
143.36 1474.56 m 29
 143.36 -53.248 l 29
430.08 1466.37 m 29
 430.08 -61.4404 l 29
286.72 -69.6318 m 29
 286.72 1458.18 l 29
 286.72 -69.6318 l 29
573.44 1470.46 m 29
 573.44 -57.3438 l 29
716.8 1466.37 m 29
 716.8 -61.4404 l 29
860.16 -49.1523 m 29
 860.16 1478.66 l 29
 860.16 -49.1523 l 29
143.36 1474.56 m 29
 143.36 -53.248 l 29
430.08 1466.37 m 29
 430.08 -61.4404 l 29
286.72 -69.6318 m 29
 286.72 1458.18 l 29
 286.72 -69.6318 l 29
573.44 1470.46 m 29
 573.44 -57.3438 l 29
716.8 1466.37 m 29
 716.8 -61.4404 l 29
860.16 -49.1523 m 29
 860.16 1478.66 l 29
 860.16 -49.1523 l 29
143.36 1474.56 m 29
 143.36 -53.248 l 29
430.08 1466.37 m 29
 430.08 -61.4404 l 29
286.72 -69.6318 m 29
 286.72 1458.18 l 29
 286.72 -69.6318 l 29
573.44 1470.46 m 29
 573.44 -57.3438 l 29
716.8 1466.37 m 29
 716.8 -61.4404 l 29
860.16 -49.1523 m 29
 860.16 1478.66 l 29
 860.16 -49.1523 l 29
143.36 1474.56 m 29
 143.36 -53.248 l 29
430.08 1466.37 m 29
 430.08 -61.4404 l 29
286.72 -69.6318 m 29
 286.72 1458.18 l 29
 286.72 -69.6318 l 29
573.44 1470.46 m 29
 573.44 -57.3438 l 29
716.8 1466.37 m 29
 716.8 -61.4404 l 29
860.16 -49.1523 m 29
 860.16 1478.66 l 29
 860.16 -49.1523 l 29
143.36 1474.56 m 29
 143.36 -53.248 l 29
430.08 1466.37 m 29
 430.08 -61.4404 l 29
286.72 -69.6318 m 29
 286.72 1458.18 l 29
 286.72 -69.6318 l 29
573.44 1470.46 m 29
 573.44 -57.3438 l 29
716.8 1466.37 m 29
 716.8 -61.4404 l 29
860.16 -49.1523 m 29
 860.16 1478.66 l 29
 860.16 -49.1523 l 29
143.36 1474.56 m 29
 143.36 -53.248 l 29
430.08 1466.37 m 29
 430.08 -61.4404 l 29
286.72 -69.6318 m 29
 286.72 1458.18 l 29
 286.72 -69.6318 l 29
573.44 1470.46 m 29
 573.44 -57.3438 l 29
716.8 1466.37 m 29
 716.8 -61.4404 l 29
860.16 -49.1523 m 29
 860.16 1478.66 l 29
 860.16 -49.1523 l 29
143.36 1474.56 m 29
 143.36 -53.248 l 29
430.08 1466.37 m 29
 430.08 -61.4404 l 29
286.72 -69.6318 m 29
 286.72 1458.18 l 29
 286.72 -69.6318 l 29
573.44 1470.46 m 29
 573.44 -57.3438 l 29
716.8 1466.37 m 29
 716.8 -61.4404 l 29
860.16 -49.1523 m 29
 860.16 1478.66 l 29
 860.16 -49.1523 l 29
143.36 1474.56 m 29
 143.36 -53.248 l 29
430.08 1466.37 m 29
 430.08 -61.4404 l 29
286.72 -69.6318 m 29
 286.72 1458.18 l 29
 286.72 -69.6318 l 29
573.44 1470.46 m 29
 573.44 -57.3438 l 29
716.8 1466.37 m 29
 716.8 -61.4404 l 29
860.16 -49.1523 m 29
 860.16 1478.66 l 29
 860.16 -49.1523 l 29
143.36 1474.56 m 29
 143.36 -53.248 l 29
430.08 1466.37 m 29
 430.08 -61.4404 l 29
286.72 -69.6318 m 29
 286.72 1458.18 l 29
 286.72 -69.6318 l 29
573.44 1470.46 m 29
 573.44 -57.3438 l 29
716.8 1466.37 m 29
 716.8 -61.4404 l 29
860.16 -49.1523 m 29
 860.16 1478.66 l 29
 860.16 -49.1523 l 29
143.36 1474.56 m 29
 143.36 -53.248 l 29
430.08 1466.37 m 29
 430.08 -61.4404 l 29
286.72 -69.6318 m 29
 286.72 1458.18 l 29
 286.72 -69.6318 l 29
573.44 1470.46 m 29
 573.44 -57.3438 l 29
716.8 1466.37 m 29
 716.8 -61.4404 l 29
860.16 -49.1523 m 29
 860.16 1478.66 l 29
 860.16 -49.1523 l 29
143.36 1474.56 m 25
 143.36 -53.248 l 25
430.08 1466.37 m 25
 430.08 -61.4404 l 25
286.72 -69.6318 m 25
 286.72 1458.18 l 25
 286.72 -69.6318 l 25
573.44 1470.46 m 25
 573.44 -57.3438 l 25
716.8 1466.37 m 25
 716.8 -61.4404 l 25
860.16 -49.1523 m 25
 860.16 1478.66 l 25
 860.16 -49.1523 l 25
143.36 1474.56 m 25
 143.36 -53.248 l 25
430.08 1466.37 m 25
 430.08 -61.4404 l 25
286.72 -69.6318 m 25
 286.72 1458.18 l 25
 286.72 -69.6318 l 25
573.44 1470.46 m 25
 573.44 -57.3438 l 25
716.8 1466.37 m 25
 716.8 -61.4404 l 25
860.16 -49.1523 m 25
 860.16 1478.66 l 25
 860.16 -49.1523 l 25
143.36 1474.56 m 25
 143.36 -53.248 l 25
430.08 1466.37 m 25
 430.08 -61.4404 l 25
286.72 -69.6318 m 25
 286.72 1458.18 l 25
 286.72 -69.6318 l 25
573.44 1470.46 m 25
 573.44 -57.3438 l 25
716.8 1466.37 m 25
 716.8 -61.4404 l 25
860.16 -49.1523 m 25
 860.16 1478.66 l 25
 860.16 -49.1523 l 25
143.36 1474.56 m 25
 143.36 -53.248 l 25
430.08 1466.37 m 25
 430.08 -61.4404 l 25
286.72 -69.6318 m 25
 286.72 1458.18 l 25
 286.72 -69.6318 l 25
573.44 1470.46 m 25
 573.44 -57.3438 l 25
716.8 1466.37 m 25
 716.8 -61.4404 l 25
860.16 -49.1523 m 25
 860.16 1478.66 l 25
 860.16 -49.1523 l 25
143.36 1474.56 m 25
 143.36 -53.248 l 25
430.08 1466.37 m 25
 430.08 -61.4404 l 25
286.72 -69.6318 m 25
 286.72 1458.18 l 25
 286.72 -69.6318 l 25
573.44 1470.46 m 25
 573.44 -57.3438 l 25
716.8 1466.37 m 25
 716.8 -61.4404 l 25
860.16 -49.1523 m 25
 860.16 1478.66 l 25
 860.16 -49.1523 l 25
143.36 1474.56 m 25
 143.36 -53.248 l 25
430.08 1466.37 m 25
 430.08 -61.4404 l 25
286.72 -69.6318 m 25
 286.72 1458.18 l 25
 286.72 -69.6318 l 25
573.44 1470.46 m 25
 573.44 -57.3438 l 25
716.8 1466.37 m 25
 716.8 -61.4404 l 25
860.16 -49.1523 m 25
 860.16 1478.66 l 25
 860.16 -49.1523 l 25
143.36 1474.56 m 25
 143.36 -53.248 l 25
430.08 1466.37 m 25
 430.08 -61.4404 l 25
286.72 -69.6318 m 25
 286.72 1458.18 l 25
 286.72 -69.6318 l 25
573.44 1470.46 m 25
 573.44 -57.3438 l 25
716.8 1466.37 m 25
 716.8 -61.4404 l 25
860.16 -49.1523 m 25
 860.16 1478.66 l 25
 860.16 -49.1523 l 25
143.36 1474.56 m 25
 143.36 -53.248 l 25
430.08 1466.37 m 25
 430.08 -61.4404 l 25
286.72 -69.6318 m 25
 286.72 1458.18 l 25
 286.72 -69.6318 l 25
573.44 1470.46 m 25
 573.44 -57.3438 l 25
716.8 1466.37 m 25
 716.8 -61.4404 l 25
860.16 -49.1523 m 25
 860.16 1478.66 l 25
 860.16 -49.1523 l 25
143.36 1474.56 m 25
 143.36 -53.248 l 25
430.08 1466.37 m 25
 430.08 -61.4404 l 25
286.72 -69.6318 m 25
 286.72 1458.18 l 25
 286.72 -69.6318 l 25
573.44 1470.46 m 25
 573.44 -57.3438 l 25
716.8 1466.37 m 25
 716.8 -61.4404 l 25
860.16 -49.1523 m 25
 860.16 1478.66 l 25
 860.16 -49.1523 l 25
143.36 1474.56 m 25
 143.36 -53.248 l 25
430.08 1466.37 m 25
 430.08 -61.4404 l 25
286.72 -69.6318 m 25
 286.72 1458.18 l 25
 286.72 -69.6318 l 25
573.44 1470.46 m 25
 573.44 -57.3438 l 25
716.8 1466.37 m 25
 716.8 -61.4404 l 25
860.16 -49.1523 m 25
 860.16 1478.66 l 25
 860.16 -49.1523 l 25
143.36 1474.56 m 25
 143.36 -53.248 l 25
430.08 1466.37 m 25
 430.08 -61.4404 l 25
286.72 -69.6318 m 25
 286.72 1458.18 l 25
 286.72 -69.6318 l 25
573.44 1470.46 m 25
 573.44 -57.3438 l 25
716.8 1466.37 m 25
 716.8 -61.4404 l 25
860.16 -49.1523 m 25
 860.16 1478.66 l 25
 860.16 -49.1523 l 25
143.36 1474.56 m 25
 143.36 -53.248 l 25
430.08 1466.37 m 25
 430.08 -61.4404 l 25
286.72 -69.6318 m 25
 286.72 1458.18 l 25
 286.72 -69.6318 l 25
573.44 1470.46 m 25
 573.44 -57.3438 l 25
716.8 1466.37 m 25
 716.8 -61.4404 l 25
860.16 -49.1523 m 25
 860.16 1478.66 l 25
 860.16 -49.1523 l 25
143.36 1474.56 m 25
 143.36 -53.248 l 25
430.08 1466.37 m 25
 430.08 -61.4404 l 25
286.72 -69.6318 m 25
 286.72 1458.18 l 25
 286.72 -69.6318 l 25
573.44 1470.46 m 25
 573.44 -57.3438 l 25
716.8 1466.37 m 25
 716.8 -61.4404 l 25
860.16 -49.1523 m 25
 860.16 1478.66 l 25
 860.16 -49.1523 l 25
143.36 1474.56 m 25
 143.36 -53.248 l 25
430.08 1466.37 m 25
 430.08 -61.4404 l 25
286.72 -69.6318 m 25
 286.72 1458.18 l 25
 286.72 -69.6318 l 25
573.44 1470.46 m 25
 573.44 -57.3438 l 25
716.8 1466.37 m 25
 716.8 -61.4404 l 25
860.16 -49.1523 m 25
 860.16 1478.66 l 25
 860.16 -49.1523 l 25
143.36 1474.56 m 25
 143.36 -53.248 l 25
430.08 1466.37 m 25
 430.08 -61.4404 l 25
286.72 -69.6318 m 25
 286.72 1458.18 l 25
 286.72 -69.6318 l 25
573.44 1470.46 m 25
 573.44 -57.3438 l 25
716.8 1466.37 m 25
 716.8 -61.4404 l 25
860.16 -49.1523 m 25
 860.16 1478.66 l 25
 860.16 -49.1523 l 25
143.36 1474.56 m 25
 143.36 -53.248 l 25
430.08 1466.37 m 25
 430.08 -61.4404 l 25
286.72 -69.6318 m 25
 286.72 1458.18 l 25
 286.72 -69.6318 l 25
573.44 1470.46 m 25
 573.44 -57.3438 l 25
716.8 1466.37 m 25
 716.8 -61.4404 l 25
860.16 -49.1523 m 25
 860.16 1478.66 l 25
 860.16 -49.1523 l 25
EndSplineSet
Fore
SplineSet
613 582 m 0
 462 582 338 473 311 344 c 0
 307.249561961 326.2824134 305.439232264 309.166929389 305.439232264 292.794141502 c 0
 305.439232264 182.565491438 387.493539298 106 512 106 c 0
 639 106 772 211 800 344 c 0
 803.579324681 361.061447644 805.265384731 377.439611812 805.265384731 393.054667789 c 0
 805.265384731 508.316724431 713.398566214 582 613 582 c 0
609 717 m 0
 764 717 842 610 844 559 c 1
 864 655 l 1
 871.779599276 691.758606581 875.625257834 725.528931269 875.625257834 756.082911817 c 0
 875.625257834 882.626897183 809.659562822 954 684 954 c 0
 590 954 497 922 442 877 c 1
 387 981 l 1
 469 1038 570 1090 713 1090 c 0
 891.506716969 1090 1018.96647202 982.234191517 1018.96647202 779.239048427 c 0
 1018.96647202 741.150992711 1014.47923105 699.710373103 1005 655 c 2
 979 532 l 2
 866 0 l 1
 727 0 l 1
 760 156 l 0
 761 158 l 1
 745 109 605 -29 450 -29 c 0
 267.148656582 -29 146.937930594 79.3314207293 146.937930594 252.974840407 c 0
 146.937930594 281.605288123 150.205936545 312.011284565 157 344 c 0
 203 559 404 717 609 717 c 0
EndSplineSet
EndChar

StartChar: b
Encoding: 98 98 121
Width: 1044
Flags: HMW
LayerCount: 2
Back
SplineSet
281 0 m 13
 129 0 l 5
 129 1454 l 5
 281 1454 l 5
 281 892 l 21
 324 1006 428 1102 586 1102 c 4
 812 1102 956 940 956 627 c 5
 956 0 l 5
 805 0 l 4
 805 527 l 5
 805 768 760 965 546 965 c 4
 332 965 281 780 281 540 c 4
 281 0 l 13
143.36 1474.56 m 25
 143.36 -53.248 l 25
430.08 1466.37 m 25
 430.08 -61.4404 l 25
286.72 -69.6318 m 25
 286.72 1458.18 l 25
 286.72 -69.6318 l 25
573.44 1470.46 m 25
 573.44 -57.3438 l 25
716.8 1466.37 m 25
 716.8 -61.4404 l 25
860.16 -49.1523 m 25
 860.16 1478.66 l 25
 860.16 -49.1523 l 25
EndSplineSet
Fore
SplineSet
590 1454 m 9
 469 886 l 1
 539 996 642 1102 814 1102 c 0
 1028.45386076 1102 1112.09302481 941.268040818 1112.09302481 736.170436339 c 0
 1112.09302481 673.483963387 1104.27969462 606.652979433 1090 539 c 0
 1029 254 854 -29 572 -29 c 0
 398 -29 344 76 320 184 c 9
 281 0 l 1
 129 0 l 1
 438 1454 l 1
 590 1454 l 9
936 539 m 0
 948.488421128 597.632078853 954.301134505 650.574124927 954.301134505 697.608018764 c 0
 954.301134505 872.779935254 873.673113104 966 757 966 c 0
 609 966 448 812 390 537 c 0
 378.225366237 481.578016943 372.756388252 430.895579079 372.756388252 385.31245786 c 0
 372.756388252 206.360270045 457.045617188 106 575 106 c 0
 723 106 878 264 936 539 c 0
EndSplineSet
EndChar

StartChar: c
Encoding: 99 99 122
Width: 921
Flags: HMW
LayerCount: 2
Back
SplineSet
1242 0 m 21
 228 537 l 5
 1242 1074 l 13
86.0156 532.48 m 0
 86.0156 843.366 286.032 1095.68 532.48 1095.68 c 0
 778.928 1095.68 978.944 843.366 978.944 532.48 c 0
 978.944 221.594 778.928 -30.7197 532.48 -30.7197 c 0
 286.032 -30.7197 86.0156 221.594 86.0156 532.48 c 0
239.616 530.432 m 0
 239.616 765.575 370.819 956.416 532.48 956.416 c 0
 694.141 956.416 825.344 765.575 825.344 530.432 c 0
 825.344 295.289 694.141 104.448 532.48 104.448 c 0
 370.819 104.448 239.616 295.289 239.616 530.432 c 0
143.36 1474.56 m 25
 143.36 -53.248 l 25
430.08 1466.37 m 25
 430.08 -61.4404 l 25
286.72 -69.6318 m 25
 286.72 1458.18 l 25
 286.72 -69.6318 l 25
573.44 1470.46 m 25
 573.44 -57.3438 l 25
716.8 1466.37 m 25
 716.8 -61.4404 l 25
860.16 -49.1523 m 25
 860.16 1478.66 l 25
 860.16 -49.1523 l 25
EndSplineSet
Fore
SplineSet
917 809 m 1
 909 866 843 958 741 958 c 1
 575 958 396 784 343 537 c 0
 332.56341556 487.612591489 327.649358183 441.663737564 327.649358183 399.587134704 c 0
 327.649358183 215.891620862 421.30975332 106 558 106 c 0
 682 106 779 217 810 264 c 9
 916 187 l 1
 834 86 694 -29 529 -29 c 1
 306.55809647 -29 173.652750579 147.296787909 173.652750579 386.553263764 c 0
 173.652750579 434.479544573 178.985639075 484.93211199 190 537 c 0
 251 823 483 1094 770 1094 c 0
 932 1094 1022 993 1062 875 c 1
 917 809 l 1
EndSplineSet
EndChar

StartChar: d
Encoding: 100 100 123
Width: 1044
Flags: HMW
LayerCount: 2
Back
SplineSet
761.856 1062.91 m 21
 913.408 1062.91 l 5
 913.408 -391.168 l 5
 761.856 -391.168 l 5
 761.856 163.84 l 21
 700.416 67.7812 626.688 -30.4951 481.28 -28.6719 c 5
 229.376 -28.6719 108.544 256 108.544 538.624 c 4
 108.544 821.248 225.28 1091.58 483.328 1091.58 c 5
 620.544 1091.58 706.56 995.328 761.856 894.976 c 5
 761.856 1062.91 l 21
262.144 538.624 m 4
 262.144 305.152 350.208 106.496 483.328 106.496 c 5
 622.592 106.496 765.952 278.528 765.952 536.576 c 5
 765.952 827.392 595.968 956.416 483.328 956.416 c 4
 352.256 956.416 262.144 778.24 262.144 538.624 c 4
143.36 1474.56 m 25
 143.36 -53.248 l 25
430.08 1466.37 m 25
 430.08 -61.4404 l 25
286.72 -69.6318 m 25
 286.72 1458.18 l 25
 286.72 -69.6318 l 25
573.44 1470.46 m 25
 573.44 -57.3438 l 25
716.8 1466.37 m 25
 716.8 -61.4404 l 25
860.16 -49.1523 m 25
 860.16 1478.66 l 25
 860.16 -49.1523 l 25
EndSplineSet
Fore
SplineSet
1076 1454 m 17
 1228 1454 l 1
 919 0 l 1
 767 0 l 1
 806 184 l 17
 736 76 638 -29 463 -29 c 0
 248.214458661 -29 166.053277834 136.926512712 166.053277834 341.951723704 c 0
 166.053277834 405.157250821 173.861681425 472.078625411 188 539 c 0
 249 828 422 1102 702 1102 c 0
 874 1102 931 996 955 886 c 1
 1076 1454 l 17
342 539 m 0
 329.636646164 480.380649917 323.861762935 427.077514047 323.861762935 379.487700515 c 0
 323.861762935 203.820198797 402.547868409 106 519 106 c 0
 667 106 828 264 886 537 c 0
 897.774633763 592.828004911 903.243611748 643.66918401 903.243611748 689.247433625 c 0
 903.243611748 868.180496285 818.954382812 966 701 966 c 0
 553 966 401 816 342 539 c 0
EndSplineSet
EndChar

StartChar: e
Encoding: 101 101 124
Width: 1013
Flags: HMW
LayerCount: 2
Back
SplineSet
143.36 1474.56 m 25
 143.36 -53.248 l 25
430.08 1466.37 m 25
 430.08 -61.4404 l 25
286.72 -69.6318 m 25
 286.72 1458.18 l 25
 286.72 -69.6318 l 25
573.44 1470.46 m 25
 573.44 -57.3438 l 25
716.8 1466.37 m 25
 716.8 -61.4404 l 25
860.16 -49.1523 m 25
 860.16 1478.66 l 25
 860.16 -49.1523 l 25
EndSplineSet
Fore
SplineSet
385 604 m 1
 907 604 l 1
 911.398278108 633.321854051 913.647128403 662.484491227 913.647128403 690.761695132 c 0
 913.647128403 836.071628457 854.261928111 958 722 958 c 0
 562 958 432 774 385 604 c 1
357 469 m 1
 353.169796939 439.794701657 351.173400814 410.665811935 351.173400814 382.332787996 c 0
 351.173400814 233.13147142 406.534687076 106 541 106 c 0
 635 106 755 162 815 243 c 0
 936 188 l 0
 839 55 667 -29 512 -29 c 0
 298.55988024 -29 191.839820359 132.038653232 191.839820359 357.054239347 c 0
 191.839820359 413.518824626 198.55988024 474.011976048 212 537 c 0
 279 852 485 1094 751 1094 c 0
 966.677233537 1094 1060.85738365 923.004104813 1060.85738365 719.65863632 c 0
 1060.85738365 669.384702674 1055.10065027 617.133411077 1044 565 c 0
 1039 543 1030 492 1025 469 c 1
 357 469 l 1
EndSplineSet
EndChar

StartChar: f
Encoding: 102 102 125
Width: 716
Flags: HMW
LayerCount: 2
Back
SplineSet
143.36 1474.56 m 25
 143.36 -53.248 l 25
430.08 1466.37 m 25
 430.08 -61.4404 l 25
286.72 -69.6318 m 25
 286.72 1458.18 l 25
 286.72 -69.6318 l 25
573.44 1470.46 m 25
 573.44 -57.3438 l 25
716.8 1466.37 m 25
 716.8 -61.4404 l 25
860.16 -49.1523 m 25
 860.16 1478.66 l 25
 860.16 -49.1523 l 25
EndSplineSet
Fore
SplineSet
615 938 m 0
 416 0 l 1
 264 0 l 1
 463 938 l 0
 324 938 l 1
 353 1073 l 1
 491 1073 l 1
 520 1208 l 0
 556 1376 759 1481 860 1481 c 0
 946 1481 983 1444 1020 1399 c 9
 889 1294 l 17
 873 1323 859 1346 800 1346 c 1
 749 1346 695 1311 682 1249 c 0
 645 1073 l 1
 840 1073 l 1
 811 938 l 1
 615 938 l 0
EndSplineSet
EndChar

StartChar: g
Encoding: 103 103 126
Width: 1021
Flags: HMW
LayerCount: 2
Back
SplineSet
741.376 1062.91 m 21
 892.928 1062.91 l 5
 892.928 -391.168 l 5
 741.376 -391.168 l 5
 741.376 163.84 l 21
 679.936 67.7822 606.208 -30.4961 460.8 -28.6719 c 5
 208.896 -28.6719 88.0645 256 88.0645 538.624 c 4
 88.0645 821.248 204.8 1091.58 462.848 1091.58 c 5
 600.064 1091.58 686.08 995.328 741.376 894.976 c 5
 741.376 1062.91 l 21
241.664 538.624 m 4
 241.664 305.152 329.728 106.496 462.848 106.496 c 5
 602.112 106.496 745.472 278.528 745.472 536.576 c 5
 745.472 827.392 575.488 956.416 462.848 956.416 c 4
 331.776 956.416 241.664 778.24 241.664 538.624 c 4
1003.52 -49.1523 m 25
 1003.52 1478.66 l 25
 1003.52 -49.1523 l 25
143.36 1474.56 m 25
 143.36 -53.248 l 25
430.08 1466.37 m 25
 430.08 -61.4404 l 25
286.72 -69.6318 m 25
 286.72 1458.18 l 25
 286.72 -69.6318 l 25
573.44 1470.46 m 25
 573.44 -57.3438 l 25
716.8 1466.37 m 25
 716.8 -61.4404 l 25
860.16 -49.1523 m 25
 860.16 1478.66 l 25
 860.16 -49.1523 l 25
EndSplineSet
Fore
SplineSet
915 -18 m 1
 857 -291 620 -449 418 -449 c 0
 177.298529925 -449 72.7409875423 -275.725910211 72.7409875423 -135.320455804 c 0
 72.7409875423 -126.396550831 73.1633616447 -117.605423083 74 -109 c 1
 217 -109 l 17
 216.785769245 -112.67252722 216.680187444 -116.3113358 216.680187444 -119.915049821 c 0
 216.680187444 -234.062861281 322.611318433 -313 437 -313 c 0
 562 -313 719 -225 760 -33 c 0
 767 0 l 2
 806 184 l 17
 736 76 638 -29 464 -29 c 0
 248.39451322 -29 166.066345388 137.012099039 166.066345388 342.11034171 c 0
 166.066345388 405.269207414 173.873507825 472.134603707 188 539 c 0
 249 828 422 1102 702 1102 c 0
 874 1102 931 996 955 886 c 1
 995 1073 l 17
 1147 1073 l 1
 919 0 l 1
 915 -18 l 1
342 539 m 0
 329.636646164 480.380649917 323.861762935 427.077514047 323.861762935 379.487700515 c 0
 323.861762935 203.820198797 402.547868409 106 519 106 c 0
 667 106 828 264 886 537 c 0
 897.774633763 592.828004911 903.243611748 643.66918401 903.243611748 689.247433625 c 0
 903.243611748 868.180496285 818.954382812 966 701 966 c 0
 553 966 401 816 342 539 c 0
EndSplineSet
EndChar

StartChar: h
Encoding: 104 104 127
Width: 1064
Flags: HMW
LayerCount: 2
Back
SplineSet
1003.52 -49.1523 m 25
 1003.52 1478.66 l 25
 1003.52 -49.1523 l 25
143.36 1474.56 m 25
 143.36 -53.248 l 25
430.08 1466.37 m 25
 430.08 -61.4404 l 25
286.72 -69.6318 m 25
 286.72 1458.18 l 25
 286.72 -69.6318 l 25
573.44 1470.46 m 25
 573.44 -57.3438 l 25
716.8 1466.37 m 25
 716.8 -61.4404 l 25
860.16 -49.1523 m 25
 860.16 1478.66 l 25
 860.16 -49.1523 l 25
EndSplineSet
Fore
SplineSet
281 0 m 9
 129 0 l 1
 438 1456 l 1
 590 1456 l 1
 471 892 l 17
 530 1004 662 1102 820 1102 c 0
 987.543683037 1102 1097.46959906 998.410610368 1097.46959906 765.317702237 c 0
 1097.46959906 700.685972614 1089.01810424 626.097552569 1071 541 c 2
 956 0 l 1
 805 0 l 0
 920 541 l 1
 933.518888619 603.998020964 940.970133635 663.925668056 940.970133635 717.837846841 c 0
 940.970133635 863.321418347 886.709734338 965 751 965 c 0
 565 965 444 768 396 540 c 0
 281 0 l 9
EndSplineSet
EndChar

StartChar: i
Encoding: 105 105 128
Width: 430
Flags: HMW
LayerCount: 2
Back
SplineSet
143.36 1474.56 m 25
 143.36 -53.248 l 25
430.08 1466.37 m 25
 430.08 -61.4404 l 25
286.72 -69.6318 m 25
 286.72 1458.18 l 25
 286.72 -69.6318 l 25
573.44 1470.46 m 25
 573.44 -57.3438 l 25
716.8 1466.37 m 25
 716.8 -61.4404 l 25
860.16 -49.1523 m 25
 860.16 1478.66 l 25
 860.16 -49.1523 l 25
EndSplineSet
Fore
SplineSet
414 1333 m 0
 425 1384 477 1427 528 1427 c 0
 574.932004874 1427 604.272542486 1393.61376069 604.272542486 1348.55533989 c 0
 604.272542486 1343.67172942 602.809016994 1338.66311896 602 1333 c 0
 591 1282 539 1239 488 1239 c 0
 444 1239 412 1272 412 1314 c 0
 412 1320 413 1327 414 1333 c 0
378 1073 m 1
 529 1073 l 1
 301 0 l 1
 150 0 l 1
 378 1073 l 1
EndSplineSet
EndChar

StartChar: j
Encoding: 106 106 129
Width: 468
Flags: HMW
LayerCount: 2
Back
SplineSet
188.416 114.688 m 4
 188.416 1052.67 l 5
 339.968 1052.67 l 5
 339.968 114.688 l 4
 479.232 114.688 l 5
 479.232 -20.4805 l 5
 339.968 -20.4805 l 5
 340.851 -155.648 l 4
 340.851 -323.584 159.744 -428.032 59.3896 -428.032 c 4
 -26.624 -428.032 -71.6797 -391.168 -118.784 -346.112 c 13
 -10.2402 -241.664 l 21
 12.2881 -270.336 30.7197 -292.863 90.1143 -292.863 c 5
 141.312 -292.863 187.478 -258.048 187.478 -196.608 c 4
 188.416 -20.4805 l 5
 -8.19238 -20.4805 l 5
 -8.19238 114.688 l 5
 188.416 114.688 l 4
143.36 1474.56 m 25
 143.36 -53.248 l 25
430.08 1466.37 m 25
 430.08 -61.4404 l 25
286.72 -69.6318 m 25
 286.72 1458.18 l 25
 286.72 -69.6318 l 25
573.44 1470.46 m 25
 573.44 -57.3438 l 25
716.8 1466.37 m 25
 716.8 -61.4404 l 25
860.16 -49.1523 m 25
 860.16 1478.66 l 25
 860.16 -49.1523 l 25
EndSplineSet
Fore
SplineSet
453 1333 m 0
 464 1384 516 1427 567 1427 c 0
 610.000238208 1427 642.989120183 1395.42572265 642.989120183 1351.87564578 c 0
 642.989120183 1345.79916578 642.3468853 1339.48953826 641 1333 c 0
 630 1282 578 1239 527 1239 c 0
 483.999761792 1239 451.010879817 1270.57427735 451.010879817 1314.12435422 c 0
 451.010879817 1320.20083422 451.6531147 1326.51046174 453 1333 c 0
-193 -346 m 9
 -64 -244 l 1
 -45 -266 -25 -293 24 -293 c 1
 92 -293 134 -254 152 -170 c 0
 188 0 l 1
 416 1073 l 1
 568 1073 l 0
 340 0 l 1
 310 -139 l 0
 263 -360 34 -428 -36 -428 c 1
 -126 -428 -162 -383 -193 -346 c 9
EndSplineSet
EndChar

StartChar: k
Encoding: 107 107 130
Width: 944
Flags: HMW
LayerCount: 2
Back
SplineSet
143.36 1474.56 m 29
 143.36 -53.248 l 29
430.08 1466.37 m 29
 430.08 -61.4404 l 29
286.72 -69.6318 m 29
 286.72 1458.18 l 29
 286.72 -69.6318 l 29
573.44 1470.46 m 29
 573.44 -57.3438 l 29
716.8 1466.37 m 29
 716.8 -61.4404 l 29
860.16 -49.1523 m 29
 860.16 1478.66 l 29
 860.16 -49.1523 l 29
EndSplineSet
Fore
SplineSet
610 616 m 1
 940 0 l 1
 766 0 l 1
 496 512 l 1
 362 379 l 1
 281 0 l 1
 129 0 l 1
 438 1454 l 1
 590 1454 l 1
 405 582 l 17
 918 1073 l 1
 1092 1073 l 1
 610 616 l 1
EndSplineSet
EndChar

StartChar: l
Encoding: 108 108 131
Width: 430
Flags: HMW
LayerCount: 2
Back
SplineSet
143.36 1474.56 m 29
 143.36 -53.248 l 29
430.08 1466.37 m 29
 430.08 -61.4404 l 29
286.72 -69.6318 m 29
 286.72 1458.18 l 29
 286.72 -69.6318 l 29
573.44 1470.46 m 29
 573.44 -57.3438 l 29
716.8 1466.37 m 29
 716.8 -61.4404 l 29
860.16 -49.1523 m 29
 860.16 1478.66 l 29
 860.16 -49.1523 l 29
EndSplineSet
Fore
SplineSet
345 207 m 1
 343 196 342 186 342 177 c 0
 342 124 382 102 442 102 c 1
 414 -29 l 1
 273 -29 185 9 185 134 c 0
 185 155 187 177 193 203 c 1
 459 1454 l 1
 610 1454 l 1
 345 207 l 1
EndSplineSet
EndChar

StartChar: braceleft
Encoding: 123 123 132
Width: 747
Flags: HMW
LayerCount: 2
Fore
SplineSet
245 729 m 1
 533 815 523 1276 603 1401 c 1
 692 1526 822 1526 960 1530 c 1
 932 1395 l 1
 918 1397 903 1399 889 1399 c 0
 836 1399 760 1378 725 1339 c 1
 711 1321 701 1282 691 1237 c 0
 688 1223 684 1208 681 1192 c 0
 655 1071 567 770 458 729 c 1
 499 712 513 636 513 547 c 0
 513.0241712 544.341167947 513.036073215 541.670650955 513.036073215 538.989592903 c 0
 513.036073215 430.751126938 493.637431993 305.332187167 479 238 c 0
 469 195 l 0
 461.681166276 162.065248242 456.873207259 134.152245897 456.873207259 113.558077276 c 0
 456.873207259 111.64137119 456.914854216 109.788061474 457 108 c 0
 456 100 457 93 459 88 c 1
 478 49 545 29 598 29 c 0
 612 29 628 31 642 33 c 1
 613 -102 l 1
 477 -98 346 -98 311 27 c 1
 309 34 308 43 308 53 c 0
 308 147 370 341 370 499 c 0
 370 607 341 698 245 729 c 1
EndSplineSet
EndChar

StartChar: bar
Encoding: 124 124 133
Width: 368
Flags: HMW
LayerCount: 2
Fore
SplineSet
125 0 m 17
 434 1454 l 1
 577 1454 l 1
 268 0 l 9
 125 0 l 17
EndSplineSet
EndChar

StartChar: braceright
Encoding: 125 125 134
Width: 747
Flags: HMW
LayerCount: 2
Fore
SplineSet
833 729 m 1
 546 647 550 158 470 33 c 1
 381 -92 251 -92 113 -96 c 1
 141 39 l 1
 155 37 169 35 183 35 c 0
 236 35 313 55 348 94 c 1
 362 113 373 152 383 201 c 0
 392 244 l 0
 419 371 512 692 620 729 c 1
 576 748 562 826 562 915 c 0
 562 1015 579 1128 593 1192 c 0
 596 1208 600 1223 603 1237 c 0
 610 1269 615 1299 615 1319 c 0
 615 1327 615 1334 613 1339 c 1
 594 1378 526 1399 473 1399 c 0
 459 1399 444 1397 430 1395 c 1
 458 1530 l 1
 594 1526 726 1526 761 1401 c 1
 762 1393 763 1384 763 1373 c 0
 763 1283.7826087 706.986994329 1109.07168242 706.986994329 961.867371743 c 0
 706.986994329 854.503615618 733.469701724 763.53091981 833 729 c 1
EndSplineSet
EndChar

StartChar: asciitilde
Encoding: 126 126 135
Width: 735
Flags: HMW
LayerCount: 2
Fore
SplineSet
225 764 m 17
 279 801 351 860 429 860 c 0
 527 860 559 709 663 709 c 1
 733 709 801 762 872 807 c 9
 841 662 l 17
 770 614 706 563 632 563 c 0
 517 563 478 715 396 715 c 0
 318 715 260 664 194 618 c 9
 225 764 l 17
EndSplineSet
EndChar

StartChar: cent
Encoding: 162 162 137
Width: 808
Flags: HMW
LayerCount: 2
Fore
SplineSet
440 279 m 1
 305 296 208 393 208 556 c 0
 208 587 212 621 220 657 c 0
 266 872 457 963 588 993 c 1
 634 1208 l 1
 769 1208 l 1
 723 993 l 1
 799 973 854 928 898 881 c 9
 855 844 788 786 788 786 c 0
 765 815 723 866 618 866 c 1
 508 866 389 778 362 653 c 0
 357 628 355 604 354 582 c 0
 354 471 420 406 526 406 c 0
 608 406 685 438 758 512 c 9
 829 422 l 1
 774 356 679 305 574 274 c 1
 533 78 l 1
 398 78 l 1
 440 279 l 1
EndSplineSet
EndChar

StartChar: sterling
Encoding: 163 163 138
Width: 1120
Flags: HMW
LayerCount: 2
Fore
SplineSet
438 596 m 1
 211 596 l 1
 239 731 l 1
 477 731 l 1
 577 1200 711 1466 908 1466 c 0
 1051 1466 1142 1376 1172 1169 c 1
 1027 1163 l 1
 1024 1245 985 1333 879 1333 c 0
 813 1333 708 1094 674 934 c 0
 667 903 654 842 647 809 c 0
 641 782 636 758 630 731 c 1
 989 731 l 1
 961 596 l 1
 596 596 l 1
 553 444 456 253 391 135 c 1
 895 135 l 1
 928 137 964 139 1027 207 c 1
 1083 92 l 1
 1021 20 937 12 854 0 c 1
 145 0 l 1
 206 131 379 380 438 596 c 1
EndSplineSet
EndChar

StartChar: currency
Encoding: 164 164 139
Width: 856
Flags: HMW
LayerCount: 2
Fore
SplineSet
422 764 m 0
 419 751 418 738 418 726 c 0
 418 644 478 583 565 583 c 0
 665 583 762 664 783 764 c 0
 786 777 787 790 787 802 c 0
 787 884 729 945 642 945 c 0
 541 945 443 864 422 764 c 0
723 504 m 1
 665 469 599 449 533 449 c 0
 468 449 411 469 367 504 c 1
 340 375 l 1
 143 375 l 1
 184 571 l 1
 311 571 l 1
 291 608 280 651 280 698 c 0
 279.870828693 700.583426132 279.808398293 703.200222717 279.808398293 705.84607925 c 0
 279.808398293 723.683537491 282.645856533 742.841768745 287 762 c 0
 302 831 337 895 385 946 c 1
 264 946 l 1
 306 1143 l 1
 503 1143 l 1
 477 1020 l 1
 535 1055 601 1075 666 1075 c 0
 732 1075 789 1055 833 1020 c 1
 859 1143 l 1
 1056 1143 l 1
 1014 946 l 1
 893 946 l 1
 911 912 920 872 921 828 c 0
 921 807 919 785 914 762 c 0
 899 690 859 625 807 571 c 1
 934 571 l 1
 893 375 l 1
 696 375 l 1
 723 504 l 1
EndSplineSet
EndChar

StartChar: yen
Encoding: 165 165 140
Width: 1110
Flags: HMW
LayerCount: 2
Fore
SplineSet
616 682 m 1
 305 682 l 1
 334 817 l 1
 592 817 l 1
 371 1397 l 1
 526 1397 l 1
 730 831 l 1
 1194 1397 l 1
 1350 1397 l 1
 854 817 l 1
 1102 817 l 1
 1073 682 l 1
 768 682 l 1
 722 467 l 1
 1027 467 l 1
 999 332 l 1
 694 332 l 1
 623 0 l 1
 471 0 l 1
 542 332 l 1
 231 332 l 1
 259 467 l 1
 570 467 l 1
 616 682 l 1
EndSplineSet
EndChar

StartChar: brokenbar
Encoding: 166 166 141
Width: 305
Flags: HMW
LayerCount: 2
Fore
SplineSet
370 645 m 17
 233 0 l 1
 90 0 l 1
 227 645 l 9
 370 645 l 17
257 788 m 17
 395 1434 l 1
 538 1434 l 1
 400 788 l 9
 257 788 l 17
EndSplineSet
EndChar

StartChar: section
Encoding: 167 167 142
Width: 686
Flags: HMW
LayerCount: 2
Fore
SplineSet
390 958 m 1
 410 964 433 967 458 967 c 0
 638 967 790 826 790 622 c 0
 790 593 788 562 781 530 c 0
 734 307 548 104 372 104 c 0
 253 104 166 153 113 291 c 9
 265 301 l 17
 283 264 346 240 385 240 c 2
 389 240 l 2
 487 240 572 328 616 440 c 0
 616 442 l 0
 617 445 615 445 612 445 c 0
 600 445 567 432 549 432 c 0
 374 432 215 540 215 759 c 0
 215 794 219 832 228 872 c 0
 274 1090 445 1294 633 1294 c 0
 769 1294 819 1245 883 1130 c 1
 726 1114 l 0
 708 1141 654 1159 621 1159 c 2
 617 1159 l 2
 510 1159 439 1069 390 958 c 1
630 582 m 0
 633 596 634 611 634 625 c 0
 634 729 558 831 427 831 c 0
 404 831 387 827 369 817 c 1
 366 805 365 793 364 781 c 0
 364 674 463 567 572 567 c 0
 577 567 583 567 590 567 c 0
 608 567 627 569 630 582 c 0
EndSplineSet
EndChar

StartChar: dieresis
Encoding: 168 168 143
Width: 794
Flags: HMW
LayerCount: 2
Fore
SplineSet
905 1685 m 4
 910 1710 924 1732 947 1751 c 4
 970 1770 994 1779 1019 1779 c 4
 1041 1779 1060 1772 1074 1758 c 4
 1088 1744 1094 1725 1095 1704 c 4
 1095 1699 1095 1693 1093 1685 c 4
 1087 1659 1074 1637 1051 1618 c 4
 1028 1599 1004 1590 979 1590 c 4
 957 1590 939 1598 925 1612 c 4
 911 1626 903 1644 903 1666 c 4
 904 1674 904 1680 905 1685 c 4
434 1683 m 4
 439 1708 453 1730 476 1749 c 4
 499 1768 523 1777 548 1777 c 4
 570 1777 588 1770 602 1756 c 4
 616 1742 623 1723 624 1702 c 4
 624 1697 624 1691 622 1683 c 4
 616 1657 602 1635 579 1616 c 4
 556 1597 533 1588 508 1588 c 4
 486 1588 467 1596 453 1610 c 4
 439 1624 432 1642 432 1664 c 4
 432 1668 432 1674 434 1683 c 4
EndSplineSet
EndChar

StartChar: copyright
Encoding: 169 169 144
Width: 942
Flags: HMW
LayerCount: 2
Fore
SplineSet
759 610 m 17
 714 573 652 543 594 543 c 0
 495 543 427 612 427 706 c 0
 427 720 428 735 431 750 c 0
 455 864 568 956 682 956 c 0
 740 956 791 934 820 897 c 9
 724 815 l 17
 708 831 685 844 658 844 c 0
 607 844 555 801 544 750 c 0
 543 743 542 737 542 731 c 0
 542 688 574 655 618 655 c 0
 645 655 679 666 700 682 c 9
 759 610 l 17
317 750 m 0
 312 726 310 704 310 682 c 0
 310 536 415 426 570 426 c 0
 748 426 922 571 960 750 c 0
 965 773 967 796 968 818 c 0
 968 963 862 1073 707 1073 c 0
 529 1073 355 928 317 750 c 0
200 750 m 0
 251 991 491 1188 732 1188 c 0
 943 1188 1087 1039 1087 841 c 0
 1087 811 1084 781 1077 750 c 0
 1026 508 787 311 545 311 c 0
 335 311 191 460 191 658 c 0
 190.875 661.75 190.8125 665.5 190.8125 669.25390625 c 0
 190.8125 695.53125 193.875 722 200 750 c 0
EndSplineSet
EndChar

StartChar: guillemotleft
Encoding: 171 171 145
Width: 872
Flags: HMW
LayerCount: 2
Fore
SplineSet
891 1118 m 1
 1026 1118 l 1
 772 827 l 1
 902 537 l 1
 767 537 l 1
 637 827 l 1
 891 1118 l 1
490 1118 m 1
 625 1118 l 1
 371 827 l 1
 501 537 l 1
 366 537 l 1
 235 827 l 1
 490 1118 l 1
EndSplineSet
EndChar

StartChar: logicalnot
Encoding: 172 172 146
Width: 1026
Flags: HMW
LayerCount: 2
Fore
SplineSet
1036 545 m 1
 900 545 l 1
 943 750 l 0
 313 750 l 1
 344 893 l 1
 1110 893 l 1
 1036 545 l 1
EndSplineSet
EndChar

StartChar: registered
Encoding: 174 174 148
Width: 1189
Flags: HMW
LayerCount: 2
Fore
SplineSet
370 750 m 0
 363 716 359 685 359 656 c 0
 359 451 526 358 678 358 c 0
 856 358 1101 500 1154 750 c 0
 1160.14770564 780.738528216 1164.00405867 809.656036355 1164.00405867 837.703126154 c 0
 1164.00405867 1046.52450879 980.631804704 1143 845 1143 c 0
 667 1143 427 1016 370 750 c 0
253 750 m 0
 328 1102 647 1260 870 1260 c 0
 1110 1260 1283 1097 1284 861 c 0
 1283 825 1279 788 1271 750 c 0
 1206 446 909 242 653 242 c 0
 447 242 240 374 240 632 c 0
 240 669 244 708 253 750 c 0
678 801 m 1
 694 801 711 801 729 801 c 0
 807 801 884 807 897 866 c 1
 898 870 897 874 898 877 c 0
 898 928 811 932 735 932 c 0
 724 932 714 932 706 932 c 1
 678 801 l 1
641 1010 m 0
 723 1010 l 1
 861 1010 979 978 979 890 c 0
 979.267949192 888.124355653 979.392304845 886.176914536 979.392304845 884.15767665 c 0
 979.392304845 878.641016151 978.464101615 872.588457268 977 866 c 0
 956 766 878 750 809 735 c 1
 920 496 l 1
 820 496 l 1
 727 723 l 1
 661 721 l 1
 613 496 l 1
 531 496 l 1
 641 1010 l 0
EndSplineSet
EndChar

StartChar: macron
Encoding: 175 175 149
Width: 950
Flags: HMW
LayerCount: 2
Fore
SplineSet
469 1321 m 5
 1146 1321 l 5
 1123 1215 l 5
 446 1215 l 5
 469 1321 l 5
EndSplineSet
EndChar

StartChar: degree
Encoding: 176 176 150
Width: 598
Flags: HMW
LayerCount: 2
Fore
SplineSet
417 1178 m 0
 414 1166 413 1155 413 1144 c 0
 413 1077 460 1028 530 1028 c 0
 611 1028 687 1094 705 1178 c 0
 707 1189 709 1200 709 1211 c 0
 709 1278 663 1328 593 1328 c 0
 512 1328 435 1261 417 1178 c 0
299 1174 m 0
 329 1317 470 1432 615 1432 c 0
 742 1432 829 1344 829 1227 c 0
 829 1210 827 1192 823 1174 c 0
 792 1030 651 915 505 915 c 0
 379 915 293 1003 293 1120 c 0
 293 1137 295 1155 299 1174 c 0
EndSplineSet
EndChar

StartChar: acute
Encoding: 180 180 152
Width: 550
Flags: HMW
LayerCount: 2
Fore
SplineSet
432 1676 m 2
 766 1926 l 1
 785 1939 801 1944 818 1944 c 0
 824 1944 830 1944 836 1942 c 0
 852 1938 863 1928 870 1914 c 1
 875.61249695 1904.87969246 878.764046867 1894.28281669 878.764046867 1882.8999756 c 0
 878.764046867 1878.05782279 878.193751525 1873.07344398 877 1868 c 0
 876 1861 872 1856 870 1851 c 0
 863 1836 852 1822 835 1810 c 1
 483 1591 l 2
 474 1585 464 1582 455 1582 c 0
 451 1582 447 1583 442 1584 c 0
 430 1587 420 1594 414 1604 c 1
 409.607695155 1612.05255888 406.823085464 1620.10511777 406.823085464 1628.94228634 c 0
 406.823085464 1632.17691454 407.196152423 1635.5166605 408 1639 c 0
 409 1644 411 1649 413 1653 c 0
 417 1661 424 1669 432 1676 c 2
EndSplineSet
EndChar

StartChar: uni00B5
Encoding: 181 181 153
Width: 1003
Flags: HMW
LayerCount: 2
Fore
SplineSet
313 74 m 1
 213 -395 l 1
 70 -395 l 1
 339 872 l 1
 484 872 l 0
 387 414 l 0
 376 363 371 319 371 282 c 0
 371 159 428 111 520 111 c 1
 679 111 789 291 815 414 c 0
 912 872 l 9
 1055 872 l 1
 870 0 l 1
 727 0 l 1
 748 98 l 17
 673 25 580 -27 500 -27 c 0
 377 -27 348 29 313 74 c 1
EndSplineSet
EndChar

StartChar: paragraph
Encoding: 182 182 154
Width: 1150
Flags: HMW
LayerCount: 2
Fore
SplineSet
913 1260 m 1
 804 748 l 1
 839 748 982 739 1019 739 c 1
 1132 1272 l 1
 1097 1272 950 1260 913 1260 c 1
763 1227 m 1
 649 1192 505 1135 475 995 c 1
 471 977 470 961 470 946 c 0
 470 831 574 799 667 774 c 1
 763 1227 l 1
674 135 m 1
 891 135 l 1
 992 612 l 1
 955 612 814 623 777 623 c 1
 674 135 l 1
502 0 m 1
 639 643 l 1
 459 684 324 745 323 912 c 0
 324 938 326 965 332 995 c 0
 390 1266 754 1397 1114 1397 c 1
 1311 1397 l 0
 1014 0 l 1
 502 0 l 1
EndSplineSet
EndChar

StartChar: cedilla
Encoding: 184 184 156
Width: 473
Flags: HMW
LayerCount: 2
Fore
SplineSet
77 -190 m 1
 112 -168 185 -123 193 -86 c 0
 194.152640756 -80.2367962196 194.044480477 -74.6204229159 194.044480477 -68.6822760089 c 0
 194.044480477 -43.5574107704 178.434239649 -19.8387024371 160 18 c 0
 301 74 l 0
 329 40 351 -6 352 -60 c 0
 351 -72 351 -85 348 -98 c 0
 324 -209 172 -270 93 -315 c 1
 77 -190 l 1
EndSplineSet
EndChar

StartChar: guillemotright
Encoding: 187 187 157
Width: 933
Flags: HMW
LayerCount: 2
Fore
SplineSet
471 1118 m 1
 602 827 l 1
 347 537 l 1
 212 537 l 1
 467 827 l 1
 336 1118 l 1
 471 1118 l 1
873 1118 m 1
 1003 827 l 1
 749 537 l 1
 614 537 l 1
 868 827 l 1
 738 1118 l 1
 873 1118 l 1
EndSplineSet
EndChar

StartChar: AE
Encoding: 198 198 165
Width: 1388
Flags: HMW
LayerCount: 2
Fore
SplineSet
922 645 m 1
 658 645 l 0
 262 0 l 0
 83 0 l 1
 983 1456 l 1
 1692 1456 l 1
 1661 1307 l 0
 1219 1307 l 0
 1108 788 l 1
 1550 788 l 1
 1519 641 l 0
 1077 641 l 0
 972 147 l 0
 1414 147 l 1
 1383 0 l 1
 785 0 l 1
 922 645 l 1
1046 1237 m 1
 1062 1311 l 1
 748 788 l 1
 952 788 l 1
 1046 1237 l 1
EndSplineSet
EndChar

StartChar: Eth
Encoding: 208 208 175
Width: 1378
Flags: HMW
LayerCount: 2
Fore
SplineSet
467 662 m 1
 285 662 l 1
 315 803 l 1
 497 803 l 1
 635 1456 l 1
 1016 1456 l 1
 1319 1456 1488 1235 1488 928 c 0
 1487 864 1480 796 1465 726 c 1
 1378 319 1067 0 707 0 c 0
 481 0 l 1
 326 0 l 1
 467 662 l 1
624 662 m 1
 513 143 l 1
 737 143 l 1
 994 143 1234 379 1308 726 c 1
 1321 789 1328 848 1328 903 c 0
 1328 1152 1197 1312 986 1312 c 1
 762 1312 l 1
 654 803 l 1
 954 803 l 1
 924 662 l 1
 624 662 l 1
EndSplineSet
EndChar

StartChar: figuredash
Encoding: 8210 8210 185
Width: 1087
Flags: HMW
LayerCount: 2
Fore
SplineSet
314 676 m 1
 1082 676 l 1
 1053 541 l 1
 285 541 l 1
 314 676 l 1
EndSplineSet
EndChar

StartChar: endash
Encoding: 8211 8211 186
Width: 1001
Flags: HMW
LayerCount: 2
Fore
SplineSet
314 676 m 1
 1000 676 l 1
 971 541 l 1
 285 541 l 1
 314 676 l 1
EndSplineSet
EndChar

StartChar: emdash
Encoding: 8212 8212 187
Width: 1290
Flags: HMW
LayerCount: 2
Fore
SplineSet
294 676 m 1
 1303 676 l 1
 1274 541 l 1
 265 541 l 1
 294 676 l 1
EndSplineSet
EndChar

StartChar: dcaron
Encoding: 271 271 205
Width: 1208
Flags: HMW
LayerCount: 2
Fore
SplineSet
1482 1428 m 0
 1477 1405 1469 1380 1460 1357 c 0
 1451 1334 1440 1312 1427 1291 c 0
 1414 1270 1404 1255 1395 1242 c 0
 1386 1229 1375 1215 1363 1199 c 0
 1343 1176 l 0
 1309 1200 l 0
 1355 1255 1380 1303 1389 1343 c 0
 1371 1343 1357 1349 1346 1362 c 0
 1335 1375 1330 1390 1330 1410 c 0
 1330 1415 1331 1422 1332 1428 c 0
 1337 1452 1348 1472 1367 1489 c 0
 1386 1506 1405 1514 1426 1514 c 0
 1444 1514 1459 1507 1470 1494 c 0
 1478.19803903 1484.16235317 1485.05192118 1468.94807882 1485.05192118 1452.21398466 c 0
 1485.05192118 1448.53576545 1484.72078439 1444.78411804 1484 1441 c 0
 1483 1437 1483 1433 1482 1428 c 0
EndSplineSet
Refer: 123 100 N 1 0 0 1 0 0 2
EndChar

StartChar: Dcroat
Encoding: 272 272 206
Width: 1378
Flags: HMW
LayerCount: 2
Fore
SplineSet
429 662 m 1
 247 662 l 1
 277 803 l 1
 459 803 l 1
 597 1456 l 1
 977 1456 l 2
 1125 1456 1241 1407 1324 1310 c 0
 1407 1213 1449 1085 1449 928 c 0
 1448 863 1442 795 1427 726 c 0
 1398 591 1347 468 1274 358 c 0
 1201 248 1111 160 1004 96 c 0
 897 32 785 0 668 0 c 2
 442 0 l 1
 288 0 l 1
 429 662 l 1
586 662 m 1
 475 143 l 1
 698 143 l 2
 827 143 947 198 1054 306 c 0
 1161 414 1233 554 1270 726 c 0
 1283 789 1290 848 1290 903 c 0
 1290 1028 1258 1127 1197 1201 c 0
 1136 1275 1052 1312 947 1312 c 2
 724 1312 l 1
 616 803 l 1
 915 803 l 1
 885 662 l 1
 586 662 l 1
EndSplineSet
EndChar

StartChar: dcroat
Encoding: 273 273 207
Width: 1044
Flags: HMW
LayerCount: 2
Fore
SplineSet
397 539 m 0
 384.35483871 478.935483871 378.032258065 424.37773153 378.032258065 375.418851331 c 0
 378.032258065 315.968782518 387.35483871 264.774193548 406 222 c 0
 440 144 497 106 574 106 c 0
 651 106 724 144 794 222 c 0
 864 300 913 405 941 537 c 0
 953.167385453 594.7950809 959.292106875 647.113997523 959.292106875 694.120864649 c 0
 959.292106875 755.287794158 948.921669223 807.460309995 928 851 c 0
 891 928 833 966 756 966 c 0
 679 966 606 928 539 852 c 0
 472 776 425 672 397 539 c 0
1131 1454 m 1
 1283 1454 l 1
 1255 1321 l 1
 1387 1321 l 1
 1357 1179 l 1
 1225 1179 l 1
 974 0 l 1
 822 0 l 1
 861 184 l 1
 842 154 821 127 801 104 c 0
 781 81 757 59 730 38 c 0
 703 17 670 0 634 -12 c 0
 598 -24 560 -29 518 -29 c 0
 463 -29 417 -18 376 3 c 0
 335 24 304 53 282 89 c 0
 260 125 244 167 233 216 c 0
 224.081802664 255.726515407 220.422067723 296.767646413 220.422067723 339.656302169 c 0
 220.422067723 349.667935062 220.621490425 359.780241469 221 370 c 0
 223 424 230 480 243 539 c 0
 259 614 281 684 310 750 c 0
 339 816 375 874 417 928 c 0
 459 982 509 1025 568 1056 c 0
 627 1087 690 1102 757 1102 c 0
 798 1102 835 1096 865 1084 c 0
 895 1072 922 1056 940 1034 c 0
 958 1012 973 990 984 966 c 0
 995 942 1003 916 1010 886 c 1
 1073 1179 l 1
 826 1179 l 1
 856 1321 l 1
 1103 1321 l 1
 1131 1454 l 1
EndSplineSet
EndChar

StartChar: Lcaron
Encoding: 317 317 214
Width: 1105
Flags: HMW
LayerCount: 2
Fore
SplineSet
792 1428 m 0
 787 1405 779 1380 770 1357 c 0
 761 1334 750 1312 737 1291 c 0
 724 1270 714 1255 705 1242 c 0
 696 1229 685 1215 673 1199 c 0
 653 1176 l 0
 619 1200 l 0
 665 1255 690 1303 699 1343 c 0
 681 1343 667 1349 656 1362 c 0
 645 1375 640 1390 640 1410 c 0
 640 1415 641 1422 642 1428 c 0
 647 1452 658 1472 677 1489 c 0
 696 1506 715 1514 736 1514 c 0
 754 1514 769 1507 780 1494 c 0
 788.198039027 1484.16235317 795.051921177 1468.94807882 795.051921177 1452.21398466 c 0
 795.051921177 1448.53576545 794.720784389 1444.78411804 794 1441 c 0
 793 1437 793 1433 792 1428 c 0
EndSplineSet
Refer: 99 76 N 1 0 0 1 0 0 2
EndChar

StartChar: lcaron
Encoding: 318 318 215
Width: 536
Flags: HMW
LayerCount: 2
Fore
SplineSet
792 1428 m 0
 787 1405 779 1380 770 1357 c 0
 761 1334 750 1312 737 1291 c 0
 724 1270 714 1255 705 1242 c 0
 696 1229 685 1215 673 1199 c 0
 653 1176 l 0
 619 1200 l 0
 665 1255 690 1303 699 1343 c 0
 681 1343 667 1349 656 1362 c 0
 645 1375 640 1390 640 1410 c 0
 640 1415 641 1422 642 1428 c 0
 647 1452 658 1472 677 1489 c 0
 696 1506 715 1514 736 1514 c 0
 754 1514 769 1507 780 1494 c 0
 788.198039027 1484.16235317 795.051921177 1468.94807882 795.051921177 1452.21398466 c 0
 795.051921177 1448.53576545 794.720784389 1444.78411804 794 1441 c 0
 793 1437 793 1433 792 1428 c 0
EndSplineSet
Refer: 131 108 N 1 0 0 1 0 0 2
EndChar

StartChar: Lslash
Encoding: 321 321 216
Width: 1105
Flags: HMW
LayerCount: 2
Fore
SplineSet
125 510 m 1
 169 712 l 1
 294 816 l 1
 430 1456 l 1
 588 1456 l 1
 486 976 l 1
 638 1102 l 1
 595 894 l 1
 442 769 l 1
 309 141 l 1
 1074 141 l 1
 1044 0 l 1
 121 0 l 1
 251 613 l 1
 125 510 l 1
EndSplineSet
EndChar

StartChar: Scedilla
Encoding: 350 350 228
Width: 1079
Flags: HMW
LayerCount: 2
Fore
SplineSet
115 327 m 1
 291 358 l 1
 293 300 319 245 371 192 c 0
 423 139 486 113 563 113 c 0
 657 113 742 137 819 185 c 0
 896 233 944 295 960 371 c 0
 963.406586177 386.329637796 965.201390495 401.659275593 965.201390495 416.622868469 c 0
 965.201390495 428.014562849 964.161178186 439.194109071 962 450 c 0
 957 475 951 498 940 517 c 0
 929 536 914 555 894 574 c 0
 874 593 855 609 838 622 c 0
 821 635 799 649 772 663 c 0
 745 677 722 688 706 696 c 0
 690 704 670 712 644 723 c 0
 618 734 600 741 592 745 c 0
 569 755 550 764 534 772 c 0
 518 780 500 792 479 806 c 0
 458 820 441 832 427 846 c 0
 413 860 400 878 386 898 c 0
 372 918 362 940 356 962 c 0
 350 984 346 1010 345 1040 c 0
 344.897915762 1043.06252715 344.847937482 1046.14589668 344.847937482 1049.2501086 c 0
 344.847937482 1076.55423364 348.714589668 1105.4708641 355 1136 c 0
 378 1245 438 1333 533 1398 c 0
 628 1463 736 1495 857 1495 c 0
 972 1495 1063 1467 1132 1410 c 0
 1201 1353 1239 1281 1248 1194 c 1
 1090 1169 l 1
 1085 1217 1059 1260 1011 1298 c 0
 963 1336 902 1354 827 1354 c 0
 750 1354 683 1333 625 1292 c 0
 567 1251 530 1199 517 1136 c 0
 513.291713066 1118.20022272 511.23359317 1101.50055679 511.23359317 1085.49304937 c 0
 511.23359317 1079.91713066 511.483314774 1074.42519488 512 1069 c 0
 514 1048 518 1030 524 1015 c 0
 530 1000 539 984 553 970 c 0
 567 956 580 944 593 934 c 0
 606 924 622 915 644 904 c 0
 666 893 684 884 700 877 c 0
 716 870 737 861 763 850 c 0
 789 839 807 831 823 824 c 0
 848 813 869 802 888 792 c 0
 907 782 929 768 954 752 c 0
 979 736 1000 719 1017 702 c 0
 1034 685 1051 664 1068 640 c 0
 1085 616 1098 591 1106 565 c 0
 1114 539 1119 509 1121 475 c 0
 1121.4 468.2 1121.6 461.32 1121.6 454.368 c 0
 1121.6 426.56 1118.4 397.6 1112 368 c 0
 1094 281 1056 207 997 146 c 0
 938 85 870 41 791 13 c 0
 712 -15 626 -29 533 -29 c 0
 406 -29 309 4 241 69 c 0
 173 134 131 220 115 327 c 1
323 -294 m 1
 338 -284 349 -276 356 -272 c 0
 363 -268 374 -260 389 -249 c 0
 404 -238 416 -228 424 -218 c 0
 432 -208 437 -199 439 -190 c 0
 440 -187 440 -182 440 -175 c 0
 440 -164 437 -150 430 -135 c 0
 423 -120 415 -103 406 -86 c 1
 547 -30 l 1
 581 -71 597 -116 598 -164 c 1
 598 -180 596 -193 594 -202 c 0
 590 -223 581 -243 568 -262 c 0
 555 -281 537 -298 515 -314 c 0
 493 -330 474 -344 458 -354 c 0
 442 -364 420 -376 392 -391 c 0
 364 -406 347 -415 339 -419 c 1
 323 -294 l 1
EndSplineSet
Substitution2: "Tuffy-Regular-'locl' Localized Forms in Latin lookup 2-1" Scommaaccent
EndChar

StartChar: scedilla
Encoding: 351 351 229
Width: 921
Flags: HMW
LayerCount: 2
Fore
SplineSet
563 477 m 0
 526 490 494 502 469 513 c 0
 444 524 418 539 388 558 c 0
 358 577 336 598 320 620 c 0
 304 642 291 668 284 701 c 0
 280.848841047 715.855463636 279.318874379 731.318874379 279.318874379 747.390232229 c 0
 279.318874379 767.019867768 281.601324518 787.556457024 286 809 c 0
 305 900 353 971 431 1021 c 0
 509 1071 596 1097 695 1098 c 1
 749 1098 796 1091 837 1076 c 0
 878 1061 908 1041 930 1016 c 0
 952 991 970 968 981 944 c 0
 992 920 998 896 1001 871 c 1
 849 841 l 1
 830 922 770 963 669 963 c 0
 616 963 566 950 521 924 c 0
 476 898 450 860 440 813 c 0
 437.387059395 800.457885097 435.866512167 788.461966883 435.866512167 777.012245357 c 0
 435.866512167 766.552319367 437.135528726 756.548237581 440 747 c 0
 446 727 455 711 467 699 c 0
 479 687 493 676 509 666 c 0
 525 656 539 648 555 643 c 0
 571 638 585 633 597 627 c 1
 604 624 618 620 637 612 c 0
 656 604 672 598 682 594 c 0
 692 590 707 584 726 575 c 0
 745 566 760 559 771 552 c 0
 782 545 796 536 812 525 c 0
 828 514 839 503 848 492 c 0
 857 481 864 468 874 453 c 0
 884 438 890 422 894 406 c 0
 898 390 900 372 901 352 c 0
 901.104356076 349.912878475 901.154261199 347.803976568 901.154261199 345.674430738 c 0
 901.154261199 327.397442454 897.478219619 307.599810246 893 287 c 0
 874 196 822 120 737 60 c 0
 652 0 561 -29 460 -29 c 0
 359 -29 280 -7 228 38 c 0
 176 83 143 142 134 217 c 1
 288 245 l 1
 298 200 318 166 348 142 c 0
 378 118 424 106 485 106 c 0
 552 106 607 122 653 154 c 0
 699 186 727 230 739 287 c 0
 741.696938457 299.136223055 743.18163074 310.666323024 743.18163074 321.590299906 c 0
 743.18163074 334.969384567 740.954592315 347.439284598 736 359 c 0
 727 380 714 399 693 414 c 0
 672 429 653 441 634 450 c 0
 615 459 591 468 563 477 c 0
270 -294 m 1
 285 -284 295 -276 302 -272 c 0
 309 -268 320 -260 335 -249 c 0
 350 -238 362 -228 370 -218 c 0
 378 -208 384 -199 386 -190 c 0
 387 -187 387 -182 387 -175 c 0
 387 -164 384 -150 377 -135 c 0
 370 -120 361 -103 352 -86 c 1
 494 -30 l 1
 528 -71 544 -116 545 -164 c 1
 545 -180 543 -193 541 -202 c 0
 537 -223 527 -243 514 -262 c 0
 501 -281 483 -298 461 -314 c 0
 439 -330 421 -344 405 -354 c 0
 389 -364 367 -376 339 -391 c 0
 311 -406 293 -415 285 -419 c 1
 270 -294 l 1
EndSplineSet
Substitution2: "Tuffy-Regular-'locl' Localized Forms in Latin lookup 2-1" scommaaccent
EndChar

StartChar: Tcommaaccent
Encoding: 354 354 231
Width: 1243
Flags: HMW
LayerCount: 2
Fore
SplineSet
718 -153 m 5
 685 -310 558 -433 529 -468 c 5
 479 -437 l 5
 506 -407 574 -331 589 -259 c 4
 537 -259 502 -224 502 -175 c 4
 501 -168 502 -160 503 -153 c 4
 516 -93 575 -45 634 -45 c 4
 686 -45 721 -82 721 -130 c 4
 721 -138 720 -145 718 -153 c 5
EndSplineSet
Refer: 107 84 N 1 0 0 1 0 0 2
Substitution2: "Tuffy-Regular-'locl' Localized Forms in Latin lookup 2-1" uni021A
EndChar

StartChar: tcommaaccent
Encoding: 355 355 232
Width: 696
Flags: HMW
LayerCount: 2
Fore
SplineSet
425 -167 m 5
 392 -324 264 -447 235 -482 c 5
 185 -451 l 5
 212 -421 280 -345 295 -273 c 4
 243 -273 208 -238 208 -189 c 4
 207 -182 209 -174 210 -167 c 4
 223 -107 281 -59 340 -59 c 4
 392 -59 427 -96 427 -144 c 4
 427 -152 427 -159 425 -167 c 5
EndSplineSet
Refer: 40 116 N 1 0 0 1 0 0 2
Substitution2: "Tuffy-Regular-'locl' Localized Forms in Latin lookup 2-1" uni021B
EndChar

StartChar: tcaron
Encoding: 357 357 234
Width: 752
Flags: HMW
LayerCount: 2
Fore
SplineSet
1008 1428 m 0
 1003 1405 995 1380 986 1357 c 0
 977 1334 966 1312 953 1291 c 0
 940 1270 930 1255 921 1242 c 0
 912 1229 901 1215 889 1199 c 0
 869 1176 l 0
 835 1200 l 0
 881 1255 906 1303 915 1343 c 0
 897 1343 883 1349 872 1362 c 0
 861 1375 856 1390 856 1410 c 0
 856 1415 857 1422 858 1428 c 0
 863 1452 874 1472 893 1489 c 0
 912 1506 931 1514 952 1514 c 0
 970 1514 985 1507 996 1494 c 0
 1004.19803903 1484.16235317 1011.05192118 1468.94807882 1011.05192118 1452.21398466 c 0
 1011.05192118 1448.53576545 1010.72078439 1444.78411804 1010 1441 c 0
 1009 1437 1009 1433 1008 1428 c 0
EndSplineSet
Refer: 40 116 N 1 0 0 1 0 0 2
EndChar

StartChar: caron
Encoding: 711 711 243
Width: 1062
Flags: HMW
LayerCount: 2
Fore
SplineSet
1267 1858 m 1
 914 1514 l 1
 783 1514 l 1
 579 1856 l 1
 765 1856 l 1
 878 1645 l 1
 1079 1858 l 1
 1267 1858 l 1
EndSplineSet
EndChar

StartChar: dotaccent
Encoding: 729 729 244
Width: 420
Flags: HMW
LayerCount: 2
Fore
SplineSet
434 1683 m 0
 439 1708 453 1730 476 1749 c 0
 499 1768 523 1777 548 1777 c 0
 570 1777 588 1770 602 1756 c 0
 616 1742 623 1723 624 1702 c 0
 624 1697 624 1691 622 1683 c 0
 616 1657 602 1635 579 1616 c 0
 556 1597 533 1588 508 1588 c 0
 486 1588 467 1596 453 1610 c 0
 439 1624 432 1642 432 1664 c 0
 432 1668 432 1674 434 1683 c 0
EndSplineSet
EndChar

StartChar: hungarumlaut
Encoding: 733 733 245
Width: 1329
Flags: HMW
LayerCount: 2
Fore
SplineSet
1133 1595 m 2
 1406 1909 l 1
 1427 1931 1449 1942 1473 1942 c 0
 1490 1942 1504 1936 1515 1925 c 1
 1528 1914 1535 1900 1535 1881 c 0
 1535 1876 1534 1872 1533 1868 c 0
 1530 1852 1521 1836 1507 1821 c 1
 1207 1531 l 2
 1196 1520 1182 1514 1167 1514 c 0
 1154 1514 1143 1518 1133 1525 c 1
 1123 1534 1118 1546 1118 1559 c 0
 1118 1562 1119 1566 1120 1569 c 0
 1122 1578 1126 1586 1133 1595 c 2
789 1595 m 2
 1062 1909 l 1
 1083 1931 1105 1942 1129 1942 c 0
 1146 1942 1160 1936 1171 1925 c 1
 1184 1914 1191 1900 1191 1881 c 0
 1191 1876 1190 1872 1189 1868 c 0
 1186 1852 1177 1836 1163 1821 c 1
 863 1531 l 2
 852 1520 838 1514 823 1514 c 0
 810 1514 799 1518 789 1525 c 1
 779 1534 774 1546 774 1559 c 0
 774 1562 775 1566 776 1569 c 0
 778 1578 782 1586 789 1595 c 2
EndSplineSet
EndChar

StartChar: lslash
Encoding: 322 322 249
Width: 472
Flags: HMW
LayerCount: 2
Fore
SplineSet
125 510 m 1
 169 712 l 1
 301 821 l 1
 435 1454 l 1
 586 1454 l 1
 484 974 l 1
 638 1102 l 1
 595 894 l 1
 440 767 l 1
 321 207 l 2
 319 196 318 186 318 177 c 0
 318 127 351 102 418 102 c 1
 390 -29 l 1
 315 -29 259 -17 220 8 c 0
 181 33 161 75 161 134 c 0
 161 159 165 182 169 203 c 2
 257 618 l 1
 125 510 l 1
EndSplineSet
EndChar

StartChar: ogonek
Encoding: 731 731 251
Width: 473
Flags: HMW
LayerCount: 2
Fore
SplineSet
329 -190 m 1
 259 -315 l 1
 253 -311 240 -302 218 -287 c 0
 196 -272 180 -260 168 -250 c 0
 156 -240 143 -226 127 -210 c 0
 111 -194 101 -177 96 -158 c 0
 93.6376261583 -149.022979401 92.6146467569 -139.822726396 92.6146467569 -130.399240984 c 0
 92.6146467569 -119.877776859 93.8898990734 -109.078029865 96 -98 c 0
 98 -89 102 -76 108 -60 c 1
 129 -12 165 33 217 74 c 1
 334 18 l 1
 317 1 301 -16 288 -31 c 0
 275 -46 266 -60 262 -71 c 0
 260 -78 258 -83 257 -86 c 0
 255 -95 256 -104 260 -114 c 0
 264 -124 270 -134 281 -145 c 0
 292 -156 299 -164 304 -168 c 0
 309 -172 318 -180 329 -190 c 1
EndSplineSet
EndChar

StartChar: ring
Encoding: 730 730 253
Width: 1036
Flags: HMW
LayerCount: 2
Fore
SplineSet
754 1721 m 0
 752 1710 750 1701 750 1691 c 0
 750 1660 760 1636 779 1616 c 0
 798 1596 824 1587 855 1587 c 0
 892 1587 925 1600 956 1626 c 0
 987 1652 1006 1683 1014 1721 c 0
 1016 1731 1017 1741 1017 1751 c 0
 1017 1782 1007 1807 988 1827 c 0
 969 1847 944 1856 913 1856 c 0
 876 1856 843 1843 812 1817 c 0
 781 1791 762 1758 754 1721 c 0
647 1718 m 0
 661 1782 695 1837 751 1882 c 0
 807 1927 867 1950 932 1950 c 0
 988 1950 1034 1933 1070 1898 c 0
 1106 1863 1124 1819 1124 1766 c 0
 1124 1753 1123 1737 1119 1718 c 0
 1105 1653 1071 1598 1015 1553 c 0
 959 1508 899 1485 834 1485 c 0
 778 1485 732 1502 696 1537 c 0
 660 1572 643 1616 643 1669 c 0
 642.763932023 1672.77708764 642.639320225 1676.55417528 642.639320225 1680.34441854 c 0
 642.639320225 1692.60990337 643.94427191 1705.01315562 647 1718 c 0
EndSplineSet
EndChar

StartChar: circumflex
Encoding: 710 710 254
Width: 1046
Flags: HMW
LayerCount: 2
Fore
SplineSet
1196 1514 m 1
 1008 1514 l 1
 897 1727 l 1
 694 1516 l 1
 508 1516 l 1
 858 1858 l 1
 989 1858 l 1
 1196 1514 l 1
EndSplineSet
EndChar

StartChar: guilsinglleft
Encoding: 8249 8249 255
Width: 512
VWidth: 2050
Flags: HMW
LayerCount: 2
Fore
SplineSet
455 906 m 1
 591 906 l 1
 336 615 l 1
 467 324 l 1
 331 324 l 1
 201 615 l 1
 455 906 l 1
EndSplineSet
EndChar

StartChar: guilsinglright
Encoding: 8250 8250 256
Width: 574
VWidth: 2050
Flags: HMW
LayerCount: 2
Fore
SplineSet
437 906 m 1
 568 615 l 1
 313 324 l 1
 178 324 l 1
 432 615 l 1
 302 906 l 1
 437 906 l 1
EndSplineSet
EndChar

StartChar: ordmasculine
Encoding: 186 186 257
Width: 672
Flags: HMW
LayerCount: 2
Fore
SplineSet
500 1583 m 0
 497 1571 496 1560 496 1549 c 0
 496 1515 508 1488 529 1466 c 0
 550 1444 578 1433 613 1433 c 0
 654 1433 690 1447 724 1476 c 0
 758 1505 779 1541 788 1583 c 0
 790 1594 792 1605 792 1616 c 0
 792 1650 781 1678 760 1700 c 0
 739 1722 711 1733 676 1733 c 0
 635 1733 599 1718 565 1689 c 0
 531 1660 509 1624 500 1583 c 0
382 1579 m 0
 397 1650 435 1712 497 1762 c 0
 559 1812 625 1837 698 1837 c 0
 761 1837 812 1818 852 1779 c 0
 892 1740 912 1691 912 1632 c 0
 912 1618 910 1600 906 1579 c 0
 891 1507 853 1446 791 1396 c 0
 729 1346 662 1320 589 1320 c 0
 526 1320 475 1339 435 1378 c 0
 395 1417 376 1466 376 1525 c 0
 376 1542 378 1560 382 1579 c 0
EndSplineSet
EndChar

StartChar: ellipsis
Encoding: 8230 8230 258
Width: 1767
Flags: HMW
LayerCount: 2
Fore
SplineSet
1380 0 m 0
 1350 0 1328 11 1311 32 c 0
 1298.58027038 47.3420189387 1292.56537193 65.3527175273 1292.56537193 85.2522303613 c 0
 1292.56537193 92.5909689715 1293.38343398 100.186597582 1295 108 c 0
 1301 134 1313 157 1333 176 c 0
 1353 195 1377 208 1402 213 c 0
 1407 214 1416 215 1426 215 c 0
 1455 215 1478 205 1495 184 c 0
 1507.11091055 169.039463438 1512.62402177 151.54131175 1512.62402177 132.228670341 c 0
 1512.62402177 124.432292771 1511.72556098 116.340211415 1510 108 c 0
 1504 82 1492 59 1472 40 c 0
 1454 23 1432 11 1403 3 c 0
 1396 1 1388 0 1380 0 c 0
200 0 m 0
 170 0 148 11 131 32 c 0
 118.580270383 47.3420189387 112.565371926 65.3527175273 112.565371926 85.2522303613 c 0
 112.565371926 92.5909689715 113.383433982 100.186597582 115 108 c 0
 121 134 133 157 153 176 c 0
 173 195 197 208 222 213 c 0
 227 214 236 215 246 215 c 0
 275 215 298 205 315 184 c 0
 327.11091055 169.039463438 332.624021769 151.54131175 332.624021769 132.228670341 c 0
 332.624021769 124.432292771 331.725560982 116.340211415 330 108 c 0
 324 82 312 59 292 40 c 0
 274 23 252 11 223 3 c 0
 216 1 208 0 200 0 c 0
792 0 m 0
 762 0 740 11 723 32 c 0
 710.580270383 47.3420189387 704.565371926 65.3527175273 704.565371926 85.2522303613 c 0
 704.565371926 92.5909689715 705.383433982 100.186597582 707 108 c 0
 713 134 726 157 746 176 c 0
 766 195 790 207 815 212 c 0
 820 213 827 214 837 214 c 0
 866 214 890 204 907 183 c 0
 919.11091055 168.039463438 924.624021769 151.048834775 924.624021769 132.02811401 c 0
 924.624021769 124.349582752 923.725560982 116.340211415 922 108 c 0
 916 82 905 59 885 40 c 0
 867 23 843 10 814 2 c 0
 807 0 800 0 792 0 c 0
EndSplineSet
EndChar

StartChar: dagger
Encoding: 8224 8224 259
Width: 944
Flags: HMW
LayerCount: 2
Fore
SplineSet
741 885 m 1
 553 0 l 1
 410 0 l 1
 598 885 l 1
 322 885 l 1
 352 1027 l 1
 628 1027 l 1
 719 1454 l 1
 862 1454 l 1
 771 1027 l 1
 1028 1027 l 1
 998 885 l 1
 741 885 l 1
EndSplineSet
EndChar

StartChar: daggerdbl
Encoding: 8225 8225 260
Width: 944
Flags: HMW
LayerCount: 2
Fore
SplineSet
767 1007 m 1
 663 516 l 1
 920 516 l 1
 889 374 l 1
 632 374 l 1
 553 0 l 1
 410 0 l 1
 489 374 l 1
 213 374 l 1
 244 516 l 1
 520 516 l 1
 624 1007 l 1
 348 1007 l 1
 378 1149 l 1
 654 1149 l 1
 719 1454 l 1
 862 1454 l 1
 797 1149 l 1
 1054 1149 l 1
 1024 1007 l 1
 767 1007 l 1
EndSplineSet
EndChar

StartChar: bullet
Encoding: 8226 8226 261
Width: 639
VWidth: 2050
Flags: HMW
LayerCount: 2
Fore
SplineSet
190 615 m 0
 209 704 261 774 346 826 c 0
 398 857 452 873 508 873 c 0
 600 873 663 837 699 763 c 0
 713 734 720 702 720 668 c 0
 720 650 719 633 715 615 c 0
 696 526 645 456 560 404 c 0
 508 373 454 357 398 357 c 0
 306 357 242 393 206 467 c 0
 192 496 185 528 185 562 c 0
 185 580 186 597 190 615 c 0
EndSplineSet
EndChar

StartChar: tilde
Encoding: 732 732 262
Width: 735
Flags: HMW
LayerCount: 2
Fore
SplineSet
225 764 m 1
 245 777 266 792 285 806 c 0
 304 820 327 833 353 844 c 0
 379 855 405 860 429 860 c 0
 447 860 463 854 480 844 c 0
 497 834 511 821 524 806 c 0
 537 791 550 777 563 762 c 0
 576 747 591 734 608 724 c 0
 625 714 644 709 663 709 c 0
 684 709 707 714 732 724 c 0
 757 734 781 748 802 762 c 0
 823 776 847 791 872 807 c 1
 841 662 l 1
 815 645 792 630 771 615 c 0
 750 600 728 588 703 578 c 0
 678 568 655 563 632 563 c 0
 611 563 590 568 571 578 c 0
 552 588 536 601 522 616 c 0
 508 631 495 647 482 662 c 0
 469 677 456 690 441 700 c 0
 426 710 411 715 396 715 c 0
 372 715 348 710 324 700 c 0
 300 690 278 678 259 664 c 0
 240 650 217 634 194 618 c 1
 225 764 l 1
EndSplineSet
EndChar

StartChar: perthousand
Encoding: 8240 8240 263
Width: 2099
VWidth: 2050
Flags: HMW
LayerCount: 2
Fore
SplineSet
981 373 m 256
 977.702902832 357.173933596 976.036433125 342.434952165 976.036433125 328.818897955 c 0
 976.036433125 301.137854997 982.923904052 278.097837648 997 260 c 0
 1018 233 1049 219 1090 219 c 0
 1130 219 1167 233 1202 260 c 0
 1237 287 1260 325 1270 373 c 0
 1272.64805771 385.946059899 1273.99755808 398.199555884 1273.99755808 409.760487957 c 0
 1273.99755808 437.49189774 1266.23274142 461.238401754 1250 481 c 0
 1227 509 1195 523 1154 523 c 0
 1120 523 1086 510 1050 484 c 0
 1014 458 991 421 981 373 c 256
471 1078 m 256
 467.666666667 1062 466 1047.22222222 466 1033.62962963 c 0
 466 1006.44444444 472.666666667 984 486 966 c 0
 506 939 538 925 582 925 c 0
 622 925 659 939 694 966 c 0
 729 993 752 1030 762 1078 c 0
 764.648057707 1090.9460599 765.997558077 1103.19955588 765.997558077 1114.76048796 c 0
 765.997558077 1142.49189774 758.232741417 1166.23840175 742 1186 c 0
 719 1214 687 1228 646 1228 c 0
 610 1228 576 1215 540 1189 c 0
 504 1163 481 1126 471 1078 c 256
464 137 m 1
 314 137 l 1
 1288 1320 l 1
 1431 1320 l 1
 464 137 l 1
852 373 m 0
 859 407 873 441 893 474 c 0
 913 507 938 536 967 561 c 0
 996 586 1030 606 1066 621 c 0
 1102 636 1142 644 1183 644 c 0
 1216 644 1247 638 1277 626 c 0
 1307 614 1333 597 1354 574 c 0
 1375 551 1391 522 1400 489 c 0
 1404.25076688 473.413854779 1406.27079066 456.489263703 1406.27079066 438.331586424 c 0
 1406.27079066 418.044648841 1403.74923312 396.218473039 1399 373 c 0
 1391 337 1379 304 1358 272 c 0
 1337 240 1312 212 1282 187 c 0
 1252 162 1218 142 1182 127 c 0
 1146 112 1108 105 1068 105 c 0
 1035 105 1003 110 973 122 c 0
 943 134 917 150 897 173 c 0
 877 196 861 224 852 257 c 0
 847.5 273.5 845.25 291.5 845.25 310.875 c 0
 845.25 330.25 847.5 351 852 373 c 0
344 1078 m 0
 351 1112 365 1146 385 1179 c 0
 405 1212 430 1241 459 1266 c 0
 488 1291 522 1311 558 1326 c 0
 594 1341 633 1349 674 1349 c 0
 707 1349 739 1343 769 1331 c 0
 799 1319 825 1302 846 1279 c 0
 867 1256 883 1227 892 1194 c 0
 896.250766878 1178.41385478 898.270790664 1161.4892637 898.270790664 1143.33158642 c 0
 898.270790664 1123.04464884 895.749233122 1101.21847304 891 1078 c 0
 883 1042 871 1009 850 977 c 0
 829 945 804 917 774 892 c 0
 744 867 710 847 674 832 c 0
 638 817 599 810 559 810 c 0
 526 810 495 815 465 827 c 0
 435 839 409 855 389 878 c 0
 369 901 352 929 343 962 c 0
 338.749233122 977.586145221 336.729209336 994.510736297 336.729209336 1012.66841358 c 0
 336.729209336 1032.95535116 339.250766878 1054.78152696 344 1078 c 0
1635 373 m 256
 1631.70290283 357.173933596 1630.03643312 342.434952165 1630.03643312 328.818897955 c 0
 1630.03643312 301.137854997 1636.92390405 278.097837648 1651 260 c 0
 1672 233 1703 219 1744 219 c 0
 1784 219 1821 233 1856 260 c 0
 1891 287 1914 325 1924 373 c 0
 1926.64805771 385.946059899 1927.99755808 398.199555884 1927.99755808 409.760487957 c 0
 1927.99755808 437.49189774 1920.23274142 461.238401754 1904 481 c 0
 1881 509 1849 523 1808 523 c 0
 1774 523 1740 510 1704 484 c 0
 1668 458 1645 421 1635 373 c 256
1506 373 m 0
 1513 407 1527 441 1547 474 c 0
 1567 507 1592 536 1621 561 c 0
 1650 586 1684 606 1720 621 c 0
 1756 636 1795 644 1836 644 c 0
 1869 644 1901 638 1931 626 c 0
 1961 614 1987 597 2008 574 c 0
 2029 551 2045 522 2054 489 c 0
 2058.25076688 473.413854779 2060.27079066 456.489263703 2060.27079066 438.331586424 c 0
 2060.27079066 418.044648841 2057.74923312 396.218473039 2053 373 c 0
 2045 337 2033 304 2012 272 c 0
 1991 240 1966 212 1936 187 c 0
 1906 162 1872 142 1836 127 c 0
 1800 112 1761 105 1721 105 c 0
 1688 105 1657 110 1627 122 c 0
 1597 134 1571 150 1551 173 c 0
 1531 196 1515 224 1506 257 c 0
 1501.5 273.5 1499.25 291.5 1499.25 310.875 c 0
 1499.25 330.25 1501.5 351 1506 373 c 0
EndSplineSet
EndChar

StartChar: onequarter
Encoding: 188 188 264
Width: 1307
Flags: HMW
LayerCount: 2
Fore
SplineSet
1145 12 m 1
 1239 12 l 1
 1209 -128 l 1
 1115 -128 l 1
 1072 -327 l 1
 924 -327 l 1
 967 -128 l 1
 632 -128 l 1
 1102 471 l 1
 1242 471 l 1
 1145 12 l 1
900 13 m 1
 999 13 l 1
 1036 186 l 1
 900 13 l 1
520 1544 m 1
 397 1544 l 1
 613 1739 l 1
 710 1739 l 1
 540 941 l 1
 392 941 l 1
 520 1544 l 1
167 -147 m 1
 17 -147 l 1
 1453 1599 l 1
 1597 1599 l 1
 167 -147 l 1
EndSplineSet
LCarets2: 2 0 0 
Ligature2: "Tuffy-Regular-'frac' Diagonal Fractions lookup 2-2" one fraction four
EndChar

StartChar: onehalf
Encoding: 189 189 265
Width: 1307
Flags: HMW
LayerCount: 2
Fore
SplineSet
892 217 m 1
 769 270 l 1
 785 300 l 2
 811 354 852 398 909 435 c 0
 966 472 1024 490 1082 490 c 0
 1107 490 1130 487 1152 481 c 0
 1174 475 1194 465 1212 451 c 0
 1230 437 1245 420 1257 400 c 0
 1269 380 1276 356 1279 327 c 0
 1279.9 318.3 1280.35 309.42 1280.35 300.36 c 0
 1280.35 279.22 1277.9 257.1 1273 234 c 0
 1269 214 1261 195 1252 176 c 0
 1243 157 1232 139 1221 124 c 0
 1210 109 1197 94 1182 79 c 0
 1167 64 1153 52 1140 42 c 0
 1127 32 1112 21 1096 10 c 0
 1080 -1 1067 -10 1057 -16 c 2
 1023 -36 l 1
 998 -50 l 2
 984 -58 969 -70 950 -85 c 0
 931 -100 913 -115 894 -132 c 0
 875 -149 864 -162 857 -171 c 2
 845 -187 l 1
 1196 -187 l 1
 1166 -327 l 1
 642 -327 l 1
 650 -292 l 2
 657 -257 669 -224 686 -192 c 0
 703 -160 720 -131 740 -106 c 0
 760 -81 784 -57 811 -34 c 0
 838 -11 862 8 884 24 c 0
 906 40 932 56 961 74 c 2
 986 90 l 2
 1001 99 1011 103 1013 105 c 2
 1039 122 l 1
 1064 141 l 1
 1084 160 l 1
 1103 183 l 1
 1116 206 l 1
 1126 237 l 1
 1128.66666667 249 1130 260 1130 270.074074074 c 0
 1130 290.222222222 1124.66666667 306.666666667 1114 320 c 0
 1098 340 1078 350 1052 350 c 0
 1026 350 1001 342 975 325 c 0
 949 308 928 284 911 252 c 2
 892 217 l 1
520 1544 m 1
 397 1544 l 1
 613 1739 l 1
 710 1739 l 1
 540 941 l 1
 392 941 l 1
 520 1544 l 1
167 -147 m 1
 17 -147 l 1
 1453 1599 l 1
 1597 1599 l 1
 167 -147 l 1
EndSplineSet
LCarets2: 2 0 0 
Ligature2: "Tuffy-Regular-'frac' Diagonal Fractions lookup 2-2" one fraction two
EndChar

StartChar: threequarters
Encoding: 190 190 266
Width: 1307
Flags: HMW
LayerCount: 2
Fore
SplineSet
289 1139 m 1
 442 1182 l 1
 450 1155 l 2
 456 1134 466 1116 484 1102 c 0
 502 1088 521 1082 542 1082 c 0
 580 1082 613 1093 643 1115 c 0
 673 1137 690 1166 698 1202 c 0
 702 1221 703 1239 699 1254 c 0
 695 1269 687 1280 677 1290 c 0
 667 1300 655 1308 641 1313 c 0
 627 1318 611 1321 595 1321 c 2
 521 1321 l 1
 549 1453 l 1
 633 1453 l 2
 655 1453 677 1462 698 1480 c 0
 719 1498 732 1520 738 1548 c 0
 739.368092477 1554.2932254 740.062381225 1560.43671663 740.062381225 1566.38950367 c 0
 740.062381225 1582.19250849 735.169341063 1596.65151442 725 1609 c 0
 711 1626 692 1634 670 1634 c 2
 667 1634 l 2
 648 1634 629 1629 613 1619 c 0
 597 1609 583 1594 571 1576 c 2
 549 1544 l 1
 428 1606 l 1
 452 1638 l 2
 482 1679 518 1712 562 1737 c 0
 606 1762 652 1774 700 1774 c 0
 739 1774 774 1764 806 1746 c 0
 838 1728 861 1701 877 1666 c 0
 887.09092997 1643.92609069 892.010964317 1619.86337537 892.010964317 1594.3135766 c 0
 892.010964317 1579.35206654 890.323851892 1563.8806257 887 1548 c 0
 880 1516 868 1486 849 1458 c 0
 830 1430 810 1409 791 1393 c 1
 803 1381 816 1366 826 1349 c 0
 837 1331 846 1309 850 1283 c 0
 851.416994756 1273.78953409 852.08103671 1264.45357604 852.08103671 1254.99212586 c 0
 852.08103671 1237.74507866 849.874507866 1220.08103671 846 1202 c 0
 830 1126 790 1064 726 1015 c 0
 662 966 590 941 512 941 c 0
 464 941 418 956 376 985 c 0
 334 1014 307 1053 297 1103 c 2
 289 1139 l 1
1145 12 m 1
 1239 12 l 1
 1209 -128 l 1
 1115 -128 l 1
 1072 -327 l 1
 924 -327 l 1
 967 -128 l 1
 632 -128 l 1
 1102 471 l 1
 1242 471 l 1
 1145 12 l 1
900 13 m 1
 999 13 l 1
 1036 186 l 1
 900 13 l 1
167 -147 m 1
 17 -147 l 1
 1453 1599 l 1
 1597 1599 l 1
 167 -147 l 1
EndSplineSet
LCarets2: 2 0 0 
Ligature2: "Tuffy-Regular-'frac' Diagonal Fractions lookup 2-2" three fraction four
EndChar

StartChar: twosuperior
Encoding: 178 178 267
Width: 664
VWidth: 1397
Flags: HMW
LayerCount: 2
Fore
SplineSet
518 1485 m 1
 395 1538 l 1
 410 1568 l 2
 436 1622 478 1666 535 1703 c 0
 592 1740 650 1758 708 1758 c 0
 733 1758 756 1755 778 1749 c 0
 800 1743 819 1733 837 1719 c 0
 855 1705 871 1688 883 1668 c 0
 895 1648 901 1624 904 1595 c 0
 904.9 1586.3 905.35 1577.42 905.35 1568.36 c 0
 905.35 1547.22 902.9 1525.1 898 1502 c 0
 894 1482 887 1463 878 1444 c 0
 869 1425 858 1407 847 1392 c 0
 836 1377 822 1362 807 1347 c 0
 792 1332 778 1320 765 1310 c 0
 752 1300 738 1289 722 1278 c 0
 706 1267 692 1258 682 1252 c 2
 649 1232 l 1
 624 1218 l 2
 610 1210 594 1198 575 1183 c 0
 556 1168 538 1153 519 1136 c 0
 500 1119 489 1106 482 1097 c 2
 471 1081 l 1
 822 1081 l 1
 792 941 l 1
 268 941 l 1
 275 976 l 2
 282 1011 295 1044 312 1076 c 0
 329 1108 346 1137 366 1162 c 0
 386 1187 409 1211 436 1234 c 0
 463 1257 488 1276 510 1292 c 0
 532 1308 557 1324 586 1342 c 2
 612 1358 l 2
 627 1367 637 1371 639 1373 c 2
 664 1390 l 1
 689 1409 l 1
 710 1428 l 1
 728 1451 l 1
 741 1474 l 1
 752 1505 l 1
 754.666666667 1517 756 1528 756 1538.07407407 c 0
 756 1558.22222222 750.666666667 1574.66666667 740 1588 c 0
 724 1608 704 1618 678 1618 c 0
 652 1618 627 1610 601 1593 c 0
 575 1576 553 1552 536 1520 c 2
 518 1485 l 1
EndSplineSet
EndChar

StartChar: threesuperior
Encoding: 179 179 268
Width: 670
VWidth: 1391
Flags: HMW
LayerCount: 2
Fore
SplineSet
293 1139 m 1
 446 1182 l 1
 454 1155 l 2
 460 1134 470 1116 488 1102 c 0
 506 1088 525 1082 546 1082 c 0
 584 1082 617 1093 647 1115 c 0
 677 1137 694 1166 702 1202 c 0
 706 1221 707 1239 703 1254 c 0
 699 1269 691 1280 681 1290 c 0
 671 1300 659 1308 645 1313 c 0
 631 1318 615 1321 599 1321 c 2
 525 1321 l 1
 553 1453 l 1
 637 1453 l 2
 659 1453 681 1462 702 1480 c 0
 723 1498 736 1520 742 1548 c 0
 743.368092477 1554.2932254 744.062381225 1560.43671663 744.062381225 1566.38950367 c 0
 744.062381225 1582.19250849 739.169341063 1596.65151442 729 1609 c 0
 715 1626 696 1634 674 1634 c 2
 671 1634 l 2
 652 1634 633 1629 617 1619 c 0
 601 1609 587 1594 575 1576 c 2
 553 1544 l 1
 432 1606 l 1
 456 1638 l 2
 486 1679 522 1712 566 1737 c 0
 610 1762 656 1774 704 1774 c 0
 743 1774 778 1764 810 1746 c 0
 842 1728 865 1701 881 1666 c 0
 891.09092997 1643.92609069 896.010964317 1619.86337537 896.010964317 1594.3135766 c 0
 896.010964317 1579.35206654 894.323851892 1563.8806257 891 1548 c 0
 884 1516 872 1486 853 1458 c 0
 834 1430 814 1409 795 1393 c 1
 807 1381 820 1366 830 1349 c 0
 841 1331 850 1309 854 1283 c 0
 855.416994756 1273.78953409 856.08103671 1264.45357604 856.08103671 1254.99212586 c 0
 856.08103671 1237.74507866 853.874507866 1220.08103671 850 1202 c 0
 834 1126 794 1064 730 1015 c 0
 666 966 594 941 516 941 c 0
 468 941 422 956 380 985 c 0
 338 1014 311 1053 301 1103 c 2
 293 1139 l 1
EndSplineSet
EndChar

StartChar: onesuperior
Encoding: 185 185 269
Width: 454
VWidth: 1388
Flags: HMW
LayerCount: 2
Fore
SplineSet
500 1544 m 1
 377 1544 l 1
 593 1739 l 1
 690 1739 l 1
 520 941 l 1
 372 941 l 1
 500 1544 l 1
EndSplineSet
EndChar

StartChar: oe
Encoding: 339 339 270
Width: 1486
Flags: HMW
LayerCount: 2
Fore
SplineSet
370 537 m 0
 357 477 351 422 351 371 c 0
 351 320 358 274 371 234 c 0
 384 194 408 163 440 140 c 0
 472 117 513 106 562 106 c 0
 611 106 656 117 698 140 c 2
 706 144 l 1
 691 176 680 212 673 251 c 0
 667.430774806 284.813152962 664.551736232 320.208768641 664.551736232 357.24979769 c 0
 664.551736232 413.323050904 671.14944139 473.166990753 685 537 c 0
 708 643 744 738 795 821 c 0
 818 858 842 893 869 923 c 1
 838 947 797 958 743 958 c 0
 678 958 618 939 567 900 c 0
 516 861 474 811 443 750 c 0
 412 689 387 618 370 537 c 0
216 537 m 0
 233 616 258 690 291 757 c 0
 324 824 364 884 411 934 c 0
 458 984 512 1024 574 1052 c 0
 636 1080 702 1094 772 1094 c 0
 861 1094 932 1071 988 1024 c 1
 1061 1071 1140 1094 1224 1094 c 0
 1289 1094 1343 1078 1390 1048 c 0
 1437 1018 1471 978 1493 928 c 0
 1515 878 1528 821 1532 759 c 0
 1532.88888889 745.222222222 1533.33333333 731.296296296 1533.33333333 717.233196159 c 0
 1533.33333333 668.012345679 1527.88888889 617.111111111 1517 565 c 0
 1516 558 1513 542 1508 518 c 0
 1503 494 1500 477 1498 469 c 1
 830 469 l 1
 825.5 437 823.25 406.25 823.25 376.875 c 0
 823.25 347.5 825.5 319.5 830 293 c 0
 839 240 859 196 890 160 c 0
 921 124 963 106 1014 106 c 0
 1062 106 1112 118 1165 144 c 0
 1218 170 1258 203 1288 243 c 1
 1409 188 l 1
 1361 122 1298 69 1220 30 c 0
 1142 -9 1064 -29 985 -29 c 0
 902 -29 834 -5 781 42 c 1
 706 -5 623 -29 533 -29 c 0
 440 -29 366 -3 310 48 c 0
 254 99 217 167 203 251 c 0
 197.613131648 283.321210111 194.891213865 317.271001126 194.891213865 352.906340258 c 0
 194.891213865 409.884132774 201.84985515 471.171065261 216 537 c 0
858 604 m 1
 1380 604 l 1
 1384.85711369 635.4093352 1387.30264637 665.350751521 1387.30264637 693.858200626 c 0
 1387.30264637 753.388990647 1376.63815746 806.666530557 1355 854 c 0
 1323 924 1270 958 1195 958 c 0
 1144 958 1096 940 1048 904 c 0
 1000 868 961 824 930 772 c 0
 899 720 875 663 858 604 c 1
EndSplineSet
EndChar

StartChar: florin
Encoding: 402 402 271
Width: 1020
Flags: HMW
LayerCount: 2
Fore
SplineSet
687 938 m 1
 146 0 l 1
 -6 0 l 1
 535 938 l 1
 396 938 l 1
 474 1073 l 1
 612 1073 l 1
 690 1208 l 2
 714 1248 743 1291 783 1337 c 0
 823 1383 864 1423 910 1459 c 0
 951 1491 993 1510 1038 1516 c 0
 1058 1519 1075 1520 1093 1520 c 0
 1123 1520 1152 1516 1177 1508 c 0
 1202 1500 1222 1483 1237 1456 c 1
 1201 1304 l 1
 1187 1320 1167 1336 1139 1352 c 1
 1052 1372 l 1
 1025 1372 992 1359 952 1333 c 0
 912 1307 884 1279 867 1249 c 2
 766 1073 l 1
 961 1073 l 1
 883 938 l 1
 687 938 l 1
EndSplineSet
EndChar

StartChar: notequal
Encoding: 8800 8800 272
Width: 907
Flags: HMW
LayerCount: 2
Fore
SplineSet
170 24 m 1
 20 24 l 1
 295 358 l 1
 142 358 l 1
 172 500 l 1
 411 500 l 1
 597 725 l 1
 220 725 l 1
 250 866 l 1
 713 866 l 1
 992 1206 l 1
 1136 1206 l 1
 858 866 l 1
 1050 866 l 1
 1020 725 l 1
 743 725 l 1
 559 500 l 1
 972 500 l 1
 942 358 l 1
 443 358 l 1
 170 24 l 1
EndSplineSet
EndChar

StartChar: product
Encoding: 8719 8719 273
Width: 1198
Flags: HMW
LayerCount: 2
Fore
SplineSet
419 1456 m 1
 1397 1456 l 1
 1088 0 l 1
 930 0 l 1
 1207 1305 l 1
 545 1305 l 1
 268 0 l 1
 110 0 l 1
 419 1456 l 1
EndSplineSet
EndChar

StartChar: dotlessi
Encoding: 305 305 274
Width: 430
Flags: HMW
LayerCount: 2
Fore
SplineSet
368 1073 m 1
 519 1073 l 1
 291 0 l 1
 140 0 l 1
 368 1073 l 1
EndSplineSet
EndChar

StartChar: fraction
Encoding: 8260 8260 275
Width: 320
Flags: HMW
LayerCount: 2
Fore
SplineSet
-359 -147 m 1
 -509 -147 l 1
 927 1599 l 1
 1071 1599 l 1
 -359 -147 l 1
EndSplineSet
EndChar

StartChar: approxequal
Encoding: 8776 8776 276
Width: 735
Flags: HMW
LayerCount: 2
Fore
SplineSet
152 421 m 1
 172 434 193 448 212 462 c 0
 231 476 254 489 280 500 c 0
 306 511 332 517 356 517 c 0
 374 517 391 512 408 502 c 0
 425 492 439 479 452 464 c 0
 465 449 477 434 490 419 c 0
 503 404 518 392 535 382 c 0
 552 372 571 366 590 366 c 0
 611 366 634 372 659 382 c 0
 684 392 708 404 729 418 c 0
 750 432 774 448 799 464 c 1
 768 319 l 1
 742 302 719 287 698 272 c 0
 677 257 655 245 630 235 c 0
 605 225 582 220 559 220 c 0
 538 220 517 226 498 236 c 0
 479 246 463 259 449 274 c 0
 435 289 422 303 409 318 c 0
 396 333 383 346 368 356 c 0
 353 366 338 372 323 372 c 0
 299 372 275 367 251 357 c 0
 227 347 205 334 186 320 c 0
 167 306 144 291 121 275 c 1
 152 421 l 1
225 764 m 1
 245 777 266 792 285 806 c 0
 304 820 327 833 353 844 c 0
 379 855 405 860 429 860 c 0
 447 860 463 854 480 844 c 0
 497 834 511 821 524 806 c 0
 537 791 550 777 563 762 c 0
 576 747 591 734 608 724 c 0
 625 714 644 709 663 709 c 0
 684 709 707 714 732 724 c 0
 757 734 781 748 802 762 c 0
 823 776 847 791 872 807 c 1
 841 662 l 1
 815 645 792 630 771 615 c 0
 750 600 728 588 703 578 c 0
 678 568 655 563 632 563 c 0
 611 563 590 568 571 578 c 0
 552 588 536 601 522 616 c 0
 508 631 495 647 482 662 c 0
 469 677 456 690 441 700 c 0
 426 710 411 715 396 715 c 0
 372 715 348 710 324 700 c 0
 300 690 278 678 259 664 c 0
 240 650 217 634 194 618 c 1
 225 764 l 1
EndSplineSet
EndChar

StartChar: Delta
Encoding: 916 916 277
Width: 1562
Flags: HMW
LayerCount: 2
Fore
SplineSet
120 0 m 1
 1008 1440 l 1
 1187 1440 l 1
 1462 0 l 1
 120 0 l 1
427 157 m 1
 1230 157 l 1
 1060 1247 l 1
 427 157 l 1
EndSplineSet
EndChar

StartChar: pi
Encoding: 960 960 278
Width: 1064
Flags: HMW
LayerCount: 2
Fore
SplineSet
330 954 m 1
 225 954 l 1
 258 1108 l 1
 1277 1108 l 1
 1244 954 l 1
 1159 954 l 1
 956 0 l 1
 798 0 l 1
 1001 954 l 1
 488 954 l 1
 285 0 l 1
 127 0 l 1
 330 954 l 1
EndSplineSet
EndChar

StartChar: lessequal
Encoding: 8804 8804 279
Width: 872
Flags: HMW
LayerCount: 2
Fore
SplineSet
878 489 m 1
 278 792 l 1
 303 909 l 1
 1036 1195 l 1
 1003 1042 l 1
 540 849 l 1
 910 640 l 1
 878 489 l 1
207 460 m 1
 884 460 l 1
 854 318 l 1
 177 318 l 1
 207 460 l 1
EndSplineSet
EndChar

StartChar: greaterequal
Encoding: 8805 8805 280
Width: 872
Flags: HMW
LayerCount: 2
Fore
SplineSet
225 489 m 1
 257 640 l 1
 715 849 l 1
 334 1042 l 1
 367 1195 l 1
 978 909 l 1
 953 792 l 1
 225 489 l 1
884 460 m 1
 854 318 l 1
 177 318 l 1
 207 460 l 1
 884 460 l 1
EndSplineSet
EndChar

StartChar: summation
Encoding: 8721 8721 281
Width: 1146
Flags: HMW
LayerCount: 2
Fore
SplineSet
1061 60 m 1
 76 58 l 1
 122 272 l 1
 624 732 l 1
 317 1192 l 1
 361 1399 l 1
 1346 1401 l 1
 1313 1248 l 1
 493 1246 l 1
 820 732 l 1
 277 211 l 1
 1093 213 l 1
 1061 60 l 1
EndSplineSet
EndChar

StartChar: Omega
Encoding: 937 937 282
Width: 1358
Flags: HMW
LayerCount: 2
Fore
SplineSet
318 142 m 1
 285 193 262 249 247 309 c 0
 231 370 223 437 223 508 c 0
 223 579 230 651 246 725 c 0
 260 792 280 860 308 929 c 0
 336 998 371 1066 416 1135 c 0
 461 1204 511 1264 565 1317 c 0
 619 1370 684 1413 759 1446 c 0
 834 1479 912 1495 994 1495 c 0
 1075 1495 1145 1480 1204 1449 c 0
 1263 1418 1309 1377 1343 1324 c 0
 1377 1271 1401 1213 1417 1151 c 0
 1433 1089 1440 1022 1440 950 c 0
 1440 873 1432 798 1416 725 c 0
 1402 658 1380 591 1353 524 c 0
 1326 457 1290 389 1246 322 c 0
 1202 255 1151 196 1092 146 c 2
 1087 142 l 1
 1363 142 l 1
 1333 0 l 1
 818 0 l 1
 848 142 l 1
 903 168 954 202 1002 246 c 0
 1050 290 1091 339 1124 394 c 0
 1157 449 1183 503 1203 558 c 0
 1223 613 1238 668 1250 725 c 0
 1267 804 1274 879 1275 952 c 0
 1275 1007 1269 1058 1259 1104 c 0
 1249 1150 1232 1192 1209 1231 c 0
 1186 1270 1153 1300 1112 1322 c 0
 1071 1344 1021 1354 964 1354 c 0
 902 1354 843 1341 788 1314 c 0
 733 1287 686 1252 646 1210 c 0
 606 1168 570 1118 538 1062 c 0
 506 1006 480 950 460 894 c 0
 440 838 424 782 412 725 c 0
 396 651 388 578 388 507 c 0
 387.93622915 503.492603227 387.90499207 500.009606781 387.90499207 496.550491988 c 0
 387.90499207 445.766723544 394.637708504 400.130311731 404 358 c 0
 414 313 433 271 463 232 c 0
 493 193 528 163 570 142 c 1
 571 142 l 1
 541 0 l 1
 25 0 l 1
 56 142 l 1
 318 142 l 1
EndSplineSet
EndChar

StartChar: infinity
Encoding: 8734 8734 283
Width: 1424
Flags: HMW
LayerCount: 2
Fore
SplineSet
1088 364 m 0
 1155 364 1215 386 1268 430 c 0
 1321 474 1357 537 1374 616 c 0
 1379.20889586 640.928287317 1381.78759108 664.333826896 1381.78759108 686.113607901 c 0
 1381.78759108 722.871555895 1374.44252823 754.998751562 1360 782 c 0
 1337 825 1301 853 1249 864 c 0
 1233 868 1215 870 1196 870 c 0
 1121 870 1056 847 1003 800 c 0
 950 753 915 692 899 618 c 0
 893.964143666 594.978942473 891.516027028 573.251754794 891.516027028 552.771895944 c 0
 891.516027028 516.316448286 899.273192549 483.813318926 914 455 c 0
 937 410 977 382 1031 370 c 0
 1049 366 1068 364 1088 364 c 0
872 839 m 1
 972 964 1091 1027 1229 1027 c 0
 1259 1027 1285 1024 1305 1019 c 1
 1388 1000 1450 954 1489 880 c 0
 1514.08116879 832.410089985 1526.75474334 779.029969326 1526.75474334 719.859638021 c 0
 1526.75474334 687.022976347 1522.85164837 652.403097007 1515 616 c 0
 1490 499 1434 401 1346 323 c 0
 1258 245 1147 206 1011 206 c 0
 1007 206 1002 206 998 206 c 0
 989 206 980 209 970 215 c 0
 875 244 810 303 777 392 c 1
 702 294 614 235 512 215 c 0
 485 209 455 206 423 206 c 0
 317 206 236 245 182 323 c 0
 144.651263258 376.948175295 125.480602365 440.463758931 125.480602365 513.215889229 c 0
 125.480602365 545.651119435 129.291081825 579.922262942 137 616 c 0
 159 718 204 806 275 880 c 0
 346 954 428 1000 519 1019 c 1
 541 1024 567 1027 597 1027 c 0
 737 1027 829 964 872 839 c 1
456 364 m 0
 476 364 497 366 517 370 c 0
 577 382 627 410 670 455 c 0
 713 500 739 554 753 618 c 0
 758.153194264 641.833523471 760.71308666 664.31852997 760.71308666 685.421610028 c 0
 760.71308666 729.840857217 749.371536831 768.13750815 727 800 c 0
 694 847 639 870 564 870 c 0
 545 870 527 868 509 864 c 0
 453 853 403 825 362 782 c 0
 321 739 292 683 278 616 c 0
 272.296539899 589.495685414 269.407046677 564.79230963 269.407046677 542.003162162 c 0
 269.407046677 496.865910551 280.742417855 459.238103268 304 430 c 0
 339 386 389 364 456 364 c 0
EndSplineSet
EndChar

StartChar: trademark
Encoding: 8482 8482 284
Width: 1200
Flags: HMW
LayerCount: 2
Fore
SplineSet
744 887 m 1
 890 1578 l 1
 1005 1578 l 1
 1067 1051 l 1
 1375 1578 l 1
 1512 1578 l 1
 1366 887 l 1
 1250 887 l 1
 1347 1344 l 1
 1080 894 l 1
 985 894 l 1
 935 1344 l 1
 838 887 l 1
 744 887 l 1
358 1578 m 1
 879 1578 l 1
 858 1479 l 1
 673 1479 l 1
 548 887 l 1
 450 887 l 1
 575 1479 l 1
 337 1479 l 1
 358 1578 l 1
EndSplineSet
EndChar

StartChar: radical
Encoding: 8730 8730 285
Width: 1245
Flags: HMW
LayerCount: 2
Fore
SplineSet
1493 1770 m 1
 1657 1770 l 1
 745 0 l 1
 526 0 l 1
 471 563 l 1
 120 563 l 1
 150 705 l 1
 624 705 l 1
 671 168 l 1
 1493 1770 l 1
EndSplineSet
EndChar

StartChar: jcircumflex
Encoding: 309 309 302
Width: 468
Flags: HMW
LayerCount: 2
Fore
SplineSet
-193 -346 m 1
 -64 -244 l 1
 -60 -249 -56 -254 -52 -258 c 0
 -48 -262 -43 -266 -38 -270 c 0
 -33 -274 -27 -279 -22 -282 c 0
 -17 -285 -10 -288 -2 -290 c 0
 6 -292 15 -293 24 -293 c 0
 92 -293 135 -252 152 -170 c 2
 188 0 l 1
 416 1073 l 1
 568 1073 l 1
 340 0 l 1
 310 -139 l 2
 301 -181 285 -220 263 -254 c 0
 241 -288 216 -315 189 -336 c 0
 162 -357 133 -376 103 -390 c 0
 73 -404 46 -414 23 -420 c 0
 0 -426 -20 -428 -36 -428 c 0
 -64 -428 -89 -423 -111 -413 c 0
 -133 -403 -148 -394 -157 -386 c 0
 -166 -378 -178 -364 -193 -346 c 1
EndSplineSet
Refer: 254 710 N 1 0 0 1 -344 -343 2
EndChar

StartChar: hbar
Encoding: 295 295 304
Width: 993
Flags: HMW
LayerCount: 2
Fore
SplineSet
281 0 m 1
 129 0 l 1
 380 1179 l 1
 281 1179 l 1
 311 1321 l 1
 410 1321 l 1
 438 1456 l 1
 590 1456 l 1
 562 1321 l 1
 843 1321 l 1
 813 1179 l 1
 532 1179 l 1
 471 892 l 1
 503 951 548 1002 611 1042 c 0
 674 1082 744 1102 820 1102 c 0
 875 1102 922 1091 961 1069 c 0
 1000 1047 1034 1014 1057 969 c 0
 1080 924 1094 866 1097 794 c 0
 1097.37697374 784.952630267 1097.56446854 775.699991689 1097.56446854 766.246052522 c 0
 1097.56446854 700.464465774 1088.48684174 624.936840356 1071 541 c 2
 956 0 l 1
 805 0 l 1
 920 541 l 2
 933 601 939 656 940 706 c 0
 940.097167541 710.858377035 940.147127427 715.669546416 940.147127427 720.432590732 c 0
 940.147127427 764.688429478 935.833989511 804.789534088 925 840 c 0
 913 879 892 910 863 932 c 0
 834 954 796 965 751 965 c 0
 706 965 663 954 624 931 c 0
 585 908 552 878 522 838 c 0
 492 798 466 753 445 703 c 0
 424 653 409 599 396 540 c 2
 281 0 l 1
EndSplineSet
EndChar

StartChar: Hbar
Encoding: 294 294 306
Width: 1198
Flags: HMW
LayerCount: 2
Fore
SplineSet
430 1456 m 1
 588 1456 l 1
 507 1071 l 1
 1168 1071 l 1
 1249 1456 l 1
 1407 1456 l 1
 1326 1071 l 1
 1382 1071 l 1
 1360 969 l 1
 1304 969 l 1
 1098 0 l 1
 940 0 l 1
 1083 674 l 1
 422 674 l 1
 279 0 l 1
 121 0 l 1
 327 969 l 1
 248 969 l 1
 270 1071 l 1
 349 1071 l 1
 430 1456 l 1
1146 969 m 1
 485 969 l 1
 452 815 l 1
 1113 815 l 1
 1146 969 l 1
EndSplineSet
EndChar

StartChar: itilde
Encoding: 297 297 324
Width: 430
Flags: HMW
LayerCount: 2
Fore
SplineSet
378 1073 m 1
 529 1073 l 1
 301 0 l 1
 150 0 l 1
 378 1073 l 1
EndSplineSet
Refer: 262 732 N 1 0 0 1 -19 603 2
EndChar

StartChar: imacron
Encoding: 299 299 328
Width: 430
Flags: HMW
LayerCount: 2
Fore
SplineSet
378 1073 m 1
 529 1073 l 1
 301 0 l 1
 150 0 l 1
 378 1073 l 1
EndSplineSet
Refer: 149 175 N 1 0 0 1 -286 -1 2
EndChar

StartChar: eng
Encoding: 331 331 342
Width: 1044
Flags: HMW
LayerCount: 2
Fore
SplineSet
467 -315 m 1
 536 -315 601 -290 660 -241 c 0
 719 -192 758 -122 777 -33 c 2
 784 0 l 1
 899 541 l 2
 912 601 918 656 919 706 c 0
 919.097167541 710.858377035 919.147127427 715.669546416 919.147127427 720.432590732 c 0
 919.147127427 764.688429478 914.833989511 804.789534088 904 840 c 0
 892 879 871 910 842 932 c 0
 813 954 775 965 730 965 c 0
 685 965 642 954 603 931 c 0
 564 908 530 878 500 838 c 0
 470 798 445 753 424 703 c 0
 403 653 388 599 375 540 c 2
 260 0 l 1
 108 0 l 1
 336 1073 l 1
 488 1073 l 1
 450 892 l 1
 482 951 527 1002 590 1042 c 0
 653 1082 723 1102 799 1102 c 0
 854 1102 901 1091 940 1069 c 0
 979 1047 1013 1014 1036 969 c 0
 1059 924 1073 866 1076 794 c 0
 1076.37697374 784.952630267 1076.56446854 775.699991689 1076.56446854 766.246052522 c 0
 1076.56446854 700.464465774 1067.48684174 624.936840356 1050 541 c 2
 935 1 l 1
 936 0 l 1
 935 -3 935 -6 934 -9 c 0
 925 -51 899 -115 858 -200 c 0
 835 -245 796 -290 737 -336 c 0
 685 -376 637 -404 590 -420 c 0
 531 -440 481 -449 439 -449 c 0
 438 -449 436 -449 435 -449 c 1
 439 -434 449 -389 467 -315 c 1
EndSplineSet
EndChar

StartChar: Eng
Encoding: 330 330 343
Width: 1271
Flags: HMW
LayerCount: 2
Fore
SplineSet
768 47 m 1
 837 47 902 72 961 121 c 0
 1020 170 1059 240 1078 329 c 2
 1085 362 l 1
 1200 903 l 2
 1213 963 1220 1018 1221 1068 c 0
 1221.07179677 1071.58983849 1221.10751011 1075.15390309 1221.10751011 1078.69182372 c 0
 1221.10751011 1124.43078062 1215.13843876 1165.80007402 1204 1202 c 0
 1192 1241 1172 1272 1143 1294 c 0
 1114 1316 1076 1327 1031 1327 c 0
 1004 1327 955 1316 884 1293 c 0
 841 1277 783 1250 711 1212 c 0
 622 1164 555 1115 511 1065 c 0
 498 1049 481 995 461 902 c 2
 269 0 l 1
 117 0 l 1
 419 1456 l 1
 571 1456 l 1
 536 1254 l 1
 629 1315 735 1369 856 1416 c 0
 938 1448 1019 1464 1100 1464 c 0
 1155 1464 1203 1453 1242 1431 c 0
 1281 1409 1314 1376 1337 1331 c 0
 1360 1286 1375 1228 1378 1156 c 0
 1378.35088936 1147.57865538 1378.52393389 1138.97946592 1378.52393389 1130.20563184 c 0
 1378.52393389 1063.96578555 1368.6607376 987.771540502 1351 903 c 2
 1236 363 l 1
 1237 362 l 1
 1236 359 1237 356 1236 353 c 0
 1227 311 1200 247 1159 162 c 0
 1136 117 1098 72 1039 26 c 0
 987 -14 938 -42 891 -58 c 0
 832 -78 782 -87 740 -87 c 0
 739 -87 737 -87 736 -87 c 1
 740 -72 750 -27 768 47 c 1
EndSplineSet
EndChar

StartChar: Tbar
Encoding: 358 358 344
Width: 1243
Flags: HMW
LayerCount: 2
Fore
SplineSet
397 1456 m 1
 1489 1456 l 1
 1460 1315 l 1
 1003 1315 l 1
 874 712 l 1
 1219 712 l 1
 1189 570 l 1
 844 570 l 1
 723 0 l 1
 565 0 l 1
 686 570 l 1
 362 570 l 1
 392 712 l 1
 716 712 l 1
 845 1315 l 1
 368 1315 l 1
 397 1456 l 1
EndSplineSet
EndChar

StartChar: tbar
Encoding: 359 359 345
Width: 696
Flags: HMW
LayerCount: 2
Fore
SplineSet
443 938 m 1
 301 938 l 1
 330 1073 l 1
 472 1073 l 1
 525 1323 l 1
 676 1323 l 1
 623 1073 l 1
 820 1073 l 1
 791 938 l 1
 594 938 l 1
 546 712 l 1
 795 712 l 1
 765 570 l 1
 516 570 l 1
 441 215 l 2
 437.984009683 201.16192678 436.478806509 188.551368114 436.478806509 177.168324003 c 0
 436.478806509 124.389441334 468.83807322 98 533 98 c 2
 603 98 l 1
 576 -29 l 1
 506 -29 l 2
 407 -29 342 -11 310 26 c 0
 289.52 49.68 279.28 83.6 279.28 127.497856 c 0
 279.28 152.1904 282.52 180.04 289 211 c 2
 365 570 l 1
 173 570 l 1
 203 712 l 1
 395 712 l 1
 443 938 l 1
EndSplineSet
EndChar

StartChar: IJ
Encoding: 306 306 350
Width: 1353
Flags: HMW
LayerCount: 2
Fore
SplineSet
1552 1464 m 1
 1356 543 l 2
 1321 378 1240 236 1114 117 c 24
 1071 77 1024 43 971 14 c 0
 918 -15 854 -29 778 -29 c 0
 723 -29 676 -18 637 4 c 0
 598 26 564 59 541 104 c 0
 519 146 506 205 502 280 c 0
 501.337899758 291.255704121 501.004582063 302.922386426 501.004582063 315.013652355 c 0
 501.004582063 375.970333881 509.476026273 447.71803112 527 532 c 2
 529 543 l 1
 680 543 l 1
 678 532 l 2
 665 472 659 417 658 367 c 0
 657.91723747 362.861873485 657.875572758 358.757995152 657.875572758 354.688931895 c 0
 657.875572758 309.592470092 662.993150364 268.772261318 674 233 c 0
 686 194 706 163 735 141 c 0
 764 119 802 108 847 108 c 0
 892 108 935 119 974 142 c 0
 1013 165 1046 196 1076 236 c 0
 1106 276 1132 320 1153 370 c 0
 1174 420 1189 474 1202 533 c 2
 1400 1464 l 1
 1552 1464 l 1
154 0 m 1
 463 1456 l 1
 620 1456 l 1
 311 0 l 1
 154 0 l 1
EndSplineSet
EndChar

StartChar: ij
Encoding: 307 307 351
Width: 710
Flags: HMW
LayerCount: 2
Fore
SplineSet
695 1333 m 0
 700 1358 714 1380 737 1399 c 0
 760 1418 784 1427 809 1427 c 0
 834 1427 855 1418 870 1400 c 0
 880.565547885 1387.32134254 885.673589889 1372.16200058 885.673589889 1355.22090189 c 0
 885.673589889 1348.11057579 884.773780846 1340.68638367 883 1333 c 0
 878 1308 864 1286 841 1267 c 0
 818 1248 794 1239 769 1239 c 0
 744 1239 724 1248 709 1266 c 0
 698.142920579 1279.02849531 692.524782204 1294.67646114 692.524782204 1312.18550283 c 0
 692.524782204 1318.86672587 693.342831769 1325.81893766 695 1333 c 0
49 -346 m 1
 178 -244 l 1
 182 -249 186 -254 190 -258 c 0
 194 -262 199 -266 204 -270 c 0
 209 -274 215 -279 220 -282 c 0
 225 -285 232 -288 240 -290 c 0
 248 -292 257 -293 266 -293 c 0
 334 -293 377 -252 394 -170 c 2
 430 0 l 1
 658 1073 l 1
 810 1073 l 1
 582 0 l 1
 552 -139 l 2
 543 -181 527 -220 505 -254 c 0
 483 -288 458 -315 431 -336 c 0
 404 -357 375 -376 345 -390 c 0
 315 -404 288 -414 265 -420 c 0
 242 -426 222 -428 206 -428 c 0
 178 -428 153 -423 131 -413 c 0
 109 -403 94 -394 85 -386 c 0
 76 -378 64 -364 49 -346 c 1
414 1333 m 0
 419 1358 433 1380 456 1399 c 0
 479 1418 503 1427 528 1427 c 0
 551 1427 569 1420 583 1406 c 0
 597 1392 603 1373 604 1352 c 0
 604 1348 604 1342 602 1333 c 0
 597 1308 583 1286 560 1267 c 0
 537 1248 513 1239 488 1239 c 0
 466 1239 448 1246 434 1260 c 0
 420 1274 413 1293 412 1314 c 0
 413 1322 413 1328 414 1333 c 0
378 1073 m 1
 529 1073 l 1
 301 0 l 1
 150 0 l 1
 378 1073 l 1
EndSplineSet
EndChar

StartChar: scommaaccent
Encoding: 537 537 356
Width: 921
Flags: HMW
LayerCount: 2
Fore
SplineSet
538 -183 m 5
 505 -340 377 -463 348 -498 c 5
 299 -467 l 5
 326 -437 394 -361 409 -289 c 4
 357 -289 321 -254 321 -205 c 4
 320 -198 322 -190 323 -183 c 4
 336 -123 395 -75 454 -75 c 4
 506 -75 541 -112 541 -160 c 4
 541 -168 540 -175 538 -183 c 5
EndSplineSet
Refer: 39 115 N 1 0 0 1 0 0 2
EndChar

StartChar: Scommaaccent
Encoding: 536 536 357
Width: 1079
Flags: HMW
LayerCount: 2
Fore
SplineSet
599 -184 m 5
 566 -341 438 -464 409 -499 c 5
 360 -468 l 5
 387 -438 454 -362 469 -290 c 4
 417 -290 382 -255 382 -206 c 4
 381 -199 383 -191 384 -184 c 4
 397 -124 456 -76 515 -76 c 4
 567 -76 602 -113 602 -161 c 4
 602 -169 601 -176 599 -184 c 5
EndSplineSet
Refer: 106 83 N 1 0 0 1 0 0 2
EndChar

StartChar: OE
Encoding: 338 338 360
Width: 1562
Flags: HMW
LayerCount: 2
Fore
SplineSet
246 725 m 0
 260 792 280 860 308 929 c 0
 336 998 371 1066 416 1135 c 0
 461 1204 511 1264 565 1317 c 0
 619 1370 684 1413 759 1446 c 0
 834 1479 912 1495 994 1495 c 0
 1111 1495 1179 1482 1199 1456 c 1
 1771 1456 l 1
 1742 1315 l 1
 1282 1315 l 1
 1176 817 l 1
 1593 817 l 1
 1563 676 l 1
 1146 676 l 1
 1032 141 l 1
 1492 141 l 1
 1462 0 l 1
 854 0 l 1
 795 -19 734 -29 670 -29 c 0
 590 -29 520 -14 460 16 c 0
 400 46 355 87 321 139 c 0
 287 191 263 248 247 309 c 0
 231 370 223 437 223 508 c 0
 223 579 230 651 246 725 c 0
876 152 m 1
 1124 1315 l 1
 1120 1317 1117 1320 1112 1322 c 0
 1071 1344 1021 1354 964 1354 c 0
 902 1354 843 1341 788 1314 c 0
 733 1287 686 1252 646 1210 c 0
 606 1168 570 1118 538 1062 c 0
 506 1006 480 950 460 894 c 0
 440 838 424 782 412 725 c 0
 396 651 388 578 388 507 c 0
 387.93622915 503.492603227 387.90499207 500.009606781 387.90499207 496.550491988 c 0
 387.90499207 445.766723544 394.637708504 400.130311731 404 358 c 0
 414 313 432 272 455 234 c 0
 478 196 511 166 553 145 c 0
 595 124 643 113 700 113 c 0
 768 113 826 126 875 152 c 1
 876 152 l 1
EndSplineSet
EndChar

StartChar: integral
Encoding: 8747 8747 361
Width: 760
Flags: HMW
LayerCount: 2
Fore
SplineSet
358 234 m 1
 570 1232 l 1
 600 1375 l 2
 609 1418 626 1466 649 1519 c 0
 672 1572 701 1623 734 1669 c 0
 764 1710 801 1741 844 1762 c 0
 895 1786 941 1799 986 1802 c 0
 988 1802 991 1802 993 1802 c 0
 1019 1802 1042 1794 1066 1778 c 1
 1084 1633 l 1
 1065 1643 1038 1650 1004 1654 c 1
 908 1641 l 1
 881 1632 853 1610 822 1574 c 0
 791 1538 773 1504 766 1472 c 2
 726 1284 l 1
 452 -1 l 2
 443 -44 426 -92 403 -145 c 0
 380 -198 351 -249 318 -295 c 0
 288 -336 252 -367 209 -388 c 0
 158 -412 111 -425 66 -428 c 0
 64 -428 61 -428 59 -428 c 0
 33 -428 10 -420 -14 -404 c 1
 -32 -260 l 1
 -13 -270 14 -276 48 -280 c 1
 144 -267 l 1
 171 -258 199 -236 230 -200 c 0
 261 -164 279 -130 286 -98 c 2
 358 234 l 1
EndSplineSet
EndChar

StartChar: partialdiff
Encoding: 8706 8706 362
Width: 1030
Flags: HMW
LayerCount: 2
Fore
SplineSet
330 455 m 0
 323 424 319 392 319 359 c 0
 319 281 341 219 381 174 c 0
 421 129 466 106 515 106 c 0
 590 106 663 142 735 214 c 0
 807 286 854 366 873 455 c 0
 877.354143467 476.770717335 880.191601707 496.26640683 880.191601707 513.487068485 c 0
 880.191601707 516.041434669 880.129171307 518.545745174 880 521 c 0
 880 598 854 662 802 714 c 0
 750 766 690 791 621 791 c 0
 582 791 541 773 499 738 c 0
 457 703 421 660 391 608 c 0
 361 556 341 505 330 455 c 0
958 1290 m 1
 992 1239 1021 1174 1049 1097 c 0
 1077 1020 1091 944 1091 870 c 0
 1091 846 1089 823 1085 801 c 1
 1080 764 1075 722 1068 676 c 0
 1061 630 1052 584 1043 540 c 0
 1039 522 1039 522 1035 502 c 0
 1002 349 933 223 830 122 c 0
 727 21 615 -29 496 -29 c 0
 381 -29 297 2 243 63 c 0
 189 124 162 206 162 307 c 0
 162 355 169 406 180 459 c 0
 207 588 267 699 360 790 c 0
 453 881 553 926 660 926 c 0
 687 926 712 924 735 919 c 0
 758 914 775 910 790 904 c 0
 805 898 820 889 834 877 c 0
 848 865 859 855 866 847 c 0
 873 839 884 827 897 812 c 0
 910 797 918 785 925 778 c 1
 929 799 932 824 932 851 c 0
 932 914 922 980 902 1050 c 0
 882 1120 857 1171 827 1204 c 1
 729 1290 l 1
 686 1307 634 1315 575 1315 c 0
 548 1315 508 1312 458 1307 c 1
 475 1454 l 1
 493 1455 520 1456 557 1456 c 0
 685 1456 790 1433 870 1386 c 1
 958 1290 l 1
EndSplineSet
EndChar

StartChar: kgreenlandic
Encoding: 312 312 363
Width: 1060
Flags: HMW
LayerCount: 2
Fore
SplineSet
349 1072 m 1
 507 1072 l 1
 415 640 l 1
 925 1077 l 1
 1111 1077 l 1
 491 540 l 1
 936 0 l 1
 720 0 l 1
 366 405 l 1
 279 0 l 1
 121 0 l 1
 349 1072 l 1
EndSplineSet
EndChar

StartChar: breve
Encoding: 728 728 364
Width: 1302
Flags: HMW
LayerCount: 2
Fore
SplineSet
1012 1648 m 1
 1049 1650 1082 1659 1108 1674 c 0
 1153 1702 1208 1757 1271 1838 c 1
 1351 1838 l 0
 1350 1835 1350 1831 1349 1828 c 0
 1339 1783 1305 1723 1245 1649 c 8
 1214 1611 1173 1579 1120 1552 c 24
 1071 1527 1023 1514 979 1514 c 24
 935 1514 893 1527 854 1552 c 24
 813 1579 786 1611 771 1649 c 16
 750.089758345 1704.26278152 739.218148973 1751.71773792 739.218148973 1790.94838068 c 0
 739.218148973 1804.24979448 740.467943448 1816.60574552 743 1828 c 0
 744 1831 744 1835 745 1838 c 0
 826 1838 l 1
 843 1763 873 1709 918 1674 c 0
 940 1658 971 1649 1012 1648 c 1
EndSplineSet
EndChar

StartChar: horizontalbar
Encoding: 8213 8213 365
Width: 1562
Flags: HMW
LayerCount: 2
Fore
SplineSet
151 712 m 1
 1713 712 l 1
 1683 570 l 1
 121 570 l 1
 151 712 l 1
EndSplineSet
EndChar

StartChar: j.dotless
Encoding: 63166 63166 388
Width: 468
Flags: HMW
LayerCount: 2
Fore
SplineSet
-193 -346 m 1
 -64 -244 l 1
 -60 -249 -56 -254 -52 -258 c 0
 -48 -262 -43 -266 -38 -270 c 0
 -33 -274 -27 -279 -22 -282 c 0
 -17 -285 -10 -288 -2 -290 c 0
 6 -292 15 -293 24 -293 c 0
 92 -293 135 -252 152 -170 c 2
 188 0 l 1
 416 1073 l 1
 568 1073 l 1
 340 0 l 1
 310 -139 l 2
 301 -181 285 -220 263 -254 c 0
 241 -288 216 -315 189 -336 c 0
 162 -357 133 -376 103 -390 c 0
 73 -404 46 -414 23 -420 c 0
 0 -426 -20 -428 -36 -428 c 0
 -64 -428 -89 -423 -111 -413 c 0
 -133 -403 -148 -394 -157 -386 c 0
 -166 -378 -178 -364 -193 -346 c 1
EndSplineSet
EndChar

StartChar: minus
Encoding: 8722 8722 389
Width: 716
Flags: HMW
LayerCount: 2
Fore
SplineSet
219 712 m 1
 799 712 l 1
 769 570 l 1
 189 570 l 1
 219 712 l 1
EndSplineSet
EndChar

StartChar: longs
Encoding: 383 383 390
Width: 716
Flags: HMW
LayerCount: 2
Fore
SplineSet
491 1073 m 1
 520 1208 l 2
 529 1248 546 1286 573 1321 c 0
 600 1356 631 1385 665 1408 c 0
 699 1431 734 1449 769 1462 c 0
 804 1475 834 1481 860 1481 c 0
 899 1481 929 1474 952 1460 c 0
 975 1446 997 1426 1020 1399 c 1
 889 1294 l 1
 883 1306 877 1315 872 1321 c 0
 867 1327 858 1333 846 1338 c 0
 834 1343 819 1346 800 1346 c 0
 773 1346 750 1337 727 1320 c 0
 704 1303 688 1279 682 1249 c 2
 645 1073 l 1
 416 0 l 1
 264 0 l 1
 491 1073 l 1
EndSplineSet
EndChar

StartChar: uni2206
Encoding: 8710 8710 391
Width: 1562
Flags: HMW
LayerCount: 2
Fore
SplineSet
120 0 m 1
 1008 1440 l 1
 1187 1440 l 1
 1462 0 l 1
 120 0 l 1
427 157 m 1
 1230 157 l 1
 1060 1247 l 1
 427 157 l 1
EndSplineSet
EndChar

StartChar: uni2126
Encoding: 8486 8486 392
Width: 1358
Flags: HMW
LayerCount: 2
Fore
SplineSet
318 142 m 1
 285 193 262 249 247 309 c 0
 231 370 223 437 223 508 c 0
 223 579 230 651 246 725 c 0
 260 792 280 860 308 929 c 0
 336 998 371 1066 416 1135 c 0
 461 1204 511 1264 565 1317 c 0
 619 1370 684 1413 759 1446 c 0
 834 1479 912 1495 994 1495 c 0
 1075 1495 1145 1480 1204 1449 c 0
 1263 1418 1309 1377 1343 1324 c 0
 1377 1271 1401 1213 1417 1151 c 0
 1433 1089 1440 1022 1440 950 c 0
 1440 873 1432 798 1416 725 c 0
 1402 658 1380 591 1353 524 c 0
 1326 457 1290 389 1246 322 c 0
 1202 255 1151 196 1092 146 c 2
 1087 142 l 1
 1363 142 l 1
 1333 0 l 1
 818 0 l 1
 848 142 l 1
 903 168 954 202 1002 246 c 0
 1050 290 1091 339 1124 394 c 0
 1157 449 1183 503 1203 558 c 0
 1223 613 1238 668 1250 725 c 0
 1267 804 1274 879 1275 952 c 0
 1275 1007 1269 1058 1259 1104 c 0
 1249 1150 1232 1192 1209 1231 c 0
 1186 1270 1153 1300 1112 1322 c 0
 1071 1344 1021 1354 964 1354 c 0
 902 1354 843 1341 788 1314 c 0
 733 1287 686 1252 646 1210 c 0
 606 1168 570 1118 538 1062 c 0
 506 1006 480 950 460 894 c 0
 440 838 424 782 412 725 c 0
 396 651 388 578 388 507 c 0
 387.93622915 503.492603227 387.90499207 500.009606781 387.90499207 496.550491988 c 0
 387.90499207 445.766723544 394.637708504 400.130311731 404 358 c 0
 414 313 433 271 463 232 c 0
 493 193 528 163 570 142 c 1
 571 142 l 1
 541 0 l 1
 25 0 l 1
 56 142 l 1
 318 142 l 1
EndSplineSet
EndChar

StartChar: arrowleft
Encoding: 8592 8592 393
Width: 1674
Flags: HMW
LayerCount: 2
Fore
SplineSet
424 224 m 0
 222 480 l 0
 532 736 l 0
 428 544 l 0
 1670 544 l 0
 1642 416 l 0
 400 416 l 0
 424 224 l 0
EndSplineSet
EndChar

StartChar: arrowup
Encoding: 8593 8593 394
Width: 1012
Flags: HMW
LayerCount: 2
Fore
SplineSet
500 1178 m 0
 811 1434 l 0
 1012 1178 l 0
 834 1242 l 0
 570 0 l 0
 442 0 l 0
 706 1242 l 0
 500 1178 l 0
EndSplineSet
EndChar

StartChar: arrowright
Encoding: 8594 8594 395
Width: 1674
Flags: HMW
LayerCount: 2
Fore
SplineSet
1450 416 m 0
 208 416 l 0
 236 544 l 0
 1478 544 l 0
 1454 736 l 0
 1656 480 l 0
 1346 224 l 0
 1450 416 l 0
EndSplineSet
EndChar

StartChar: arrowdown
Encoding: 8595 8595 396
Width: 1012
Flags: HMW
LayerCount: 2
Fore
SplineSet
483 194 m 0
 747 1434 l 0
 875 1434 l 0
 611 194 l 0
 817 258 l 0
 506 0 l 0
 305 258 l 0
 483 194 l 0
EndSplineSet
EndChar

StartChar: arrowboth
Encoding: 8596 8596 397
Width: 1674
Flags: HMW
LayerCount: 2
Fore
SplineSet
400 416 m 0
 424 224 l 0
 222 480 l 0
 532 736 l 0
 428 544 l 0
 1478 544 l 0
 1454 736 l 0
 1656 480 l 0
 1346 224 l 0
 1450 416 l 0
 400 416 l 0
EndSplineSet
EndChar

StartChar: arrowupdn
Encoding: 8597 8597 398
Width: 1012
Flags: HMW
LayerCount: 2
Fore
SplineSet
611 194 m 0
 817 258 l 0
 506 0 l 0
 305 258 l 0
 483 194 l 0
 706 1242 l 0
 500 1178 l 0
 811 1434 l 0
 1012 1178 l 0
 834 1242 l 0
 611 194 l 0
EndSplineSet
EndChar

StartChar: uni2196
Encoding: 8598 8598 399
Width: 1674
Flags: HMW
LayerCount: 2
Fore
SplineSet
496 884 m 0
 573 1248 l 0
 935 1246 l 0
 736 1156 l 0
 1427 278 l 0
 1316 188 l 0
 625 1066 l 0
 496 884 l 0
EndSplineSet
EndChar

StartChar: uni2197
Encoding: 8599 8599 400
Width: 1674
Flags: HMW
LayerCount: 2
Fore
SplineSet
1269 1246 m 0
 1633 1248 l 0
 1554 884 l 0
 1503 1066 l 0
 438 188 l 0
 367 278 l 0
 1432 1156 l 0
 1269 1246 l 0
EndSplineSet
EndChar

StartChar: uni2198
Encoding: 8600 8600 401
Width: 1674
Flags: HMW
LayerCount: 2
Fore
SplineSet
1245 278 m 0
 554 1156 l 0
 663 1248 l 0
 1355 370 l 0
 1483 550 l 0
 1408 188 l 0
 1044 188 l 0
 1245 278 l 0
EndSplineSet
EndChar

StartChar: uni2199
Encoding: 8601 8601 402
Width: 1674
Flags: HMW
LayerCount: 2
Fore
SplineSet
477 370 m 0
 1541 1248 l 0
 1614 1156 l 0
 549 278 l 0
 710 188 l 0
 348 188 l 0
 425 550 l 0
 477 370 l 0
EndSplineSet
EndChar

StartChar: uni219A
Encoding: 8602 8602 403
Width: 1674
Flags: HMW
LayerCount: 2
Fore
SplineSet
840 416 m 0
 400 416 l 0
 424 224 l 0
 222 480 l 0
 532 736 l 0
 428 544 l 0
 910 544 l 0
 1087 872 l 0
 1215 872 l 0
 1038 544 l 0
 1670 544 l 0
 1642 416 l 0
 968 416 l 0
 793 88 l 0
 665 88 l 0
 840 416 l 0
EndSplineSet
EndChar

StartChar: uni219B
Encoding: 8603 8603 404
Width: 1674
Flags: HMW
LayerCount: 2
Fore
SplineSet
1038 544 m 0
 1478 544 l 0
 1454 736 l 0
 1656 480 l 0
 1346 224 l 0
 1450 416 l 0
 968 416 l 0
 793 88 l 0
 665 88 l 0
 840 416 l 0
 208 416 l 0
 236 544 l 0
 910 544 l 0
 1087 872 l 0
 1215 872 l 0
 1038 544 l 0
EndSplineSet
EndChar

StartChar: uni219C
Encoding: 8604 8604 405
Width: 1674
Flags: HMW
LayerCount: 2
Fore
SplineSet
355 258 m 0
 335 608 l 0
 705 702 l 0
 524 566 l 0
 642 490 l 0
 689 461 739 446 790 446 c 0
 859 446 931 473 1006 525 c 0
 1137 616 1260 662 1373 662 c 0
 1421 662 1461 653 1493 636 c 0
 1591 570 l 0
 1503 458 l 0
 1439 502 l 0
 1414 519 1368 528 1304 528 c 0
 1241 528 1159 493 1056 423 c 0
 953 353 856 318 764 318 c 0
 680 325 610 345 554 378 c 0
 437 456 l 0
 355 258 l 0
EndSplineSet
EndChar

StartChar: uni219D
Encoding: 8605 8605 406
Width: 1674
Flags: HMW
LayerCount: 2
Fore
SplineSet
1433 456 m 0
 1280 378 l 0
 1212 345 1134 325 1048 318 c 0
 956 318 873 353 800 423 c 0
 727 493 658 528 594 528 c 0
 531 528 484 519 449 502 c 0
 367 458 l 0
 327 570 l 0
 453 636 l 0
 492 653 536 662 585 662 c 0
 698 662 801 616 894 525 c 0
 947 473 1008 446 1076 446 c 0
 1127 446 1181 461 1240 490 c 0
 1392 566 l 0
 1269 702 l 0
 1599 608 l 0
 1431 258 l 0
 1433 456 l 0
EndSplineSet
EndChar

StartChar: uni219E
Encoding: 8606 8606 407
Width: 1674
Flags: HMW
LayerCount: 2
Fore
SplineSet
428 544 m 0
 462 544 l 0
 694 736 l 0
 590 544 l 0
 1670 544 l 0
 1642 416 l 0
 562 416 l 0
 586 224 l 0
 434 416 l 0
 400 416 l 0
 424 224 l 0
 222 480 l 0
 532 736 l 0
 428 544 l 0
EndSplineSet
EndChar

StartChar: uni219F
Encoding: 8607 8607 408
Width: 1012
Flags: HMW
LayerCount: 2
Fore
SplineSet
834 1242 m 0
 827 1208 l 0
 978 1016 l 0
 800 1080 l 0
 570 0 l 0
 442 0 l 0
 672 1080 l 0
 466 1016 l 0
 699 1208 l 0
 706 1242 l 0
 500 1178 l 0
 811 1434 l 0
 1012 1178 l 0
 834 1242 l 0
EndSplineSet
EndChar

StartChar: uni21A0
Encoding: 8608 8608 409
Width: 1674
Flags: HMW
LayerCount: 2
Fore
SplineSet
1450 416 m 0
 1416 416 l 0
 1184 224 l 0
 1288 416 l 0
 208 416 l 0
 236 544 l 0
 1316 544 l 0
 1292 736 l 0
 1444 544 l 0
 1478 544 l 0
 1454 736 l 0
 1656 480 l 0
 1346 224 l 0
 1450 416 l 0
EndSplineSet
EndChar

StartChar: uni21A1
Encoding: 8609 8609 410
Width: 1012
Flags: HMW
LayerCount: 2
Fore
SplineSet
483 192 m 0
 490 226 l 0
 339 418 l 0
 517 354 l 0
 747 1434 l 0
 875 1434 l 0
 645 354 l 0
 851 418 l 0
 618 226 l 0
 611 192 l 0
 816 256 l 0
 506 0 l 0
 304 256 l 0
 483 192 l 0
EndSplineSet
EndChar

StartChar: uni21A2
Encoding: 8610 8610 411
Width: 1674
Flags: HMW
LayerCount: 2
Fore
SplineSet
1404 416 m 0
 400 416 l 0
 424 224 l 0
 222 480 l 0
 532 736 l 0
 428 544 l 0
 1432 544 l 0
 1624 736 l 0
 1752 736 l 0
 1498 482 l 0
 1644 224 l 0
 1516 224 l 0
 1404 416 l 0
EndSplineSet
EndChar

StartChar: uni21A3
Encoding: 8611 8611 412
Width: 1674
Flags: HMW
LayerCount: 2
Fore
SplineSet
296 224 m 0
 168 224 l 0
 422 482 l 0
 276 736 l 0
 404 736 l 0
 516 544 l 0
 1520 544 l 0
 1496 736 l 0
 1698 480 l 0
 1388 224 l 0
 1492 416 l 0
 488 416 l 0
 296 224 l 0
EndSplineSet
EndChar

StartChar: uni21A4
Encoding: 8612 8612 413
Width: 1674
Flags: HMW
LayerCount: 2
Fore
SplineSet
1606 544 m 0
 1633 672 l 0
 1697 672 l 0
 1615 288 l 0
 1551 288 l 0
 1578 416 l 0
 400 416 l 0
 424 224 l 0
 222 480 l 0
 532 736 l 0
 428 544 l 0
 1606 544 l 0
EndSplineSet
EndChar

StartChar: uni21A5
Encoding: 8613 8613 414
Width: 1012
Flags: HMW
LayerCount: 2
Fore
SplineSet
582 64 m 0
 710 64 l 0
 696 0 l 0
 312 0 l 0
 326 64 l 0
 454 64 l 0
 704 1242 l 0
 498 1178 l 0
 809 1434 l 0
 1010 1178 l 0
 832 1242 l 0
 582 64 l 0
EndSplineSet
EndChar

StartChar: uni21A6
Encoding: 8614 8614 415
Width: 1674
Flags: HMW
LayerCount: 2
Fore
SplineSet
1606 544 m 0
 1633 672 l 0
 1697 672 l 0
 1615 288 l 0
 1551 288 l 0
 1578 416 l 0
 400 416 l 0
 424 224 l 0
 222 480 l 0
 532 736 l 0
 428 544 l 0
 1606 544 l 0
EndSplineSet
EndChar

StartChar: uni21A7
Encoding: 8615 8615 416
Width: 1012
Flags: HMW
LayerCount: 2
Fore
SplineSet
733 1370 m 0
 605 1370 l 0
 619 1434 l 0
 1003 1434 l 0
 989 1370 l 0
 861 1370 l 0
 611 192 l 0
 816 256 l 0
 506 0 l 0
 304 256 l 0
 483 192 l 0
 733 1370 l 0
EndSplineSet
EndChar

StartChar: arrowupdnbse
Encoding: 8616 8616 417
Width: 1012
Flags: HMW
LayerCount: 2
Fore
SplineSet
141 100 m 0
 905 100 l 0
 884 0 l 0
 120 0 l 0
 141 100 l 0
646 356 m 0
 851 420 l 0
 540 162 l 0
 339 420 l 0
 518 356 l 0
 706 1242 l 0
 500 1178 l 0
 811 1434 l 0
 1012 1178 l 0
 834 1242 l 0
 646 356 l 0
EndSplineSet
EndChar

StartChar: uni21B0
Encoding: 8624 8624 418
Width: 1012
Flags: HMW
LayerCount: 2
Fore
SplineSet
970 1112 m 0
 548 1112 l 0
 572 920 l 0
 370 1176 l 0
 680 1432 l 0
 576 1240 l 0
 1126 1242 l 0
 862 0 l 0
 734 0 l 0
 970 1112 l 0
EndSplineSet
EndChar

StartChar: uni21B1
Encoding: 8625 8625 419
Width: 1012
Flags: HMW
LayerCount: 2
Fore
SplineSet
278 0 m 0
 150 0 l 0
 414 1242 l 0
 964 1240 l 0
 940 1432 l 0
 1142 1176 l 0
 832 920 l 0
 936 1112 l 0
 514 1112 l 0
 278 0 l 0
EndSplineSet
EndChar

StartChar: uni21B2
Encoding: 8626 8626 420
Width: 1012
Flags: HMW
LayerCount: 2
Fore
SplineSet
1038 1432 m 0
 1166 1432 l 0
 903 192 l 0
 353 192 l 0
 376 0 l 0
 174 256 l 0
 485 512 l 0
 380 320 l 0
 802 320 l 0
 1038 1432 l 0
EndSplineSet
EndChar

StartChar: uni21B3
Encoding: 8627 8627 421
Width: 1012
Flags: HMW
LayerCount: 2
Fore
SplineSet
346 320 m 0
 768 320 l 0
 745 512 l 0
 946 256 l 0
 636 0 l 0
 741 192 l 0
 191 192 l 0
 454 1432 l 0
 582 1432 l 0
 346 320 l 0
EndSplineSet
EndChar

StartChar: uni21B4
Encoding: 8628 8628 422
Width: 1012
Flags: HMW
LayerCount: 2
Fore
SplineSet
398 1306 m 0
 425 1434 l 0
 1021 1434 l 0
 756 196 l 0
 961 260 l 0
 651 4 l 0
 449 260 l 0
 628 196 l 0
 864 1306 l 0
 398 1306 l 0
EndSplineSet
EndChar

StartChar: carriagereturn
Encoding: 8629 8629 423
Width: 1674
Flags: HMW
LayerCount: 2
Fore
SplineSet
1592 1432 m 0
 1720 1432 l 0
 1457 192 l 0
 353 192 l 0
 376 0 l 0
 174 256 l 0
 485 512 l 0
 380 320 l 0
 1356 320 l 0
 1592 1432 l 0
EndSplineSet
EndChar

StartChar: uni21B6
Encoding: 8630 8630 424
Width: 1674
Flags: HMW
LayerCount: 2
Fore
SplineSet
1623 718 m 0
 1631.06504495 761.147990483 1635.06478052 802.669857214 1635.06478052 842.631174001 c 0
 1635.06478052 901.767424639 1626.30568482 957.48619778 1609 1010 c 0
 1579 1099 1523 1174 1443 1233 c 0
 1363 1292 1266 1323 1153 1324 c 0
 1150 1324 1147 1324 1144 1324 c 0
 1037 1324 934 1300 836 1252 c 0
 734 1201 645 1129 568 1034 c 0
 529 985 495 934 469 882 c 0
 571 888 l 0
 318 716 l 0
 280 978 l 0
 350 920 l 0
 380 981 418 1040 465 1096 c 0
 562 1212 673 1301 798 1364 c 0
 921 1424 1047 1454 1180 1454 c 0
 1183 1454 1186 1454 1189 1454 c 0
 1325 1453 1441 1416 1538 1344 c 0
 1635 1272 1701 1182 1738 1074 c 0
 1759.38821494 1010.42947227 1770.18717667 942.976218374 1770.18717667 871.220821222 c 0
 1770.18717667 822.199692367 1765.14707296 771.170662316 1755 718 c 0
 1623 718 l 0
EndSplineSet
EndChar

StartChar: uni21B7
Encoding: 8631 8631 425
Width: 1674
Flags: HMW
LayerCount: 2
Fore
SplineSet
225 718 m 0
 256 849 310 967 392 1074 c 0
 475 1182 581 1272 708 1344 c 0
 835 1416 967 1453 1103 1454 c 0
 1106 1454 1109 1454 1112 1454 c 0
 1245 1454 1359 1424 1456 1364 c 0
 1555 1301 1628 1212 1675 1096 c 0
 1698 1040 1712 981 1716 920 c 0
 1810 978 l 0
 1660 716 l 0
 1481 888 l 0
 1579 882 l 0
 1575 934 1565 985 1546 1034 c 0
 1509 1129 1450 1201 1370 1252 c 0
 1292 1300 1199 1324 1092 1324 c 0
 1089 1324 1086 1324 1083 1324 c 0
 970 1323 861 1292 755 1233 c 0
 649 1174 563 1099 495 1010 c 0
 428 922 383 825 359 718 c 0
 225 718 l 0
EndSplineSet
EndChar

StartChar: uni21B8
Encoding: 8632 8632 426
Width: 1674
Flags: HMW
LayerCount: 2
Fore
SplineSet
456 698 m 0
 533 1060 l 0
 895 1060 l 0
 696 970 l 0
 1388 92 l 0
 1276 0 l 0
 585 878 l 0
 456 698 l 0
613 1434 m 0
 1673 1434 l 0
 1646 1306 l 0
 586 1306 l 0
 613 1434 l 0
EndSplineSet
EndChar

StartChar: uni21B9
Encoding: 8633 8633 427
Width: 1674
Flags: HMW
LayerCount: 2
Fore
SplineSet
634 508 m 0
 432 764 l 0
 743 1020 l 0
 638 828 l 0
 1730 828 l 0
 1703 700 l 0
 611 700 l 0
 634 508 l 0
228 506 m 0
 336 1018 l 0
 436 1018 l 0
 328 506 l 0
 228 506 l 0
1255 194 m 0
 161 194 l 0
 188 322 l 0
 1282 322 l 0
 1259 514 l 0
 1461 258 l 0
 1150 2 l 0
 1255 194 l 0
1454 0 m 0
 1563 512 l 0
 1663 512 l 0
 1554 0 l 0
 1454 0 l 0
EndSplineSet
EndChar

StartChar: uni21BA
Encoding: 8634 8634 428
Width: 1674
Flags: HMW
LayerCount: 2
Fore
SplineSet
371 718 m 0
 364 685 360 652 358 620 c 0
 357.537828159 610.479260066 357.306347353 601.035417145 357.306347353 591.666891696 c 0
 357.306347353 499.682147549 379.621718414 414.958209959 425 336 c 0
 475 248 550 186 647 150 c 0
 714 125 783 113 854 113 c 0
 885 113 918 115 950 120 c 0
 1054 137 1156 179 1257 246 c 0
 1358 313 1440 399 1501 504 c 0
 1544 579 1573 652 1589 725 c 0
 1595 755 1600 784 1601 814 c 0
 1601.43232347 822.905863544 1601.64783879 831.744441797 1601.64783879 840.517027604 c 0
 1601.64783879 933.203029581 1577.59030058 1018.52242843 1531 1098 c 0
 1504 1142 1472 1179 1435 1210 c 0
 1385 1114 l 0
 1352 1376 l 0
 1630 1376 l 0
 1536 1316 l 0
 1580 1280 1618 1236 1648 1184 c 0
 1703.79111746 1087.71532954 1732.05100215 984.142979826 1732.05100215 871.82564701 c 0
 1732.05100215 859.326074347 1731.70100287 846.71819488 1731 834 c 0
 1729 796 1724 759 1716 721 c 0
 1697 633 1663 544 1611 454 c 0
 1537 326 1438 221 1316 140 c 0
 1194 59 1069 9 942 -10 c 0
 902 -16 862 -19 823 -19 c 0
 738 -19 656 -5 576 25 c 0
 459 68 370 143 309 250 c 0
 254.11752888 346.26925262 225.947991379 449.823850772 225.947991379 560.663794456 c 0
 225.947991379 573.018678315 226.297988489 585.464080163 227 598 c 0
 229 638 234 678 243 718 c 0
 371 718 l 0
EndSplineSet
EndChar

StartChar: uni21BB
Encoding: 8635 8635 429
Width: 1674
Flags: HMW
LayerCount: 2
Fore
SplineSet
1737 718 m 0
 1728 678 1717 638 1701 598 c 0
 1654 473 1578 357 1471 250 c 0
 1364 143 1243 68 1108 25 c 0
 1016 -5 928 -19 843 -19 c 0
 804 -19 766 -16 728 -10 c 0
 609 9 506 59 418 140 c 0
 330 221 277 326 257 454 c 0
 250.956525848 492.850905264 247.894568416 531.515465733 247.894568416 569.993681407 c 0
 247.894568416 620.652112283 253.201857778 670.987551814 264 721 c 0
 272 759 283 796 297 834 c 0
 344 961 422 1077 530 1184 c 0
 582 1236 638 1280 698 1316 c 0
 628 1376 l 0
 906 1376 l 0
 763 1114 l 0
 753 1210 l 0
 702 1179 654 1142 609 1098 c 0
 522 1011 458 917 419 814 c 0
 408 784 399 755 393 725 c 0
 383.955385043 683.733944261 379.704035304 642.467888522 379.704035304 600.840555797 c 0
 379.704035304 568.828786493 382.218172783 536.603367391 387 504 c 0
 404 399 448 313 521 246 c 0
 594 179 680 137 776 120 c 0
 806 115 837 113 868 113 c 0
 939 113 1014 125 1091 150 c 0
 1204 186 1303 248 1391 336 c 0
 1477 423 1541 517 1580 620 c 0
 1592 652 1602 685 1609 718 c 0
 1737 718 l 0
EndSplineSet
EndChar

StartChar: uni21BC
Encoding: 8636 8636 430
Width: 1674
Flags: HMW
LayerCount: 2
Fore
SplineSet
236 544 m 0
 624 864 l 0
 519 672 l 0
 1697 672 l 0
 1670 544 l 0
 236 544 l 0
EndSplineSet
EndChar

StartChar: uni21BD
Encoding: 8637 8637 431
Width: 1674
Flags: HMW
LayerCount: 2
Fore
SplineSet
1670 544 m 0
 1642 416 l 0
 464 416 l 0
 488 224 l 0
 236 544 l 0
 1670 544 l 0
EndSplineSet
EndChar

StartChar: uni21BE
Encoding: 8638 8638 432
Width: 1024
Flags: HMW
LayerCount: 2
Fore
SplineSet
753 1434 m 0
 1005 1114 l 0
 826 1178 l 0
 576 0 l 0
 448 0 l 0
 753 1434 l 0
EndSplineSet
EndChar

StartChar: uni21BF
Encoding: 8639 8639 433
Width: 1024
Flags: HMW
LayerCount: 2
Fore
SplineSet
493 1114 m 0
 881 1434 l 0
 576 0 l 0
 448 0 l 0
 698 1178 l 0
 493 1114 l 0
EndSplineSet
EndChar

StartChar: uni21C0
Encoding: 8640 8640 434
Width: 1674
Flags: HMW
LayerCount: 2
Fore
SplineSet
235 542 m 0
 262 670 l 0
 1440 670 l 0
 1417 862 l 0
 1669 542 l 0
 235 542 l 0
EndSplineSet
EndChar

StartChar: uni21C1
Encoding: 8641 8641 435
Width: 1674
Flags: HMW
LayerCount: 2
Fore
SplineSet
1386 416 m 0
 208 416 l 0
 236 544 l 0
 1670 544 l 0
 1282 224 l 0
 1386 416 l 0
EndSplineSet
EndChar

StartChar: uni21C2
Encoding: 8642 8642 436
Width: 1024
Flags: HMW
LayerCount: 2
Fore
SplineSet
753 1434 m 0
 881 1434 l 0
 631 258 l 0
 836 322 l 0
 448 0 l 0
 753 1434 l 0
EndSplineSet
EndChar

StartChar: uni21C3
Encoding: 8643 8643 437
Width: 1024
Flags: HMW
LayerCount: 2
Fore
SplineSet
503 258 m 0
 753 1434 l 0
 881 1434 l 0
 576 0 l 0
 324 322 l 0
 503 258 l 0
EndSplineSet
EndChar

StartChar: uni21C4
Encoding: 8644 8644 438
Width: 1674
Flags: HMW
LayerCount: 2
Fore
SplineSet
374 -10 m 0
 172 246 l 0
 483 502 l 0
 378 310 l 0
 1620 310 l 0
 1593 182 l 0
 351 182 l 0
 374 -10 l 0
1498 640 m 0
 256 640 l 0
 283 768 l 0
 1525 768 l 0
 1502 960 l 0
 1704 704 l 0
 1393 448 l 0
 1498 640 l 0
EndSplineSet
EndChar

StartChar: uni21C5
Encoding: 8645 8645 439
Width: 1674
Flags: HMW
LayerCount: 2
Fore
SplineSet
580 1178 m 0
 891 1434 l 0
 1092 1178 l 0
 914 1242 l 0
 650 0 l 0
 522 0 l 0
 786 1242 l 0
 580 1178 l 0
1065 194 m 0
 1329 1436 l 0
 1457 1436 l 0
 1193 194 l 0
 1399 258 l 0
 1088 2 l 0
 887 258 l 0
 1065 194 l 0
EndSplineSet
EndChar

StartChar: uni21C6
Encoding: 8646 8646 440
Width: 1674
Flags: HMW
LayerCount: 2
Fore
SplineSet
1401 182 m 0
 159 182 l 0
 186 310 l 0
 1428 310 l 0
 1405 502 l 0
 1606 246 l 0
 1296 -10 l 0
 1401 182 l 0
471 448 m 0
 270 704 l 0
 580 960 l 0
 475 768 l 0
 1717 768 l 0
 1690 640 l 0
 448 640 l 0
 471 448 l 0
EndSplineSet
EndChar

StartChar: uni21C7
Encoding: 8647 8647 441
Width: 1674
Flags: HMW
LayerCount: 2
Fore
SplineSet
481 768 m 0
 1717 768 l 0
 1690 640 l 0
 454 640 l 0
 485 512 l 0
 270 704 l 0
 566 896 l 0
 481 768 l 0
386 310 m 0
 1620 310 l 0
 1593 182 l 0
 359 182 l 0
 387 54 l 0
 172 246 l 0
 469 438 l 0
 386 310 l 0
EndSplineSet
EndChar

StartChar: uni21C8
Encoding: 8648 8648 442
Width: 1674
Flags: HMW
LayerCount: 2
Fore
SplineSet
1393 1236 m 0
 1130 0 l 0
 1002 0 l 0
 1265 1236 l 0
 1124 1178 l 0
 1371 1434 l 0
 1508 1178 l 0
 1393 1236 l 0
934 1234 m 0
 672 0 l 0
 544 0 l 0
 806 1234 l 0
 666 1178 l 0
 913 1434 l 0
 1050 1178 l 0
 934 1234 l 0
EndSplineSet
EndChar

StartChar: uni21C9
Encoding: 8649 8649 443
Width: 1674
Flags: HMW
LayerCount: 2
Fore
SplineSet
1488 896 m 0
 1704 704 l 0
 1407 512 l 0
 1492 640 l 0
 256 640 l 0
 283 768 l 0
 1519 768 l 0
 1488 896 l 0
1391 438 m 0
 1606 246 l 0
 1309 54 l 0
 1393 182 l 0
 159 182 l 0
 186 310 l 0
 1420 310 l 0
 1391 438 l 0
EndSplineSet
EndChar

StartChar: uni21CA
Encoding: 8650 8650 444
Width: 1674
Flags: HMW
LayerCount: 2
Fore
SplineSet
1312 256 m 0
 1066 0 l 0
 928 256 l 0
 1044 198 l 0
 1307 1434 l 0
 1435 1434 l 0
 1172 198 l 0
 1312 256 l 0
854 256 m 0
 608 0 l 0
 470 256 l 0
 587 200 l 0
 849 1434 l 0
 977 1434 l 0
 715 200 l 0
 854 256 l 0
EndSplineSet
EndChar

StartChar: uni21CB
Encoding: 8651 8651 445
Width: 1674
Flags: HMW
LayerCount: 2
Fore
SplineSet
1656 480 m 0
 1268 160 l 0
 1373 352 l 0
 195 352 l 0
 222 480 l 0
 1656 480 l 0
249 608 m 0
 637 928 l 0
 532 736 l 0
 1710 736 l 0
 1683 608 l 0
 249 608 l 0
EndSplineSet
EndChar

StartChar: uni21CC
Encoding: 8652 8652 446
Width: 1674
Flags: HMW
LayerCount: 2
Fore
SplineSet
1656 480 m 0
 1629 352 l 0
 451 352 l 0
 474 160 l 0
 222 480 l 0
 1656 480 l 0
249 608 m 0
 276 736 l 0
 1454 736 l 0
 1431 928 l 0
 1683 608 l 0
 249 608 l 0
EndSplineSet
EndChar

StartChar: forint
Encoding: 57493 57493 447
Width: 1146
Flags: HMW
LayerCount: 2
Fore
SplineSet
430 1456 m 1
 1341 1456 l 1
 1312 1315 l 1
 559 1315 l 1
 453 817 l 1
 867 817 l 1
 941 1167 l 1
 1092 1167 l 1
 1018 817 l 1
 1206 817 l 1
 1176 676 l 1
 988 676 l 1
 890 215 l 2
 886.984009683 201.16192678 885.478806509 188.551368114 885.478806509 177.168324003 c 0
 885.478806509 124.389441334 917.83807322 98 982 98 c 2
 1052 98 l 1
 1025 -29 l 1
 955 -29 l 2
 856 -29 791 -11 759 26 c 0
 738.52 49.68 728.28 83.6 728.28 127.497856 c 0
 728.28 152.1904 731.52 180.04 738 211 c 2
 837 676 l 1
 423 676 l 1
 279 0 l 1
 121 0 l 1
 430 1456 l 1
EndSplineSet
EndChar

StartChar: aalt
Encoding: 57936 57936 448
Width: 993
Flags: HMW
LayerCount: 2
Fore
SplineSet
219 89 m 1
 181.965295114 139.261385203 163.737185489 203.081013501 163.737185489 280.169642076 c 0
 163.737185489 319.646359801 168.517352443 362.602760168 178 409 c 2
 230 661 l 2
 230 662 231 663 231 664 c 0
 260 799 320 904 409 981 c 1
 514 1054 621 1090 734 1090 c 0
 830 1090 905 1061 961 1003 c 1
 976 1073 l 1
 1116 1073 l 1
 888 0 l 1
 748 0 l 1
 781 156 l 1
 776 143 766 128 748 108 c 0
 730 88 707 67 680 46 c 0
 653 25 621 8 583 -7 c 0
 545 -22 508 -29 472 -29 c 0
 368 -29 282 10 219 89 c 1
372 661 m 1
 319 409 l 2
 311.249938995 372.187210224 307.404001952 338.527751342 307.404001952 308.079810274 c 0
 307.404001952 259.953038068 317.012594558 219.849841386 336 188 c 0
 368 133 434 106 533 106 c 0
 597 106 658 130 715 176 c 0
 772 222 806 277 820 341 c 1
 885 655 l 2
 892.584551824 692.922759122 896.504048783 727.499163801 896.504048783 758.665603514 c 0
 896.504048783 805.573962188 887.625204918 844.757720782 869 876 c 0
 838 928 783 954 705 954 c 0
 659 954 618 948 580 935 c 0
 542 922 509 905 481 882 c 1
 429 831 393 757 372 661 c 1
EndSplineSet
EndChar

StartChar: xalt
Encoding: 57960 57960 453
Width: 1100
Flags: HMW
LayerCount: 2
Fore
SplineSet
611 636 m 1
 616.860791445 663.350360077 619.821011108 689.784750117 619.821011108 715.303170121 c 0
 619.821011108 755.096116961 612.622733688 792.661726921 598 828 c 0
 571 893 534 926 487 926 c 0
 460 926 436 922 414 914 c 0
 395 907 360 879 309 832 c 1
 245 934 l 1
 273 961 296 982 314 996 c 0
 373 1041 440 1064 516 1064 c 0
 619 1064 683 1023 708 942 c 0
 735 876 l 0
 752 903 771 928 794 952 c 0
 868 1033 950 1074 1040 1074 c 0
 1113 1074 1170 1051 1211 1004 c 0
 1226 986 1242 966 1255 944 c 1
 1147 842 l 1
 1116 889 1091 916 1074 924 c 0
 1057 932 1036 936 1011 936 c 0
 961 936 909 903 854 838 c 0
 816 793 789 729 771 644 c 1
 722 416 l 1
 713.18 374.42 708.77 337.25 708.77 304.638176 c 0
 708.77 259.6028 717.18 223.26 734 196 c 0
 762 149 796 126 835 126 c 0
 898 126 962 162 1026 234 c 1
 1090 134 l 1
 1030 75 978 35 933 16 c 0
 892 -1 850 -10 806 -10 c 0
 687 -10 614 45 589 156 c 0
 587 162 587 165 587 166 c 1
 586 166 583 163 579 156 c 0
 491 39 395 -20 290 -20 c 0
 247 -20 207 -11 171 6 c 0
 134 23 98 63 64 124 c 1
 172 224 l 1
 208 152 256 116 319 116 c 0
 362 116 405 140 448 188 c 0
 507 254 544 322 559 392 c 1
 611 636 l 1
EndSplineSet
EndChar

StartChar: estimated
Encoding: 8494 8494 459
Width: 1271
VWidth: 0
Flags: HMW
LayerCount: 2
Fore
SplineSet
371 493 m 2
 315 231 l 2
 312 217 317 199 331 178 c 0
 345 157 365 137 392 116 c 0
 419 95 453 77 498 63 c 0
 543 49 593 42 645 42 c 0
 716 42 788 57 861 89 c 0
 934 121 997 162 1052 212 c 1
 1161 212 l 1
 1070 130 985 74 906 44 c 0
 859 27 818 16 781 10 c 0
 744 4 695 0 636 0 c 0
 543 0 465 12 402 36 c 0
 339 60 286 98 243 149 c 0
 180.704447756 222.885422429 149.366631306 310.413236902 149.366631306 412.343604732 c 0
 149.366631306 451.129729776 153.904107256 492.001234303 163 535 c 0
 195 687 277 816 409 922 c 1
 475 973 544 1012 616 1036 c 0
 688 1060 771 1072 864 1072 c 0
 949 1072 1020 1061 1080 1040 c 0
 1140 1019 1194 985 1241 939 c 0
 1310.46647747 871.774376643 1344.78296488 776.651935781 1344.78296488 654.049428735 c 0
 1344.78296488 612.514735067 1340.84450751 567.82619095 1333 520 c 1
 400 520 l 2
 395 520 390 520 387 519 c 0
 384 518 381 515 378 511 c 0
 375 507 373 501 371 493 c 2
1127 579 m 2
 1182 836 l 2
 1182.91035943 840.248344 1183.36029981 844.519708953 1183.36029981 848.817587748 c 0
 1183.36029981 872.846183048 1169.29647629 897.703523715 1143 924 c 0
 1112 955 1070 981 1015 1002 c 0
 960 1023 907 1034 853 1034 c 0
 804 1034 754 1026 703 1011 c 0
 652 996 608 978 573 957 c 0
 538 936 508 916 485 896 c 0
 462 876 449 859 446 847 c 2
 387 567 l 2
 385 558 391 553 407 553 c 2
 1096 553 l 2
 1107 553 1114 555 1118 559 c 0
 1122 563 1125 569 1127 579 c 2
EndSplineSet
EndChar

StartChar: gradient
Encoding: 8711 8711 462
Width: 1562
Flags: HMW
LayerCount: 2
Fore
SplineSet
426 1440 m 1
 1768 1440 l 1
 881 0 l 1
 702 0 l 1
 426 1440 l 1
667 1283 m 1
 836 193 l 1
 1470 1283 l 1
 667 1283 l 1
EndSplineSet
EndChar

StartChar: foursuperior
Encoding: 8308 8308 463
Width: 750
VWidth: 1388
Flags: HMW
LayerCount: 2
Fore
SplineSet
820 1280 m 1
 914 1280 l 1
 884 1140 l 1
 790 1140 l 1
 748 941 l 1
 600 941 l 1
 642 1140 l 1
 307 1140 l 1
 778 1739 l 1
 918 1739 l 1
 820 1280 l 1
575 1281 m 1
 674 1281 l 1
 711 1454 l 1
 575 1281 l 1
EndSplineSet
EndChar

StartChar: centigrade
Encoding: 8451 8451 464
Width: 1220
Flags: HMW
LayerCount: 2
Fore
SplineSet
1227 280 m 0
 1208 241 1182 202 1151 162 c 0
 1125 127 1093 93 1055 60 c 0
 1018 28 977 3 930 -15 c 0
 883 -33 835 -42 784 -42 c 0
 721 -42 665 -28 618 -1 c 0
 571 26 533 64 506 112 c 0
 479 159 457 215 441 279 c 0
 420 362 409 430 405 484 c 0
 404.623026261 491.162501039 404.435531455 498.625010388 404.435531455 506.387528049 c 0
 404.435531455 560.400011081 413.513158259 628.937501731 431 712 c 0
 452 810 476 887 503 942 c 0
 549 1035 588 1105 619 1151 c 0
 664 1218 711 1276 760 1323 c 0
 809 1370 865 1409 926 1439 c 0
 985 1468 1046 1482 1110 1482 c 0
 1151 1482 1188 1476 1221 1464 c 0
 1254 1451 1282 1435 1304 1415 c 0
 1325 1396 1343 1372 1359 1344 c 0
 1374 1316 1385 1289 1393 1264 c 0
 1400 1237 1405 1209 1407 1181 c 0
 1278 1140 l 0
 1276 1201 1256 1249 1219 1286 c 0
 1182 1323 1135 1341 1080 1341 c 0
 1078 1341 l 0
 1031 1341 982 1322 930 1284 c 0
 873 1243 824 1195 783 1142 c 0
 737 1083 699 1016 668 942 c 0
 637 868 614 791 597 712 c 0
 584.841995766 655.938091588 579.071148746 602.613536268 579.071148746 551.718178942 c 0
 579.071148746 527.262646908 580.403557437 503.367983064 583 480 c 0
 592 395 607 328 627 278 c 0
 674 161 737 101 814 98 c 0
 816 98 819 98 821 98 c 0
 873 98 928 120 986 164 c 0
 1044 207 1087 260 1117 321 c 0
 1227 280 l 0
449 1418 m 0
 448 1411 448 1404 447 1396 c 0
 447 1375 453 1357 467 1343 c 0
 480 1330 499 1323 521 1323 c 0
 522 1323 522 1323 523 1323 c 0
 548 1323 571 1332 592 1350 c 0
 614 1369 627 1391 633 1418 c 0
 634 1424 635 1431 636 1439 c 0
 636 1460 629 1478 615 1493 c 0
 602 1507 584 1514 562 1514 c 0
 536 1514 512 1504 491 1486 c 0
 469 1467 455 1445 449 1418 c 0
358 1415 m 0
 369 1465 395 1508 438 1543 c 0
 481 1578 528 1596 579 1596 c 0
 623 1596 659 1582 687 1555 c 0
 713 1529 728 1495 729 1452 c 0
 729 1442 728 1430 725 1415 c 0
 714 1365 687 1322 644 1287 c 0
 601 1252 553 1234 502 1234 c 0
 458 1234 422 1248 395 1275 c 0
 369 1301 355 1336 354 1378 c 0
 354 1390 355 1402 358 1415 c 0
EndSplineSet
EndChar

StartChar: hyphentwo
Encoding: 8208 8208 465
Width: 1064
Flags: HMW
LayerCount: 2
Fore
SplineSet
269 712 m 0
 1096 712 l 0
 1066 570 l 0
 239 570 l 0
 269 712 l 0
EndSplineSet
EndChar

StartChar: hyphennobreak
Encoding: 8209 8209 466
Width: 1064
Flags: HMW
LayerCount: 2
Fore
SplineSet
269 712 m 0
 1096 712 l 0
 1066 570 l 0
 239 570 l 0
 269 712 l 0
EndSplineSet
EndChar

StartChar: afii10017
Encoding: 1040 1040 467
Width: 1302
Flags: HMW
LayerCount: 2
Fore
SplineSet
917 1214 m 0
 587 621 l 0
 1002 621 l 0
 917 1214 l 0
1010 485 m 0
 513 485 l 0
 248 0 l 0
 72 0 l 0
 905 1456 l 0
 1032 1456 l 0
 1247 0 l 0
 1067 0 l 0
 1010 485 l 0
EndSplineSet
EndChar

StartChar: afii10019
Encoding: 1042 1042 468
Width: 1098
Flags: HMW
LayerCount: 2
Fore
SplineSet
375 705 m 0
 255 141 l 0
 574 141 l 0
 621 141 664 147 704 158 c 0
 744 169 778 184 807 202 c 0
 836 220 863 241 885 266 c 0
 907 291 925 318 938 345 c 0
 951 372 961 401 967 430 c 0
 971.354143467 450.029059948 974.191601707 469.299777283 974.191601707 486.49137899 c 0
 974.191601707 489.041434669 974.129171307 491.545745174 974 494 c 0
 974 557 952 607 906 646 c 0
 860 685 790 705 694 705 c 0
 375 705 l 0
505 1317 m 0
 404 844 l 0
 641 844 l 0
 696 844 747 849 791 860 c 0
 835 871 871 885 897 901 c 0
 923 917 947 936 966 958 c 0
 985 980 999 1001 1007 1020 c 0
 1015 1039 1021 1059 1025 1079 c 0
 1029 1098 1031 1115 1031 1130 c 0
 1031 1153 1026 1175 1018 1195 c 0
 1010 1215 997 1235 977 1254 c 0
 957 1273 926 1287 886 1298 c 0
 846 1309 799 1315 742 1315 c 0
 732 1315 694 1315 626 1316 c 0
 558 1317 518 1317 505 1317 c 0
376 1456 m 0
 771 1456 l 0
 850 1456 918 1447 975 1430 c 0
 1032 1413 1076 1390 1107 1360 c 0
 1138 1330 1159 1298 1173 1264 c 0
 1187 1230 1194 1195 1194 1156 c 0
 1193 1128 1190 1102 1185 1079 c 0
 1168 1001 1126 932 1057 872 c 0
 988 812 926 782 868 782 c 0
 916 782 959 774 994 756 c 0
 1029 738 1057 714 1076 685 c 0
 1095 656 1108 625 1116 594 c 0
 1124 563 1128 530 1128 496 c 0
 1128 472 1126 448 1121 424 c 0
 1116 401 1111 379 1103 357 c 0
 1095 335 1084 309 1070 280 c 0
 1056 251 1039 225 1020 200 c 0
 1001 175 974 149 944 124 c 0
 914 99 882 78 845 60 c 0
 808 42 762 27 711 16 c 0
 660 5 604 0 544 0 c 0
 67 0 l 0
 376 1456 l 0
EndSplineSet
EndChar

StartChar: afii10022
Encoding: 1045 1045 469
Width: 1098
Flags: HMW
LayerCount: 2
Fore
SplineSet
397 1456 m 0
 1319 1456 l 0
 1290 1315 l 0
 526 1315 l 0
 420 817 l 0
 1140 817 l 0
 1110 676 l 0
 390 676 l 0
 276 141 l 0
 1040 141 l 0
 1010 0 l 0
 88 0 l 0
 397 1456 l 0
EndSplineSet
EndChar

StartChar: afii10025
Encoding: 1047 1047 470
Width: 1126
Flags: HMW
LayerCount: 2
Fore
SplineSet
167 252 m 0
 332 299 l 0
 345 244 374 200 420 165 c 0
 466 130 516 113 571 113 c 0
 664 113 748 141 824 198 c 0
 900 255 949 330 969 424 c 0
 973.750621894 447.278047283 976.018718867 469.201990062 976.018718867 490.093470264 c 0
 976.018718867 513.17829604 973.249378106 535.002487578 968 556 c 0
 958 596 940 629 913 654 c 0
 886 679 856 698 821 711 c 0
 786 724 747 731 706 731 c 0
 628 731 l 0
 655 856 l 0
 753 856 l 0
 818 856 880 881 938 930 c 0
 996 979 1032 1041 1048 1116 c 0
 1051.85626799 1134.4549968 1053.81574991 1152.15127917 1053.81574991 1169.08884711 c 0
 1053.81574991 1213.6423249 1040.25753918 1252.94604253 1012 1287 c 0
 973 1334 921 1358 858 1358 c 0
 852 1358 l 0
 799 1358 748 1344 702 1316 c 0
 656 1288 616 1249 585 1200 c 0
 462 1264 l 0
 512 1334 575 1390 651 1433 c 0
 727 1476 805 1497 887 1497 c 0
 954 1497 1015 1481 1069 1450 c 0
 1123 1419 1163 1373 1189 1314 c 0
 1205.66508124 1276.18308487 1214.5242842 1235.49031984 1214.5242842 1191.92170492 c 0
 1214.5242842 1167.51681456 1211.74456539 1142.20957959 1206 1116 c 0
 1194 1061 1173 1010 1141 963 c 0
 1109 916 1078 880 1046 854 c 0
 1014 828 984 808 955 795 c 0
 979 788 1002 773 1026 752 c 0
 1050 731 1070 705 1089 674 c 0
 1108 643 1121 605 1129 561 c 0
 1132.55555556 541.444444444 1134.33333333 521.49382716 1134.33333333 501.235939643 c 0
 1134.33333333 475.913580247 1131.55555556 450.111111111 1126 424 c 0
 1098 293 1028 186 916 100 c 0
 804 14 679 -29 541 -29 c 0
 458 -29 379 -3 305 48 c 0
 231 99 186 167 167 252 c 0
EndSplineSet
EndChar

StartChar: afii10026
Encoding: 1048 1048 471
Width: 1271
Flags: HMW
LayerCount: 2
Fore
SplineSet
430 1456 m 0
 588 1456 l 0
 336 266 l 0
 1335 1456 l 0
 1480 1456 l 0
 1171 0 l 0
 1014 0 l 0
 1261 1161 l 0
 274 0 l 0
 121 0 l 0
 430 1456 l 0
EndSplineSet
EndChar

StartChar: afii10027
Encoding: 1049 1049 472
Width: 1271
Flags: HMW
LayerCount: 2
Fore
SplineSet
1005 1690 m 1
 1042 1692 1075 1701 1101 1716 c 0
 1146 1744 1201 1799 1264 1880 c 1
 1344 1880 l 0
 1343 1877 1342 1873 1341 1870 c 0
 1331 1825 1297 1765 1237 1691 c 8
 1206 1653 1166 1621 1113 1594 c 24
 1064 1569 1016 1556 972 1556 c 24
 928 1556 886 1569 847 1594 c 24
 806 1621 778 1653 763 1691 c 16
 742.089758345 1746.26278152 731.218148973 1793.71773792 731.218148973 1832.94838068 c 0
 731.218148973 1846.24979448 732.467943448 1858.60574552 735 1870 c 0
 736 1873 737 1877 738 1880 c 0
 819 1880 l 1
 836 1805 866 1751 911 1716 c 0
 933 1700 964 1691 1005 1690 c 1
430 1456 m 0
 588 1456 l 0
 336 266 l 0
 1335 1456 l 0
 1480 1456 l 0
 1171 0 l 0
 1014 0 l 0
 1261 1161 l 0
 274 0 l 0
 121 0 l 0
 430 1456 l 0
EndSplineSet
EndChar

StartChar: afii10028
Encoding: 1050 1050 473
Width: 1239
Flags: HMW
LayerCount: 2
Fore
SplineSet
430 1456 m 0
 588 1456 l 0
 428 702 l 0
 1335 1456 l 0
 1528 1456 l 0
 742 803 l 0
 1235 0 l 0
 1028 0 l 0
 616 702 l 0
 389 516 l 0
 279 0 l 0
 121 0 l 0
 430 1456 l 0
EndSplineSet
EndChar

StartChar: afii10030
Encoding: 1052 1052 474
Width: 1562
Flags: HMW
LayerCount: 2
Fore
SplineSet
121 0 m 0
 430 1456 l 0
 645 1456 l 0
 839 209 l 0
 1564 1456 l 0
 1771 1456 l 0
 1462 0 l 0
 1309 0 l 0
 1565 1204 l 0
 884 16 l 0
 705 16 l 0
 530 1204 l 0
 274 0 l 0
 121 0 l 0
EndSplineSet
EndChar

StartChar: afii10031
Encoding: 1053 1053 475
Width: 1198
Flags: HMW
LayerCount: 2
Fore
SplineSet
430 1456 m 0
 588 1456 l 0
 452 815 l 0
 1113 815 l 0
 1249 1456 l 0
 1407 1456 l 0
 1098 0 l 0
 940 0 l 0
 1083 674 l 0
 422 674 l 0
 279 0 l 0
 121 0 l 0
 430 1456 l 0
EndSplineSet
EndChar

StartChar: afii10032
Encoding: 1054 1054 476
Width: 1333
Flags: HMW
LayerCount: 2
Fore
SplineSet
1250 725 m 0
 1267 804 1274 879 1275 952 c 0
 1275 1007 1269 1058 1259 1104 c 0
 1249 1150 1232 1192 1209 1231 c 0
 1186 1270 1153 1300 1112 1322 c 0
 1071 1344 1021 1354 964 1354 c 0
 902 1354 843 1341 788 1314 c 0
 733 1287 686 1252 646 1210 c 0
 606 1168 570 1118 538 1062 c 0
 506 1006 480 950 460 894 c 0
 440 838 424 782 412 725 c 0
 396 651 388 578 388 507 c 0
 387.93622915 503.492603227 387.90499207 500.009606781 387.90499207 496.550491988 c 0
 387.90499207 445.766723544 394.637708504 400.130311731 404 358 c 0
 414 313 432 272 455 234 c 0
 478 196 511 166 553 145 c 0
 595 124 643 113 700 113 c 0
 762 113 820 126 875 152 c 0
 930 178 976 210 1016 251 c 0
 1056 292 1091 339 1124 394 c 0
 1157 449 1183 503 1203 558 c 0
 1223 613 1238 668 1250 725 c 0
246 725 m 0
 260 792 280 860 308 929 c 0
 336 998 371 1066 416 1135 c 0
 461 1204 511 1264 565 1317 c 0
 619 1370 684 1413 759 1446 c 0
 834 1479 912 1495 994 1495 c 0
 1075 1495 1145 1480 1204 1449 c 0
 1263 1418 1309 1377 1343 1324 c 0
 1377 1271 1401 1213 1417 1151 c 0
 1433 1089 1440 1022 1440 950 c 0
 1440 873 1432 798 1416 725 c 0
 1402 658 1380 591 1353 524 c 0
 1326 457 1290 389 1246 322 c 0
 1202 255 1154 195 1099 144 c 0
 1044 93 979 51 904 19 c 0
 829 -13 752 -29 670 -29 c 0
 590 -29 520 -14 460 16 c 0
 400 46 355 87 321 139 c 0
 287 191 263 248 247 309 c 0
 231 370 223 437 223 508 c 0
 223 579 230 651 246 725 c 0
EndSplineSet
EndChar

StartChar: afii10033
Encoding: 1055 1055 477
Width: 1198
Flags: HMW
LayerCount: 2
Fore
SplineSet
430 1456 m 1
 1407 1456 l 1
 1098 0 l 0
 940 0 l 0
 1220 1315 l 0
 559 1315 l 0
 279 0 l 0
 121 0 l 0
 430 1456 l 1
EndSplineSet
EndChar

